<svg xmlns="http://www.w3.org/2000/svg" width="353.722" height="270.125" viewBox="0 0 353.722 270.125"><defs><style>.a,.j{fill:#d2f4ff;}.a{opacity:0.52;}.b{fill:#e0e0e0;}.c{fill:#f5f5f5;}.d{opacity:0.8;}.e{fill:#ebebeb;}.e,.m,.n{fill-rule:evenodd;}.f{fill:#263238;}.g,.n{fill:#fff;}.h,.m{fill:#09c;}.i,.s{opacity:0.3;}.k{fill:#e8505b;}.l{fill:#fafafa;}.o,.u{opacity:0.4;}.p{fill:#ffbe9d;}.q{fill:#eb996e;}.r{fill:#455a64;}.t{opacity:0.2;}</style></defs><g transform="translate(-10.639 -107.875)"><path class="a" d="M0,0C53.5-49.5,160.5-49.5,214,0s194.484,324.831,0,198S53.5,247.5,0,198-53.5,49.5,0,0Z" transform="translate(50.764 145)"/><g transform="translate(61.145 157.956)"><g transform="translate(40.076 23.261)"><g transform="translate(157.318 44.809)"><g transform="translate(5.407 5.319)"><path class="b" d="M420.189,132.057a2.205,2.205,0,0,1,.691.216,2.909,2.909,0,0,1,1.377,1.393,2.948,2.948,0,0,1,.281,1.346,2.986,2.986,0,0,1-.463,1.509,2.994,2.994,0,0,1-1.322,1.136,2.981,2.981,0,0,1-3.466-.777,3,3,0,0,1-.71-1.592,2.994,2.994,0,0,1,.226-1.562,2.942,2.942,0,0,1,.829-1.1,2.906,2.906,0,0,1,1.84-.672,2.2,2.2,0,0,1,.717.1c0,.02-.255-.051-.715-.035a2.914,2.914,0,0,0-1.765.7,2.855,2.855,0,0,0-.978,2.549,2.851,2.851,0,0,0,.681,1.5,2.831,2.831,0,0,0,3.276.735,2.859,2.859,0,0,0,1.258-1.069,2.854,2.854,0,0,0,.2-2.722,2.912,2.912,0,0,0-1.3-1.385C420.442,132.12,420.183,132.076,420.189,132.057Z" transform="translate(-416.552 -131.957)"/></g><path class="b" d="M416.215,122.714a.581.581,0,0,1-.006-.1c0-.077,0-.179-.007-.312,0-.285-.01-.7-.017-1.232l.021.026-2.661-.581.048-.024-.7,1.49-.012.027h-.03a6.658,6.658,0,0,0-1.735.308l-.032.01-.024-.024-1.17-1.158.074.008-2.3,1.463.027-.078.555,1.55.014.04-.029.031a6.618,6.618,0,0,0-1.009,1.438l-.02.039h-.044l-1.645.006.072-.059c-.186.835-.387,1.736-.593,2.659l-.043-.088,1.487.7.043.021,0,.048a6.64,6.64,0,0,0,.3,1.728l.015.047-.035.035-1.161,1.167.011-.1,1.459,2.3-.1-.034,1.551-.552.048-.017.037.035a6.609,6.609,0,0,0,1.432,1.009h0c.02.033-.045-.074.046.074v.826q0,.412,0,.82l-.065-.082,2.658.6-.093.046.707-1.486.021-.045.05,0a6.587,6.587,0,0,0,1.728-.3l.047-.015.035.035,1.166,1.163-.1-.011,2.3-1.455-.031.091-.55-1.552-.015-.043.031-.033A6.591,6.591,0,0,0,419,131.736l.021-.039h1.689l-.068.055c.212-.935.411-1.817.6-2.657l.035.072-1.485-.71-.033-.016V128.4a6.639,6.639,0,0,0-.3-1.735l-.01-.032.024-.024,1.166-1.163-.007.061-1.448-2.307.044.015-1.555.542-.016.006-.012-.011a6.891,6.891,0,0,0-1.057-.814l-.283-.171a.711.711,0,0,1-.093-.058.877.877,0,0,1,.1.045c.065.033.163.084.291.159a6.47,6.47,0,0,1,1.079.8l-.027-.006,1.547-.562.028-.01.017.025,1.468,2.295.021.033-.028.029-1.158,1.17.013-.055a6.745,6.745,0,0,1,.312,1.764l-.034-.052,1.488.7.047.022-.012.05-.591,2.659-.012.054h-.056l-1.645.006.064-.039a6.739,6.739,0,0,1-1.032,1.469l.016-.076.554,1.55.021.058-.052.033-2.3,1.46-.054.034-.045-.045-1.168-1.161.082.02a6.749,6.749,0,0,1-1.771.309l.071-.047-.705,1.487-.029.06-.065-.014-2.658-.6-.066-.015v-.067l0-.82v-.825c.09.148.025.041.045.074h0a6.757,6.757,0,0,1-1.468-1.035l.085.018-1.551.552-.063.023-.036-.056-1.457-2.3-.035-.055.047-.047,1.163-1.166-.02.082a6.794,6.794,0,0,1-.307-1.771l.046.069-1.486-.707-.056-.027.014-.061.6-2.657.013-.058h1.7l-.064.039a6.733,6.733,0,0,1,1.036-1.466l-.015.07-.549-1.552-.018-.05.045-.028,2.3-1.452.041-.026.034.034,1.164,1.165-.055-.013a6.735,6.735,0,0,1,1.764-.3l-.042.028.712-1.484.015-.031.033.008,2.654.612.021,0v.021c0,.53-.008.938-.011,1.221,0,.135,0,.238-.006.316A.879.879,0,0,1,416.215,122.714Z" transform="translate(-404.828 -120.423)"/></g><g transform="translate(136.696 152.059)"><path class="b" d="M408.234,380.867s-.006-.173-.008-.5,0-.819-.008-1.455c0-1.278-.011-3.154-.019-5.562-.01-4.813-.023-11.749-.041-20.266l.076.076-48.021.023h0l.1-.1c0,9.834,0,19.229-.007,27.785l-.091-.091,34.541.044,9.92.025,2.645.011.684.006c.154,0,.236.006.236.006s-.074,0-.225.006l-.674.006-2.626.011-9.9.025-34.6.044h-.091v-.092c0-8.556,0-17.952-.007-27.785v-.1h.1l48.021.023h.076v.076c-.017,8.536-.031,15.488-.04,20.313-.008,2.4-.015,4.27-.019,5.545,0,.63-.006,1.112-.008,1.441S408.234,380.867,408.234,380.867Z" transform="translate(-360.111 -352.984)"/><g transform="translate(0.16 3.364)"><path class="b" d="M408.439,360.377c0,.054-10.742.1-23.99.1s-23.992-.044-23.992-.1,10.74-.1,23.992-.1S408.439,360.323,408.439,360.377Z" transform="translate(-360.457 -360.279)"/></g><g transform="translate(4.258 8.044)"><rect class="c" width="14.835" height="14.835"/></g><g transform="translate(23.168 10.393)"><path class="b" d="M431.821,375.617a.916.916,0,0,1-.218.02l-.626.018-2.3.031-7.591.029-7.592-.029-2.3-.031-.625-.018a.11.11,0,1,1,0-.04l.625-.018,2.3-.031,7.592-.029,7.591.029,2.3.031.626.018A.916.916,0,0,1,431.821,375.617Z" transform="translate(-410.348 -375.519)"/><g transform="translate(0 3.314)"><path class="b" d="M432.3,382.8a.959.959,0,0,1-.223.02l-.639.018-2.352.031-7.76.029-7.762-.029-2.352-.031-.64-.018a.952.952,0,0,1-.223-.02.983.983,0,0,1,.223-.02l.64-.018,2.352-.031,7.762-.029,7.76.029,2.352.031.639.018A.99.99,0,0,1,432.3,382.8Z" transform="translate(-410.348 -382.704)"/></g><g transform="translate(0 6.628)"><path class="b" d="M432.3,389.988a.99.99,0,0,1-.223.02l-.639.018-2.352.031-7.76.029-7.762-.029-2.352-.031-.64-.018a.983.983,0,0,1-.223-.02.952.952,0,0,1,.223-.02l.64-.018,2.352-.031,7.762-.029,7.76.029,2.352.031.639.018A.959.959,0,0,1,432.3,389.988Z" transform="translate(-410.348 -389.89)"/></g><g transform="translate(0 9.941)"><path class="b" d="M432.3,397.173a.988.988,0,0,1-.223.02l-.639.018-2.352.031-7.76.029-7.762-.029-2.352-.031-.64-.018a.981.981,0,0,1-.223-.02.951.951,0,0,1,.223-.02l.64-.018,2.352-.031,7.762-.029,7.76.029,2.352.031.639.018A.958.958,0,0,1,432.3,397.173Z" transform="translate(-410.348 -397.075)"/></g></g></g><g transform="translate(17.724)"><circle class="c" cx="19.959" cy="19.959" r="19.959" transform="translate(0 28.226) rotate(-45)"/><g transform="translate(27.986 17.077)"><path class="b" d="M172.119,72.053a4.017,4.017,0,0,1-.705.047l-1.94.039c-1.646.023-3.94.038-6.528.042h-.128v-.128c0-.414,0-.851,0-1.295,0-2.891.014-5.508.038-7.4.017-.913.03-1.669.041-2.243a4.97,4.97,0,0,1,.05-.823,5.041,5.041,0,0,1,.05.823c.011.574.024,1.33.041,2.243.024,1.894.038,4.512.038,7.4,0,.444,0,.88,0,1.295l-.128-.128c2.589,0,4.882.019,6.528.042l1.94.039A3.96,3.96,0,0,1,172.119,72.053Z" transform="translate(-162.817 -60.29)"/></g><g transform="translate(28.047 11.546)"><path class="b" d="M163.079,48.3a5.566,5.566,0,0,1,.129,1.676,5.568,5.568,0,0,1-.129,1.677,5.55,5.55,0,0,1-.129-1.677A5.548,5.548,0,0,1,163.079,48.3Z" transform="translate(-162.95 -48.296)"/></g><g transform="translate(34.93 14.235)"><path class="b" d="M180.214,54.131a5.389,5.389,0,0,1-1.077,1.259,5.393,5.393,0,0,1-1.26,1.077,10.635,10.635,0,0,1,2.337-2.337Z" transform="translate(-177.874 -54.127)"/></g><g transform="translate(39.761 20.038)"><path class="b" d="M191.177,66.72a19.4,19.4,0,0,1-2.824,1.716,7.353,7.353,0,0,1,2.824-1.716Z" transform="translate(-188.351 -66.711)"/></g><g transform="translate(41.131 28.537)"><path class="b" d="M195.894,85.27a20.3,20.3,0,0,1-4.572,0,20.3,20.3,0,0,1,4.572,0Z" transform="translate(-191.322 -85.141)"/></g><g transform="translate(9.683 28.233)"><path class="b" d="M127.448,84.609a18.117,18.117,0,0,1-4.318,0,18.117,18.117,0,0,1,4.318,0Z" transform="translate(-123.13 -84.48)"/></g><g transform="translate(12.817 34.776)"><g transform="translate(0 0)"><path class="b" d="M133.352,98.672a18.8,18.8,0,0,1-3.425,2.759,18.8,18.8,0,0,1,3.425-2.759Z" transform="translate(-129.925 -98.668)"/></g></g><g transform="translate(19.479 39.741)"><path class="b" d="M146.668,109.435a14.653,14.653,0,0,1-1.111,1.925,14.68,14.68,0,0,1-1.179,1.884,11.411,11.411,0,0,1,2.289-3.809Z" transform="translate(-144.372 -109.434)"/></g><g transform="translate(28.047 41.571)"><path class="b" d="M163.079,117.976a20.3,20.3,0,0,1,0-4.573,20.305,20.305,0,0,1,0,4.573Z" transform="translate(-162.95 -113.403)"/></g><g transform="translate(34.607 40.112)"><g transform="translate(0 0)"><path class="b" d="M180.6,113.225a9.836,9.836,0,0,1-3.421-2.982,21.164,21.164,0,0,1,1.706,1.5A21.211,21.211,0,0,1,180.6,113.225Z" transform="translate(-177.173 -110.24)"/></g></g><g transform="translate(39.807 35.269)"><path class="b" d="M191.3,102.584a15.755,15.755,0,0,1-2.845-2.845,15.717,15.717,0,0,1,2.845,2.845Z" transform="translate(-188.451 -99.736)"/></g><g transform="translate(13.541 19.722)"><path class="b" d="M133.988,68.517a12.031,12.031,0,0,1-2.489-2.489,12.063,12.063,0,0,1,2.489,2.489Z" transform="translate(-131.496 -66.025)"/></g><g transform="translate(19.294 13.765)"><path class="b" d="M146.417,55.546a5.879,5.879,0,0,1-1.313-1.125,5.879,5.879,0,0,1-1.131-1.308,5.862,5.862,0,0,1,1.313,1.125A5.869,5.869,0,0,1,146.417,55.546Z" transform="translate(-143.97 -53.109)"/></g></g><g class="d" transform="translate(132.165 13.567)"><path class="e" d="M372.631,57.113a13.237,13.237,0,0,1,2.871,2.023l3.068-1.092,2.884,4.551-2.3,2.308a13.21,13.21,0,0,1,.6,3.461l2.94,1.4-1.18,5.257-3.255.007a13.168,13.168,0,0,1-2.023,2.871l1.092,3.068-4.551,2.884-2.308-2.3a13.2,13.2,0,0,1-3.461.6l-1.4,2.941-5.258-1.179-.007-3.255a13.178,13.178,0,0,1-2.872-2.023l-3.068,1.093-2.884-4.551,2.3-2.308a13.241,13.241,0,0,1-.6-3.46l-2.94-1.4,1.179-5.258,3.255-.006a13.172,13.172,0,0,1,2.023-2.872l-1.092-3.069,4.55-2.883,2.308,2.3a13.188,13.188,0,0,1,3.461-.6l1.4-2.94,5.257,1.179.008,3.255ZM368,63.3a5.78,5.78,0,1,0,4.375,6.9A5.78,5.78,0,0,0,368,63.3Z" transform="translate(-350.285 -52.679)"/></g><g transform="translate(0 56.396)"><path class="c" d="M63.7,153.405H97.815s-3.017-5.49-11.8-4.691c-8.386.763-8.813-2.7-13.077-3.127S65.122,148.43,63.7,153.405Z" transform="translate(-63.701 -145.55)"/></g><g transform="translate(73.832 119.917)"><path class="c" d="M223.8,289.646H251.41s-2.442-4.444-9.549-3.8c-6.788.618-7.133-2.186-10.585-2.531S224.948,285.619,223.8,289.646Z" transform="translate(-223.797 -283.288)"/></g></g><g transform="translate(19.855 217.552)"><path class="f" d="M232.128,444.68c0,.066-47.523.12-106.131.12-58.629,0-106.142-.054-106.142-.12s47.512-.12,106.142-.12C184.605,444.56,232.128,444.613,232.128,444.68Z" transform="translate(-19.855 -444.56)"/></g><g transform="translate(30.992 79.341)"><g transform="translate(122.507)"><g transform="translate(0.12 0.12)"><rect class="g" width="67" height="44.861"/></g><path class="h" d="M376.768,189.846s-.006-.28-.01-.816l-.011-2.367c-.006-2.076-.014-5.122-.024-9.022-.012-7.794-.029-19-.051-32.656l.1.1-66.995.024h-.005l.12-.12c0,15.982-.007,31.179-.01,44.861l-.11-.11,48.269.054,13.79.03,3.668.013.947.006c.214,0,.325.006.325.006s-.1,0-.312.006l-.934.006-3.647.013-13.766.03-48.341.054h-.11v-.11c0-13.682-.006-28.879-.01-44.861v-.12h.125l66.995.024h.1v.1c-.021,13.683-.038,24.907-.05,32.716-.011,3.89-.019,6.929-.024,9,0,1.027-.008,1.814-.011,2.349S376.768,189.846,376.768,189.846Z" transform="translate(-309.648 -144.865)"/><g transform="translate(0.12 4.003)"><path class="h" d="M309.909,153.666c0-.066,14.987-.12,33.471-.12s33.474.053,33.474.12-14.984.12-33.474.12S309.909,153.732,309.909,153.666Z" transform="translate(-309.909 -153.546)"/></g><g transform="translate(1.69 1.567)"><g class="i"><path class="j" d="M314.386,148.8a.537.537,0,1,1-.537-.537A.537.537,0,0,1,314.386,148.8Z" transform="translate(-313.312 -148.262)"/></g><g class="i" transform="translate(1.84)"><path class="j" d="M318.376,148.8a.537.537,0,1,1-.537-.537A.537.537,0,0,1,318.376,148.8Z" transform="translate(-317.302 -148.262)"/></g><g class="i" transform="translate(3.653)"><path class="j" d="M322.308,148.8a.537.537,0,1,1-.537-.537A.537.537,0,0,1,322.308,148.8Z" transform="translate(-321.234 -148.262)"/></g></g><g class="i" transform="translate(5.88 8.802)"><rect class="j" width="17.872" height="17.872"/></g><g transform="translate(26.797 13.733)"><path class="h" d="M398.89,174.764c0,.066-6.97.12-15.567.12s-15.568-.054-15.568-.12,6.969-.12,15.568-.12S398.89,174.7,398.89,174.764Z" transform="translate(-367.755 -174.644)"/></g><g transform="translate(26.797 17.055)"><path class="h" d="M398.89,181.966c0,.066-6.97.12-15.567.12s-15.568-.053-15.568-.12,6.969-.12,15.568-.12S398.89,181.9,398.89,181.966Z" transform="translate(-367.755 -181.846)"/></g><g transform="translate(26.797 20.375)"><path class="h" d="M398.89,189.167c0,.066-6.97.12-15.567.12s-15.568-.054-15.568-.12,6.969-.12,15.568-.12S398.89,189.1,398.89,189.167Z" transform="translate(-367.755 -189.047)"/></g><g transform="translate(26.797 23.697)"><path class="h" d="M386.156,196.369a4.146,4.146,0,0,1-.723.047l-1.971.038c-1.665.022-3.965.036-6.505.036s-4.842-.014-6.507-.036l-1.972-.038a4.142,4.142,0,0,1-.723-.047,4.178,4.178,0,0,1,.723-.047l1.972-.038c1.665-.022,3.965-.035,6.507-.035s4.84.013,6.505.035l1.971.038A4.182,4.182,0,0,1,386.156,196.369Z" transform="translate(-367.755 -196.249)"/></g><g class="i" transform="translate(6.999 32.7)"><rect class="k" width="8.399" height="8.399"/></g><g class="i" transform="translate(22.231 32.7)"><rect class="j" width="8.399" height="8.399"/></g><g class="i" transform="translate(37.463 32.7)"><rect class="j" width="8.399" height="8.399"/></g><g class="i" transform="translate(52.695 32.7)"><rect class="j" width="8.399" height="8.399"/></g></g><g transform="translate(0 16.187)"><g transform="translate(0.095 0.095)"><rect class="g" width="59.686" height="24.243"/></g><path class="h" d="M103.785,204.3s0-.149-.006-.433,0-.707-.007-1.258c0-1.106-.009-2.732-.017-4.825-.008-4.184-.021-10.237-.036-17.728l.066.066-59.682.028h0l.095-.095c0,8.49,0,16.685,0,24.243l-.09-.09,42.794.043,12.414.025,3.322.012.86.006c.194,0,.3.006.3.006s-.094,0-.284.006l-.849.006-3.3.012-12.394.025-42.855.043h-.09V204.3c0-7.559,0-15.754,0-24.243v-.095h.1l59.682.028h.067v.066c-.015,7.508-.027,13.575-.036,17.768-.007,2.087-.012,3.707-.016,4.81,0,.545-.006.962-.007,1.246S103.785,204.3,103.785,204.3Z" transform="translate(-44.005 -179.964)"/><g transform="translate(0.154 3.27)"><path class="h" d="M44.34,187.149c0-.053,13.341-.095,29.794-.095s29.8.042,29.8.095-13.338.094-29.8.094S44.34,187.2,44.34,187.149Z" transform="translate(-44.34 -187.054)"/></g><g transform="translate(1.787 1.468)"><g class="i"><path class="j" d="M48.746,183.581a.433.433,0,1,1-.433-.434A.433.433,0,0,1,48.746,183.581Z" transform="translate(-47.879 -183.148)"/></g><g class="i" transform="translate(1.485)"><path class="j" d="M51.964,183.581a.433.433,0,1,1-.433-.434A.433.433,0,0,1,51.964,183.581Z" transform="translate(-51.098 -183.148)"/></g><g class="i" transform="translate(2.947)"><path class="j" d="M55.137,183.581a.433.433,0,1,1-.434-.434A.433.433,0,0,1,55.137,183.581Z" transform="translate(-54.27 -183.148)"/></g></g><g class="i" transform="translate(5.167 7.304)"><rect class="j" width="14.416" height="14.416"/></g><g transform="translate(22.514 11.073)"><path class="h" d="M125.961,204.07c0,.052-7.419.095-16.568.095s-16.569-.042-16.569-.095,7.417-.095,16.569-.095S125.961,204.017,125.961,204.07Z" transform="translate(-92.824 -203.975)"/><g transform="translate(0 2.937)"><path class="h" d="M125.961,210.439c0,.052-7.419.095-16.568.095s-16.569-.042-16.569-.095,7.417-.095,16.569-.095S125.961,210.386,125.961,210.439Z" transform="translate(-92.824 -210.344)"/></g><g transform="translate(0 5.874)"><path class="h" d="M114.156,216.807a.944.944,0,0,1-.217.019l-.621.018-2.286.03-7.541.028-7.543-.028-2.286-.03-.621-.018a.109.109,0,1,1,0-.038l.621-.018,2.286-.03,7.543-.028,7.541.028,2.286.03.621.018A.943.943,0,0,1,114.156,216.807Z" transform="translate(-92.824 -216.712)"/></g></g></g></g><g transform="translate(100.074 48.754)"><path class="c" d="M245.806,113.711a3.152,3.152,0,0,0-3.374.4,16.635,16.635,0,0,1-2.976,2.017c-2.1.818-4.864-.151-6.5,1.406-1.038.988-1.144,2.61-1.937,3.8-1.336,2.011-4.543,2.766-4.818,5.165a3.113,3.113,0,0,0,2.3,3.133,4.933,4.933,0,0,0,4.013-.8c1.37-.91,2.446-2.314,4.007-2.833,1.6-.529,3.564-.086,4.822-1.2s1.07-3.162,1.973-4.584a9.208,9.208,0,0,1,1.916-1.871,3.724,3.724,0,0,0,1.438-2.2c.114-.89-.251-2.406-.862-2.44" transform="translate(-211.25 -97.307)"/><g transform="translate(0 15.733)"><g transform="translate(8.553 98.643)"><path class="f" d="M212.365,326.555c.057-.034.243.152.417.416s.271.51.217.549-.241-.149-.418-.417S212.308,326.59,212.365,326.555Z" transform="translate(-212.349 -326.551)"/></g><g transform="translate(6.578 94.486)"><path class="f" d="M208.081,317.539a5.6,5.6,0,0,1,.876,2.135,5.613,5.613,0,0,1-.876-2.135Z" transform="translate(-208.067 -317.538)"/></g><g transform="translate(5.492 90.003)"><path class="f" d="M205.743,307.818a5.591,5.591,0,0,1,.421,2.269,5.613,5.613,0,0,1-.421-2.269Z" transform="translate(-205.711 -307.818)"/></g><g transform="translate(5.224 85.397)"><path class="f" d="M205.268,297.83a5.61,5.61,0,0,1-.032,2.307,5.61,5.61,0,0,1,.032-2.307Z" transform="translate(-205.13 -297.83)"/></g><g transform="translate(5.593 80.848)"><path class="f" d="M206.444,287.965a5.6,5.6,0,0,1-.487,2.256,5.615,5.615,0,0,1,.487-2.256Z" transform="translate(-205.93 -287.965)"/></g><g transform="translate(6.809 76.549)"><path class="f" d="M209.523,278.645a5.6,5.6,0,0,1-.944,2.105,5.6,5.6,0,0,1,.944-2.105Z" transform="translate(-208.565 -278.644)"/></g><g transform="translate(8.926 72.704)"><path class="f" d="M214.538,270.309a2.9,2.9,0,0,1-.591,1,3.127,3.127,0,0,1-.78.858c-.062-.041.206-.485.587-1S214.487,270.267,214.538,270.309Z" transform="translate(-213.158 -270.306)"/></g><g transform="translate(11.811 69.287)"><path class="f" d="M221.009,262.9c.047.047-.27.458-.709.918s-.834.8-.883.753.268-.456.708-.918S220.961,262.853,221.009,262.9Z" transform="translate(-219.412 -262.896)"/></g><g transform="translate(15.03 66.007)"><path class="f" d="M228.016,255.789c.048.046-.276.451-.724.906s-.849.784-.9.738.277-.453.724-.906S227.968,255.743,228.016,255.789Z" transform="translate(-226.392 -255.785)"/></g><g transform="translate(18.216 62.531)"><path class="f" d="M234.77,248.251c.053.04-.233.473-.639.968s-.775.861-.825.816a2.9,2.9,0,0,1,.639-.968C234.348,248.576,234.717,248.211,234.77,248.251Z" transform="translate(-233.301 -248.248)"/></g><g transform="translate(20.973 58.574)"><path class="f" d="M240.345,239.669a2.478,2.478,0,0,1-.387,1.1c-.3.571-.614.986-.67.952a3.394,3.394,0,0,1,.457-1.063A3.459,3.459,0,0,1,240.345,239.669Z" transform="translate(-239.279 -239.668)"/></g><g transform="translate(22.759 54.119)"><path class="f" d="M243.555,230.006a4.071,4.071,0,0,1-.379,2.275,9.067,9.067,0,0,1,.379-2.275Z" transform="translate(-243.153 -230.006)"/></g><g transform="translate(22.794 49.535)"><path class="f" d="M243.254,220.067a4.081,4.081,0,0,1,.354,2.278,9.053,9.053,0,0,1-.354-2.278Z" transform="translate(-243.229 -220.066)"/></g><g transform="translate(20.999 45.314)"><path class="f" d="M239.344,210.917c.053-.037.393.365.7.932a2.385,2.385,0,0,1,.393,1.1,9.8,9.8,0,0,1-1.089-2.028Z" transform="translate(-239.336 -210.915)"/></g><g transform="translate(17.787 42.036)"><path class="f" d="M232.373,203.814a2.361,2.361,0,0,1,1,.605c.5.413.819.829.772.873s-.441-.286-.926-.689S232.335,203.87,232.373,203.814Z" transform="translate(-232.371 -203.807)"/></g><g transform="translate(13.597 40.148)"><path class="f" d="M223.286,199.736a3.927,3.927,0,0,1,2.181.745,9.891,9.891,0,0,1-2.181-.745Z" transform="translate(-223.285 -199.713)"/></g><g transform="translate(9.015 39.716)"><path class="f" d="M213.35,199.023a3.8,3.8,0,0,1,2.3-.122,3.745,3.745,0,0,1-1.147.122A3.8,3.8,0,0,1,213.35,199.023Z" transform="translate(-213.35 -198.775)"/></g><g transform="translate(4.758 40.555)"><path class="f" d="M204.122,201.7c-.038-.053.358-.4.928-.707a2.292,2.292,0,0,1,1.1-.382,11.848,11.848,0,0,1-2.03,1.089Z" transform="translate(-204.12 -200.596)"/></g><g transform="translate(1.586 43.15)"><path class="f" d="M197.249,208.046a2.333,2.333,0,0,1,.566-1.019c.4-.511.8-.846.848-.8s-.273.45-.658.948S197.307,208.081,197.249,208.046Z" transform="translate(-197.241 -206.222)"/></g><g transform="translate(0 47.043)"><path class="f" d="M193.843,216.9a2.27,2.27,0,0,1,.089-1.164,2.3,2.3,0,0,1,.451-1.076,3.88,3.88,0,0,1-.218,1.133A3.971,3.971,0,0,1,193.843,216.9Z" transform="translate(-193.802 -214.663)"/></g><g transform="translate(0.005 51.585)"><path class="f" d="M194.4,226.751a3.688,3.688,0,0,1-.544-2.238,3.927,3.927,0,0,1,.326,1.106A3.842,3.842,0,0,1,194.4,226.751Z" transform="translate(-193.812 -224.513)"/></g><g transform="translate(1.574 55.9)"><path class="f" d="M198.567,235.744c-.049.042-.431-.317-.807-.84a2.411,2.411,0,0,1-.537-1.033c.058-.034.362.381.732.893A3.488,3.488,0,0,1,198.567,235.744Z" transform="translate(-197.215 -233.869)"/></g><g transform="translate(4.524 59.429)"><path class="f" d="M205.411,242.976a2.553,2.553,0,0,1-.994-.606c-.5-.4-.845-.8-.8-.844s.458.261.952.658S205.45,242.922,205.411,242.976Z" transform="translate(-203.613 -241.521)"/></g><g transform="translate(8.262 62.121)"><path class="f" d="M213.775,248.413a2.843,2.843,0,0,1-1.083-.416c-.571-.291-1.008-.573-.974-.63a5.594,5.594,0,0,1,2.057,1.045Z" transform="translate(-211.716 -247.358)"/></g><g transform="translate(12.474 63.983)"><path class="f" d="M223.085,251.986a4.369,4.369,0,0,1-2.234-.572,3.325,3.325,0,0,1,1.139.2A3.366,3.366,0,0,1,223.085,251.986Z" transform="translate(-220.85 -251.395)"/></g><g transform="translate(16.997 64.751)"><path class="f" d="M232.963,253.12a4.143,4.143,0,0,1-2.3.046,8.685,8.685,0,0,1,2.3-.046Z" transform="translate(-230.659 -253.06)"/></g><g transform="translate(21.571 63.611)"><path class="f" d="M242.746,250.6a4.036,4.036,0,0,1-2.169.779,9.2,9.2,0,0,1,2.169-.779Z" transform="translate(-240.576 -250.589)"/></g><g transform="translate(25.756 61.099)"><path class="f" d="M251.483,245.148c.044.048-.306.439-.816.83a2.464,2.464,0,0,1-1.013.574c-.036-.057.366-.379.867-.764S251.438,245.1,251.483,245.148Z" transform="translate(-249.651 -245.142)"/></g><g transform="translate(29.199 57.613)"><path class="f" d="M258.508,237.585a2.5,2.5,0,0,1-.566,1.017c-.386.515-.77.871-.819.828a3.4,3.4,0,0,1,.627-.972C258.13,237.953,258.451,237.549,258.508,237.585Z" transform="translate(-257.117 -237.583)"/></g><g transform="translate(31.713 53.467)"><path class="f" d="M263.442,228.594a4.294,4.294,0,0,1-.863,2.139,8.155,8.155,0,0,1,.863-2.139Z" transform="translate(-262.567 -228.594)"/></g><g transform="translate(33.137 48.95)"><path class="f" d="M266,218.8a4.413,4.413,0,0,1-.313,2.285A7.7,7.7,0,0,1,266,218.8Z" transform="translate(-265.656 -218.798)"/></g><g transform="translate(33.302 44.343)"><path class="f" d="M266.073,208.808a5.617,5.617,0,0,1,.178,2.3,5.6,5.6,0,0,1-.178-2.3Z" transform="translate(-266.013 -208.808)"/></g><g transform="translate(32.339 39.841)"><path class="f" d="M263.946,199.047a5.615,5.615,0,0,1,.6,2.228,5.615,5.615,0,0,1-.6-2.228Z" transform="translate(-263.925 -199.047)"/></g><g transform="translate(30.583 35.579)"><path class="f" d="M260.13,189.805a2.835,2.835,0,0,1,.614.987,2.879,2.879,0,0,1,.357,1.106,2.879,2.879,0,0,1-.575-1A2.924,2.924,0,0,1,260.13,189.805Z" transform="translate(-260.118 -189.804)"/></g><g transform="translate(28.317 31.56)"><path class="f" d="M255.212,181.093c.057-.034.364.385.687.935a2.867,2.867,0,0,1,.48,1.056c-.058.033-.366-.386-.688-.935A2.868,2.868,0,0,1,255.212,181.093Z" transform="translate(-255.203 -181.091)"/></g><g transform="translate(26.026 27.555)"><path class="f" d="M250.246,172.406c.059-.03.356.4.664.951a2.87,2.87,0,0,1,.453,1.068c-.057.033-.354-.392-.664-.952A2.854,2.854,0,0,1,250.246,172.406Z" transform="translate(-250.236 -172.405)"/></g><g transform="translate(24.218 23.315)"><path class="f" d="M246.333,163.212a5.592,5.592,0,0,1,.8,2.16,5.6,5.6,0,0,1-.8-2.16Z" transform="translate(-246.317 -163.212)"/></g><g transform="translate(23.379 18.78)"><path class="f" d="M244.568,153.378a8.048,8.048,0,0,1,.244,2.293,4.306,4.306,0,0,1-.244-2.293Z" transform="translate(-244.497 -153.378)"/></g><g transform="translate(23.444 14.191)"><path class="f" d="M245.024,143.428a7.91,7.91,0,0,1-.333,2.283,4.345,4.345,0,0,1,.333-2.283Z" transform="translate(-244.638 -143.427)"/></g><g transform="translate(24.428 9.838)"><path class="f" d="M247.678,133.99a8.02,8.02,0,0,1-.889,2.128,4.315,4.315,0,0,1,.889-2.128Z" transform="translate(-246.772 -133.989)"/></g><g transform="translate(26.485 6.018)"><path class="f" d="M252.652,125.709a3.4,3.4,0,0,1-.641.962c-.388.5-.715.9-.772.861a2.5,2.5,0,0,1,.582-1.008C252.214,126.015,252.6,125.664,252.652,125.709Z" transform="translate(-251.231 -125.705)"/></g><g transform="translate(29.536 2.979)"><path class="f" d="M259.678,119.123c.037.056-.362.384-.862.771a3.377,3.377,0,0,1-.965.638c-.044-.049.309-.436.818-.828A2.515,2.515,0,0,1,259.678,119.123Z" transform="translate(-257.848 -119.115)"/></g><g transform="translate(33.353 0.884)"><path class="f" d="M268.242,114.587a8,8,0,0,1-2.117.915,4.322,4.322,0,0,1,2.117-.915Z" transform="translate(-266.124 -114.571)"/></g><g transform="translate(37.681)"><path class="f" d="M276.644,112.709c.01.065-.235.165-.545.223s-.575.051-.589-.014.23-.164.546-.223S276.635,112.643,276.644,112.709Z" transform="translate(-275.509 -112.655)"/></g></g><g transform="translate(25.186)"><path class="j" d="M298.377,80.748a15.073,15.073,0,0,1,12.913-1.368s.616,6.206-5.4,11.141" transform="translate(-275.336 -78.54)"/><path class="h" d="M261.351,93.567c.231.346,6.109,9.8,6.109,9.8l17.651-10.874a6.178,6.178,0,0,0,1.724-8.937h0a6.178,6.178,0,0,0-8.408-1.452Z" transform="translate(-255.385 -79.893)"/><path class="f" d="M274.135,123.538l-.4,6.649s11.438-5.54,8.584-11.693Z" transform="translate(-262.06 -100.068)"/><path class="f" d="M262.557,94.954s-7.755-3.422-14.142,1.6l5.966,3.894Z" transform="translate(-248.415 -86.771)"/><path class="f" d="M266.064,108.052l-11.038,6.905s.379,1.187.676,1.088c.249-.083,8.543-4.981,11.233-6.571a.831.831,0,0,0,.217-1.244h0A.834.834,0,0,0,266.064,108.052Z" transform="translate(-251.977 -94.373)"/><g transform="translate(20.005 4.196)"><circle class="l" cx="3.534" cy="3.534" r="3.534" transform="matrix(0.229, -0.973, 0.973, 0.229, 0, 6.88)"/><g transform="translate(0.595 0.616)"><path class="f" d="M300.272,92.608c-.028,0-.013-.315-.156-.851a3.525,3.525,0,0,0-1.292-1.89,3.438,3.438,0,0,0-3.253-.474,3.384,3.384,0,0,0-1.585,1.2,3.406,3.406,0,0,0,0,4.038,3.388,3.388,0,0,0,1.586,1.2,3.439,3.439,0,0,0,3.253-.474,3.523,3.523,0,0,0,1.291-1.89c.143-.537.128-.853.156-.852a.8.8,0,0,1,.012.227,2.792,2.792,0,0,1-.078.647,3.515,3.515,0,0,1-1.279,2,3.575,3.575,0,0,1-1.519.693,3.633,3.633,0,0,1-1.912-.146,3.59,3.59,0,0,1-1.7-1.265,3.623,3.623,0,0,1,0-4.317,3.586,3.586,0,0,1,1.7-1.265,3.631,3.631,0,0,1,1.912-.146,3.567,3.567,0,0,1,1.519.693,3.516,3.516,0,0,1,1.279,2,2.792,2.792,0,0,1,.078.647A.793.793,0,0,1,300.272,92.608Z" transform="translate(-293.084 -88.974)"/></g></g><g transform="translate(25.665 0.848)"><path class="f" d="M310.492,90.331c-.046,0-.1-.686-.37-1.76a13.393,13.393,0,0,0-.614-1.841,13.282,13.282,0,0,0-2.565-3.972,13.494,13.494,0,0,0-1.425-1.318c-.868-.689-1.475-1.021-1.452-1.061a1.867,1.867,0,0,1,.44.208,4.716,4.716,0,0,1,.492.291c.185.123.4.253.624.428a11.846,11.846,0,0,1,1.482,1.3,12.457,12.457,0,0,1,2.609,4.04,11.87,11.87,0,0,1,.575,1.886c.069.272.1.525.133.745a4.806,4.806,0,0,1,.063.567A1.882,1.882,0,0,1,310.492,90.331Z" transform="translate(-304.066 -80.378)"/></g><g transform="translate(24.628 1.157)"><path class="f" d="M308.329,91.2c-.046,0-.1-.7-.376-1.79a13.765,13.765,0,0,0-.624-1.874,13.642,13.642,0,0,0-2.6-4.05,13.847,13.847,0,0,0-1.443-1.348c-.879-.706-1.493-1.049-1.47-1.089a1.923,1.923,0,0,1,.445.216,4.869,4.869,0,0,1,.5.3c.188.126.409.261.631.44a12.145,12.145,0,0,1,1.5,1.331,12.789,12.789,0,0,1,2.641,4.117,12.215,12.215,0,0,1,.584,1.918c.07.277.1.534.137.758a5.023,5.023,0,0,1,.065.577A1.958,1.958,0,0,1,308.329,91.2Z" transform="translate(-301.819 -81.049)"/></g></g></g><g transform="translate(27.806 143.785)"><g transform="translate(17.32 31.508)"><path class="h" d="M77.967,384.3c-.4-1.568.64-3.134,1.8-4.264S82.3,377.9,82.911,376.4c.984-2.428-.3-5.586,1.364-7.607.98-1.188,2.729-1.578,3.6-2.85a6.528,6.528,0,0,0,.791-2.275,23.161,23.161,0,0,1,5.821-10.745A20.094,20.094,0,0,1,92.168,363.3a13.216,13.216,0,0,0-1.738,3.936c-.374,2.311.9,4.7.322,6.97-.665,2.594-3.593,4.316-3.746,6.99-.13,2.26,1.829,4.255,1.67,6.514a6.106,6.106,0,0,1-1.021,2.675c-1.764,2.9-4.344,4.883-8.236,4.8l-4.768.14Z" transform="translate(-74.652 -352.926)"/></g><g class="i" transform="translate(17.32 31.508)"><path d="M77.967,384.3c-.4-1.568.64-3.134,1.8-4.264S82.3,377.9,82.911,376.4c.984-2.428-.3-5.586,1.364-7.607.98-1.188,2.729-1.578,3.6-2.85a6.528,6.528,0,0,0,.791-2.275,23.161,23.161,0,0,1,5.821-10.745A20.094,20.094,0,0,1,92.168,363.3a13.216,13.216,0,0,0-1.738,3.936c-.374,2.311.9,4.7.322,6.97-.665,2.594-3.593,4.316-3.746,6.99-.13,2.26,1.829,4.255,1.67,6.514a6.106,6.106,0,0,1-1.021,2.675c-1.764,2.9-4.344,4.883-8.236,4.8l-4.768.14Z" transform="translate(-74.652 -352.926)"/></g><g transform="translate(0 14.925)"><path class="f" d="M53.45,376.063a3.8,3.8,0,0,1-1.312-.035,7.991,7.991,0,0,1-1.547-.4,6.56,6.56,0,0,1-1.907-1.059,2.667,2.667,0,0,1-.781-1.053,4.925,4.925,0,0,1-.216-1.426,13.842,13.842,0,0,0-.1-1.543,4.252,4.252,0,0,0-.574-1.536,11.675,11.675,0,0,1-1.778-3.273,10.8,10.8,0,0,1,.154-4.178,8.875,8.875,0,0,0-.086-4.479c-.5-1.494-1.541-2.846-2.054-4.53-.511-1.7-.258-3.525-.357-5.326a7.066,7.066,0,0,0-.606-2.651c-.381-.846-.911-1.645-1.324-2.536a18.517,18.517,0,0,1-1.194-5.833q-.16-1.509-.325-3.048a14.889,14.889,0,0,0-.512-3.052,26.975,26.975,0,0,0-1.123-2.957,9.8,9.8,0,0,1-.545-1.544,15.5,15.5,0,0,1-.144-1.64,19.3,19.3,0,0,1,.145-3.3c.136-1.1.341-2.189.465-3.29.007-.065.015-.131.022-.19l.026-.22.195.1a7.365,7.365,0,0,1,2.554,2.18,11.69,11.69,0,0,1,1.56,2.915,35.766,35.766,0,0,1,1.449,6.251,16.956,16.956,0,0,0,1.926,5.777c.518.852,1.146,1.631,1.694,2.462a6.734,6.734,0,0,1,1.167,2.724c.271,2.018-.85,3.783-.629,5.57a6.178,6.178,0,0,0,.855,2.479c.428.764.933,1.473,1.412,2.186a14.011,14.011,0,0,1,1.267,2.206,6.973,6.973,0,0,1,.572,2.393c.107,1.608-.13,3.132-.02,4.573a10.526,10.526,0,0,0,1.154,3.925c.57,1.176,1.206,2.24,1.737,3.272a16.659,16.659,0,0,1,.714,1.523,7.462,7.462,0,0,1,.41,1.509,9.531,9.531,0,0,1,.02,2.721,6.855,6.855,0,0,1-1.384,3.462,3.272,3.272,0,0,1-.388.416,1.893,1.893,0,0,1-.315.264c-.178.13-.274.19-.274.19a6,6,0,0,0,.928-.908,6.9,6.9,0,0,0,1.314-3.439,9.471,9.471,0,0,0-.046-2.682,7.378,7.378,0,0,0-.413-1.474c-.2-.493-.449-.993-.719-1.5-.536-1.022-1.178-2.083-1.76-3.266A10.7,10.7,0,0,1,51.56,358.8c-.117-1.471.113-3,0-4.571A6.729,6.729,0,0,0,51,351.914a13.764,13.764,0,0,0-1.253-2.163c-.479-.708-.989-1.419-1.43-2.2a6.449,6.449,0,0,1-.9-2.581c-.219-1.9.894-3.68.618-5.556a6.467,6.467,0,0,0-1.128-2.605c-.54-.816-1.17-1.6-1.7-2.469a17.213,17.213,0,0,1-1.971-5.873,35.647,35.647,0,0,0-1.439-6.2,11.391,11.391,0,0,0-1.52-2.838,7.053,7.053,0,0,0-2.446-2.09l.22-.12-.023.192c-.126,1.115-.332,2.207-.466,3.293a19.017,19.017,0,0,0-.145,3.249,15.488,15.488,0,0,0,.137,1.591,9.557,9.557,0,0,0,.527,1.489,27.21,27.21,0,0,1,1.132,2.99,15.16,15.16,0,0,1,.519,3.1q.163,1.54.321,3.05a18.293,18.293,0,0,0,1.159,5.746c.4.866.927,1.667,1.319,2.54a7.34,7.34,0,0,1,.624,2.749c.093,1.841-.156,3.637.332,5.27s1.517,2.984,2.034,4.525a9.071,9.071,0,0,1,.076,4.59,10.662,10.662,0,0,0-.178,4.1,11.635,11.635,0,0,0,1.737,3.232,4.407,4.407,0,0,1,.582,1.6,13.853,13.853,0,0,1,.091,1.561,4.846,4.846,0,0,0,.2,1.387,2.555,2.555,0,0,0,.734,1.008,6.547,6.547,0,0,0,1.861,1.063,8.2,8.2,0,0,0,1.525.423,6.123,6.123,0,0,0,.969.1C53.336,376.059,53.45,376.063,53.45,376.063Z" transform="translate(-37.097 -316.967)"/><g transform="translate(1.608 2.85)"><path class="f" d="M40.585,323.147a.565.565,0,0,1,.045.144l.1.43c.091.376.2.944.376,1.652s.611,1.509.975,2.5c.379.979.763,2.114,1.114,3.388s.671,2.687,1,4.2a17.669,17.669,0,0,0,1.5,4.664c.386.777.822,1.563,1.166,2.422a11.268,11.268,0,0,1,.671,2.739,55.319,55.319,0,0,0,.995,5.773l2.633,11.031,2.208,9,1.463,6.072.383,1.655c.037.175.067.317.092.432a.546.546,0,0,1,.021.149.563.563,0,0,1-.051-.142c-.033-.113-.072-.253-.122-.425l-.439-1.641-1.557-6.048-2.272-8.981L48.23,351.123a54.614,54.614,0,0,1-.993-5.8,10.981,10.981,0,0,0-.646-2.673c-.332-.837-.76-1.62-1.147-2.4a17.757,17.757,0,0,1-1.5-4.736c-.318-1.518-.618-2.927-.96-4.2s-.7-2.4-1.065-3.385c-.345-.983-.759-1.794-.93-2.525s-.249-1.289-.321-1.671L40.6,323.3A.568.568,0,0,1,40.585,323.147Z" transform="translate(-40.583 -323.147)"/></g></g><g transform="translate(12.269)"><path class="h" d="M66.944,358.635c-3.1-1.869-3.965-7.492-2.647-10.866s3.609-6.451,3.98-10.054c.285-2.77-.606-5.62.054-8.325.892-3.651,4.477-6.462,4.457-10.22-.011-2.109-1.2-4.1-1.092-6.205.132-2.583,2.127-4.621,3.368-6.89,1.9-3.473,2.047-7.591,2.712-11.494s2.178-8.077,5.65-9.977c.493,3.319,1.353,5.6,1.053,10.087-.108,1.613-2,4.691-2.275,8.225-.165,2.113-.282,4.228-.423,6.343a20.352,20.352,0,0,1-1.031,6.074c-.574,1.473-1.49,2.808-1.918,4.329-.806,2.862.214,5.972-.44,8.872-.554,2.457-2.269,4.565-2.631,7.057-.509,3.5,1.739,7.157.559,10.493-.586,1.656-1.958,2.98-2.355,4.691-.308,1.328.012,2.737-.268,4.07-.451,2.149-4.563,3.8-6.753,3.651" transform="translate(-63.701 -284.604)"/><g transform="translate(3.241 3.287)"><path class="f" d="M86.337,291.732a.879.879,0,0,1-.015.187c-.019.139-.043.319-.073.545-.074.478-.159,1.181-.326,2.09s-.656,1.941-1.039,3.18c-.4,1.235-.808,2.661-1.166,4.257s-.672,3.362-.995,5.264a22.1,22.1,0,0,1-1.63,5.949c-.443.993-.938,1.986-1.312,3.046a13.731,13.731,0,0,0-.676,3.361,67.87,67.87,0,0,1-.954,7.248c-.982,4.908-1.917,9.584-2.767,13.839L73,351.968c-.685,3.191-1.242,5.78-1.631,7.593-.2.879-.35,1.57-.459,2.061l-.127.534a.88.88,0,0,1-.053.18.806.806,0,0,1,.023-.186c.025-.138.057-.317.1-.541l.4-2.073,1.537-7.613c.661-3.218,1.446-7.041,2.317-11.284.843-4.254,1.77-8.928,2.742-13.835a68.692,68.692,0,0,0,.957-7.225,13.939,13.939,0,0,1,.7-3.428c.385-1.082.888-2.079,1.33-3.064a21.993,21.993,0,0,0,1.638-5.877c.333-1.9.654-3.669,1.033-5.268s.793-3.028,1.215-4.263c.4-1.243.894-2.261,1.086-3.151s.288-1.6.381-2.074l.1-.54A.819.819,0,0,1,86.337,291.732Z" transform="translate(-70.729 -291.732)"/></g></g></g><g transform="translate(196.306 136.865)"><g transform="translate(0 0)"><g transform="translate(0 8.375)"><rect class="h" width="3.214" height="10.384"/></g><g transform="translate(5.916 4.101)"><rect class="h" width="3.214" height="14.658"/></g><g transform="translate(12.213 2.105)"><rect class="h" width="3.214" height="16.654"/></g><g transform="translate(18.51)"><rect class="h" width="3.214" height="18.759"/></g></g></g><g transform="translate(67.382 132.418)"><g transform="translate(11.527 20.876)"><g transform="translate(5.407 5.319)"><path class="f" d="M163.269,316.856a2.208,2.208,0,0,1,.691.216,2.909,2.909,0,0,1,1.377,1.394,2.947,2.947,0,0,1,.281,1.346,3,3,0,0,1-.463,1.509,2.992,2.992,0,0,1-1.322,1.136,2.982,2.982,0,0,1-3.465-.777,2.994,2.994,0,0,1-.711-1.592,3,3,0,0,1,.226-1.562,2.95,2.95,0,0,1,.829-1.1,2.913,2.913,0,0,1,1.84-.672,2.225,2.225,0,0,1,.717.1c0,.021-.255-.051-.715-.034a2.912,2.912,0,0,0-1.765.7,2.853,2.853,0,0,0-.978,2.549,2.858,2.858,0,0,0,.681,1.5,2.831,2.831,0,0,0,3.276.735,2.856,2.856,0,0,0,1.258-1.069,2.856,2.856,0,0,0,.2-2.722,2.913,2.913,0,0,0-1.3-1.384C163.522,316.919,163.263,316.876,163.269,316.856Z" transform="translate(-159.632 -316.756)"/></g><path class="f" d="M159.3,307.514a.668.668,0,0,1-.006-.1c0-.077,0-.179-.007-.311,0-.286-.01-.7-.017-1.232l.021.026-2.661-.581.048-.023-.7,1.489-.012.027h-.03a6.666,6.666,0,0,0-1.735.308l-.032.01-.024-.024-1.17-1.158.074.008-2.3,1.463.027-.078.555,1.55.014.04-.029.03a6.652,6.652,0,0,0-1.01,1.438l-.02.039h-.044l-1.645.006.073-.058-.593,2.659-.042-.088,1.487.7.044.02,0,.048a6.639,6.639,0,0,0,.3,1.728l.015.047-.035.035-1.161,1.167.011-.1,1.459,2.3-.1-.034,1.551-.553.048-.017.037.034a6.59,6.59,0,0,0,1.432,1.009h0c.02.033-.045-.074.046.074h0v.824q0,.412,0,.821l-.065-.082,2.658.6-.093.045.707-1.486.022-.045.049,0a6.6,6.6,0,0,0,1.728-.3l.047-.015.035.035,1.166,1.163-.1-.011,2.3-1.455-.031.091-.55-1.552-.016-.043.031-.033a6.62,6.62,0,0,0,1.014-1.434l.02-.039h1.689l-.068.054c.212-.934.412-1.817.6-2.657l.035.072-1.485-.71-.033-.016V313.2a6.641,6.641,0,0,0-.3-1.735l-.01-.032.024-.024,1.165-1.163-.007.062L162.266,308l.044.015-1.554.542-.016.006-.012-.011a6.937,6.937,0,0,0-1.057-.814l-.283-.171a.768.768,0,0,1-.093-.057.7.7,0,0,1,.1.045c.065.033.163.084.291.159a6.469,6.469,0,0,1,1.08.8l-.028-.005,1.548-.562.028-.01.016.025,1.468,2.295.021.033-.028.028-1.158,1.17.013-.055a6.729,6.729,0,0,1,.313,1.764l-.035-.052,1.489.7.046.022-.011.05-.591,2.659-.012.054h-.056l-1.645.006.064-.039a6.764,6.764,0,0,1-1.032,1.469l.016-.076.554,1.55.021.058-.052.033-2.3,1.46-.053.034-.046-.045-1.168-1.16.082.02a6.769,6.769,0,0,1-1.771.309l.071-.047-.705,1.487-.028.06-.065-.015-2.658-.6-.065-.014v-.067l0-.82v-.824h0l.045.074h0a6.768,6.768,0,0,1-1.468-1.035l.085.018-1.551.552-.063.023-.036-.056-1.457-2.3-.035-.056.046-.046,1.163-1.166-.02.082a6.792,6.792,0,0,1-.307-1.77l.045.069-1.486-.707-.056-.027.014-.06c.208-.923.411-1.823.6-2.657l.013-.059h1.705l-.064.039a6.759,6.759,0,0,1,1.036-1.466l-.014.071-.549-1.552-.018-.05.044-.028,2.3-1.453.041-.025.034.034,1.164,1.165-.055-.013a6.734,6.734,0,0,1,1.764-.3l-.042.028.712-1.484.015-.031.033.007,2.654.612.021.005v.021c-.005.529-.009.938-.012,1.221,0,.134,0,.238-.006.315A.812.812,0,0,1,159.3,307.514Z" transform="translate(-147.908 -305.223)"/></g><g transform="translate(5.406 0)"><path class="m" d="M147.125,262.435a7.393,7.393,0,0,1,1.6,1.13l1.715-.611,1.611,2.544-1.284,1.29a7.38,7.38,0,0,1,.337,1.935l1.644.78-.659,2.938-1.819,0a7.36,7.36,0,0,1-1.131,1.6l.611,1.715-2.543,1.611-1.29-1.284a7.379,7.379,0,0,1-1.935.336l-.78,1.644-2.939-.659,0-1.819a7.356,7.356,0,0,1-1.6-1.131l-1.715.611-1.612-2.544,1.285-1.29a7.4,7.4,0,0,1-.337-1.934l-1.643-.78.659-2.939,1.819,0a7.368,7.368,0,0,1,1.131-1.6l-.611-1.715,2.544-1.612,1.29,1.284a7.375,7.375,0,0,1,1.934-.337l.78-1.644,2.939.659,0,1.82Zm-2.591,3.457a3.23,3.23,0,1,0,2.445,3.86A3.231,3.231,0,0,0,144.535,265.892Z" transform="translate(-134.636 -259.956)"/><g class="d"><path class="n" d="M147.125,262.435a7.393,7.393,0,0,1,1.6,1.13l1.715-.611,1.611,2.544-1.284,1.29a7.38,7.38,0,0,1,.337,1.935l1.644.78-.659,2.938-1.819,0a7.36,7.36,0,0,1-1.131,1.6l.611,1.715-2.543,1.611-1.29-1.284a7.379,7.379,0,0,1-1.935.336l-.78,1.644-2.939-.659,0-1.819a7.356,7.356,0,0,1-1.6-1.131l-1.715.611-1.612-2.544,1.285-1.29a7.4,7.4,0,0,1-.337-1.934l-1.643-.78.659-2.939,1.819,0a7.368,7.368,0,0,1,1.131-1.6l-.611-1.715,2.544-1.612,1.29,1.284a7.375,7.375,0,0,1,1.934-.337l.78-1.644,2.939.659,0,1.82Zm-2.591,3.457a3.23,3.23,0,1,0,2.445,3.86A3.231,3.231,0,0,0,144.535,265.892Z" transform="translate(-134.636 -259.956)"/></g></g><g transform="translate(0 18.346)"><path class="m" d="M130.183,301.18a4.31,4.31,0,0,1,.934.658l1-.355.938,1.481-.748.751a4.3,4.3,0,0,1,.2,1.126l.956.455-.384,1.711-1.059,0a4.285,4.285,0,0,1-.658.934l.356,1-1.481.938-.751-.748a4.3,4.3,0,0,1-1.126.2l-.454.956-1.711-.384,0-1.059a4.286,4.286,0,0,1-.934-.659l-1,.356-.938-1.481.748-.751a4.3,4.3,0,0,1-.2-1.126l-.956-.454.383-1.71,1.059,0a4.284,4.284,0,0,1,.658-.934l-.355-1,1.48-.938.751.748a4.3,4.3,0,0,1,1.126-.2l.455-.956,1.71.384,0,1.059Zm-1.508,2.013a1.881,1.881,0,1,0,1.423,2.246A1.881,1.881,0,0,0,128.675,303.193Z" transform="translate(-122.913 -299.737)"/><g class="o"><path class="n" d="M130.183,301.18a4.31,4.31,0,0,1,.934.658l1-.355.938,1.481-.748.751a4.3,4.3,0,0,1,.2,1.126l.956.455-.384,1.711-1.059,0a4.285,4.285,0,0,1-.658.934l.356,1-1.481.938-.751-.748a4.3,4.3,0,0,1-1.126.2l-.454.956-1.711-.384,0-1.059a4.286,4.286,0,0,1-.934-.659l-1,.356-.938-1.481.748-.751a4.3,4.3,0,0,1-.2-1.126l-.956-.454.383-1.71,1.059,0a4.284,4.284,0,0,1,.658-.934l-.355-1,1.48-.938.751.748a4.3,4.3,0,0,1,1.126-.2l.455-.956,1.71.384,0,1.059Zm-1.508,2.013a1.881,1.881,0,1,0,1.423,2.246A1.881,1.881,0,0,0,128.675,303.193Z" transform="translate(-122.913 -299.737)"/></g></g></g><g transform="translate(89.654 105.431)"><g transform="translate(51.042)"><path class="f" d="M356.915,241.125a4.5,4.5,0,0,0,3.258-4.494,25.93,25.93,0,0,1-.353-2.684c.06-1.4.991-2.588,1.691-3.8s1.17-2.821.354-3.962c-.529-.741-1.464-1.075-2.105-1.721a6.813,6.813,0,0,1-1.262-2.334,4.055,4.055,0,0,0-1.546-2.118,1.617,1.617,0,0,0-2.276.589" transform="translate(-321.106 -211.32)"/><path class="f" d="M309.317,208.493a3.436,3.436,0,0,0,.966-4.366,5.336,5.336,0,0,0-3.953-2.6,7.531,7.531,0,0,0-6.489,2.15c-.891.918-1.614,2.116-2.822,2.536-1.063.37-2.239.036-3.354.181a5.061,5.061,0,0,0-3.545,2.556,10.923,10.923,0,0,0-1.26,4.311c-.163,1.375-.27,2.883-1.224,3.886-.93.979-2.4,1.186-3.556,1.882a4.867,4.867,0,0,0-1.445,6.648c.458.668,1.115,1.28,1.168,2.088a6.03,6.03,0,0,1-.652,2.1,3.285,3.285,0,0,0,2.81,4.079c.959.055,1.987-.319,2.847.11s1.172,1.456,1.718,2.239a4.107,4.107,0,0,0,5.008,1.294c.706-.346,1.372-.917,2.156-.864s1.4.721,2.168.87a2.775,2.775,0,0,0,2.565-1.381,14.054,14.054,0,0,1,1.784-2.5c1-.893,2.416-1.114,3.687-1.552a10.4,10.4,0,0,0,5.873-14.568" transform="translate(-281.886 -201.437)"/><g transform="translate(11.985 5.856)"><path class="p" d="M326.354,217.149a2.209,2.209,0,0,1,1.971,2.244h0l-1.318,29.825c-.055,3.522-5.2,5.5-8.975,5.414h0c-3.808-.089-3.931-1.956-3.979-5.308-.079-5.6-.073-7.7-.075-7.668,0,0-4.811-.81-5.794-7.091a67.083,67.083,0,0,1-.047-12.427c.245-3.766,2.751-8.383,6.5-7.977Z" transform="translate(-307.873 -214.136)"/><g transform="translate(1.356 9.825)"><g transform="translate(0.289 1.516)"><path class="f" d="M311.44,239.454a.805.805,0,0,0,.775.814.77.77,0,0,0,.831-.725.806.806,0,0,0-.774-.814A.77.77,0,0,0,311.44,239.454Z" transform="translate(-311.44 -238.728)"/></g><path class="f" d="M310.825,236.283c.1.105.711-.345,1.577-.341s1.5.439,1.595.333c.047-.047-.055-.237-.332-.439a2.211,2.211,0,0,0-1.276-.4,2.121,2.121,0,0,0-1.256.4C310.867,236.046,310.776,236.236,310.825,236.283Z" transform="translate(-310.813 -235.44)"/></g><g transform="translate(9.873 10.006)"><g transform="translate(0.409 1.336)"><path class="f" d="M330.169,239.454a.805.805,0,0,0,.775.814.77.77,0,0,0,.831-.725.805.805,0,0,0-.774-.814A.77.77,0,0,0,330.169,239.454Z" transform="translate(-330.169 -238.728)"/></g><path class="f" d="M329.294,236.675c.1.105.712-.345,1.578-.341s1.5.439,1.595.333c.046-.047-.054-.237-.332-.439a2.209,2.209,0,0,0-1.276-.4,2.122,2.122,0,0,0-1.256.4C329.336,236.438,329.245,236.628,329.294,236.675Z" transform="translate(-329.281 -235.832)"/></g><g transform="translate(4.52 10.048)"><path class="f" d="M319.881,243.144a5.734,5.734,0,0,0-1.407-.257c-.221-.024-.43-.068-.468-.219a1.127,1.127,0,0,1,.149-.655l.658-1.684a28.943,28.943,0,0,0,1.479-4.4,28.98,28.98,0,0,0-1.83,4.275c-.22.591-.431,1.154-.631,1.693a1.284,1.284,0,0,0-.117.868.557.557,0,0,0,.363.324,1.517,1.517,0,0,0,.375.053A5.625,5.625,0,0,0,319.881,243.144Z" transform="translate(-317.674 -235.925)"/></g><g transform="translate(6.105 25.296)"><path class="q" d="M321.112,271.212a15.971,15.971,0,0,0,8.414-2.225s-2.131,4.427-8.414,3.825Z" transform="translate(-321.112 -268.987)"/></g><g transform="translate(7.001 18.77)"><path class="k" d="M323.142,255.424a1.562,1.562,0,0,1,1.4-.577,1.427,1.427,0,0,1,.983.53.9.9,0,0,1,.066,1.033,1.047,1.047,0,0,1-1.136.285,3.278,3.278,0,0,1-1.106-.663.959.959,0,0,1-.247-.257.289.289,0,0,1,0-.322" transform="translate(-323.055 -254.838)"/></g><g transform="translate(6.508 17.873)"><path class="f" d="M324.753,252.891c-.141-.008-.145.932-.951,1.6s-1.807.56-1.815.691c-.013.059.223.184.646.2a2.342,2.342,0,0,0,1.515-.524,2.041,2.041,0,0,0,.737-1.34C324.921,253.119,324.817,252.886,324.753,252.891Z" transform="translate(-321.986 -252.891)"/></g><g transform="translate(9.495 8.685)"><path class="f" d="M328.466,233.613c.085.236.95.126,1.966.251,1.019.1,1.838.4,1.973.193.06-.1-.082-.323-.413-.552a3.445,3.445,0,0,0-3-.338C328.617,233.317,328.429,233.5,328.466,233.613Z" transform="translate(-328.461 -232.967)"/></g><g transform="translate(1.67 7.267)"><path class="f" d="M311.517,230.787c.152.2.749-.006,1.467-.014.718-.033,1.325.135,1.466-.071.061-.1-.034-.3-.3-.484a2.124,2.124,0,0,0-2.363.068C311.534,230.488,311.45,230.691,311.517,230.787Z" transform="translate(-311.495 -229.893)"/></g></g><path class="f" d="M337.5,214.925a6.1,6.1,0,0,1,4.977-.932,4.227,4.227,0,0,1,3.12,3.7c.036,1.109-.442,2.288.05,3.289.469.952,1.623,1.339,2.441,2.029a3.747,3.747,0,0,1,.867,4.531c-.685,1.259-2.127,2.181-2.248,3.6-.114,1.337,1.013,2.465,1.287,3.78a4.216,4.216,0,0,1-1.651,3.912,12.954,12.954,0,0,1-4.025,2,6.282,6.282,0,0,1-3.446.543,3.528,3.528,0,0,1-2.583-2.945,4.8,4.8,0,0,1,1.307-3.79c.807-.888,1.937-1.643,2.131-2.815.3-1.826-1.874-3.326-1.74-5.171a5.326,5.326,0,0,1,1.3-2.521,2.97,2.97,0,0,0,.7-2.66c-.445-1.161-1.971-1.463-2.893-2.315a2.819,2.819,0,0,1-.77-2.856,2.907,2.907,0,0,1,2.276-1.941" transform="translate(-311.158 -208.097)"/><path class="f" d="M318,211.035a4.3,4.3,0,0,1-5.068,4.242c-.959-.175-2.01-.66-2.841-.149-.873.537-.909,1.854-1.684,2.526-1.107.961-2.867.059-4.272.476-1.085.322-1.763,1.359-2.484,2.232s-1.8,1.7-2.886,1.38a12.731,12.731,0,0,1,.431-2.9,4.279,4.279,0,0,1,1.644-2.359,15.967,15.967,0,0,0,1.388-.807c.9-.727,1.11-1.993,1.666-3.008a4.707,4.707,0,0,1,3.587-2.379c1.235-.126,2.508.244,3.712-.059.89-.224,1.667-.8,2.569-.973,1.756-.334,3.388.926,4.661,2.181" transform="translate(-290.981 -205.623)"/><g transform="translate(27.797 6.796)"><path class="r" d="M352.851,229.8a1.362,1.362,0,0,0,.139-.724,1.823,1.823,0,0,0-1.264-1.444,9.334,9.334,0,0,0-1.38-.372,4.04,4.04,0,0,1-1.563-.644,2.2,2.2,0,0,1-.814-1.68,17.714,17.714,0,0,1,.1-1.977,4.516,4.516,0,0,0-.049-.966,2.062,2.062,0,0,0-.37-.824,3.155,3.155,0,0,0-1.512-.867,6.806,6.806,0,0,1-1.539-.664,5.418,5.418,0,0,1-2.244-2.716,3.665,3.665,0,0,1-.161-.55.622.622,0,0,1-.028-.2c.022-.006.084.262.276.713a5.589,5.589,0,0,0,1.145,1.706,5.667,5.667,0,0,0,2.622,1.5,3.335,3.335,0,0,1,1.624.929,2.286,2.286,0,0,1,.422.926,4.7,4.7,0,0,1,.055,1.024,18.665,18.665,0,0,0-.1,1.95,1.982,1.982,0,0,0,.715,1.521,3.907,3.907,0,0,0,1.473.625,9.005,9.005,0,0,1,1.4.409,2.206,2.206,0,0,1,.973.73,1.671,1.671,0,0,1,.319.863,1.1,1.1,0,0,1-.113.569A.441.441,0,0,1,352.851,229.8Z" transform="translate(-342.16 -216.173)"/></g><g transform="translate(1.057 1.307)"><path class="r" d="M284.624,227.3a.4.4,0,0,1-.1-.048.7.7,0,0,1-.236-.238,1.268,1.268,0,0,1,.128-1.24,1.651,1.651,0,0,1,.672-.643,8.657,8.657,0,0,1,1.009-.426,3.114,3.114,0,0,0,1.056-.6,2.259,2.259,0,0,0,.6-1.191c.106-.472.137-.986.222-1.522a3.343,3.343,0,0,1,.623-1.583c.731-.964,1.93-1.476,2.824-2.379a4.35,4.35,0,0,0,.981-1.663,11.444,11.444,0,0,0,.444-2.011,8.865,8.865,0,0,1,1.319-4.187,3.059,3.059,0,0,1,1.895-1.224,6.646,6.646,0,0,1,2.186.055,7.941,7.941,0,0,0,2.043.119,2.659,2.659,0,0,0,1.669-.862c.857-.924,1.349-2.169,2.4-2.806a4.012,4.012,0,0,1,3.172-.437,3.517,3.517,0,0,1,2.088,1.623,3.953,3.953,0,0,1,.542,1.936,3.4,3.4,0,0,1-.2,1.256,2.1,2.1,0,0,1-.185.4c-.012-.006.055-.143.139-.418a3.569,3.569,0,0,0,.153-1.238,3.9,3.9,0,0,0-.564-1.87,3.383,3.383,0,0,0-2.019-1.528,3.847,3.847,0,0,0-3.02.441,4.416,4.416,0,0,0-1.211,1.251,13.989,13.989,0,0,1-1.137,1.539,3.127,3.127,0,0,1-.8.628,2.973,2.973,0,0,1-1,.309,8.106,8.106,0,0,1-2.1-.114,6.476,6.476,0,0,0-2.108-.053,2.819,2.819,0,0,0-1.749,1.134,5.808,5.808,0,0,0-.9,1.968,19.365,19.365,0,0,0-.38,2.11,11.581,11.581,0,0,1-.46,2.05,4.563,4.563,0,0,1-1.039,1.743c-.947.938-2.133,1.439-2.823,2.345a3.148,3.148,0,0,0-.6,1.492c-.089.523-.125,1.041-.24,1.53a2.412,2.412,0,0,1-.664,1.264,3.229,3.229,0,0,1-1.114.613,8.786,8.786,0,0,0-1,.4,1.564,1.564,0,0,0-.646.591,1.229,1.229,0,0,0-.166,1.169A1.022,1.022,0,0,0,284.624,227.3Z" transform="translate(-284.177 -204.271)"/></g></g><g transform="translate(34.46 34.407)"><path class="h" d="M248.607,320.55l11.138-1.021s6.854-18.053,15.3-22.431l5.473,9.561-11.716,22.014H245.929Z" transform="translate(-245.929 -287.389)"/><path class="s" d="M248.607,320.55l11.138-1.021s6.854-18.053,15.3-22.431l5.473,9.561-11.716,22.014H245.929Z" transform="translate(-245.929 -287.389)"/><g transform="translate(7.073 34.773)"><path class="l" d="M261.272,354.933a17.173,17.173,0,0,1,2.084-3.485,17.237,17.237,0,0,1-2.084,3.485Z" transform="translate(-261.267 -351.448)"/></g><g transform="translate(12.432 34.886)"><path class="l" d="M275.424,354.846a17.077,17.077,0,0,1-2.535-3.153,17.121,17.121,0,0,1,2.535,3.153Z" transform="translate(-272.885 -351.691)"/></g><g transform="translate(16.22 30.98)"><path class="l" d="M281.22,346.143a8.952,8.952,0,0,1,0-2.921,8.952,8.952,0,0,1,0,2.921Z" transform="translate(-281.1 -343.222)"/></g><g transform="translate(10.419 39.043)"><path class="l" d="M270.523,362.019a3.067,3.067,0,0,1-1.065-.553c-.552-.361-.97-.7-.933-.754a3.066,3.066,0,0,1,1.065.553C270.141,361.626,270.559,361.964,270.523,362.019Z" transform="translate(-268.522 -360.705)"/></g><g transform="translate(17.05 23.761)"><path class="l" d="M284.665,327.569a19.3,19.3,0,0,1-1.758,3.925,19.336,19.336,0,0,1,1.758-3.925Z" transform="translate(-282.9 -327.569)"/></g><g transform="translate(21.403 16.44)"><path class="l" d="M294.265,311.7c.04.053-.358.422-.889.825a3.132,3.132,0,0,1-1.034.633c-.04-.053.358-.422.889-.825A3.152,3.152,0,0,1,294.265,311.7Z" transform="translate(-292.339 -311.693)"/></g><path class="h" d="M332.641,328.356l5.744-23.2a7.892,7.892,0,0,1,9.061-5.87h0a7.891,7.891,0,0,1,6.4,8.976l-3.517,22.675a11.344,11.344,0,0,1-9.413,9.179l-4.567.713Z" transform="translate(-292.652 -288.5)"/><g transform="translate(46.669 7.923)"><path class="f" d="M358.549,294.589a5.184,5.184,0,0,0-2.049-1.03,5.463,5.463,0,0,0-2.472.017,6.707,6.707,0,0,0-2.688,1.4,13.047,13.047,0,0,0-3.222,4.529c-.308.653-.542,1.189-.709,1.557a3.2,3.2,0,0,1-.28.564,3.119,3.119,0,0,1,.194-.6c.141-.38.351-.927.641-1.592a17.231,17.231,0,0,1,1.181-2.264,10.071,10.071,0,0,1,2.042-2.38,6.76,6.76,0,0,1,2.791-1.432,5.466,5.466,0,0,1,2.563.034,4.363,4.363,0,0,1,1.556.752,2.932,2.932,0,0,1,.349.315C358.519,294.54,358.555,294.583,358.549,294.589Z" transform="translate(-347.126 -293.225)"/></g><g transform="translate(17.994 14.507)"><path class="f" d="M292.5,307.5a1.112,1.112,0,0,1-.161.215l-.492.588c-.425.511-1.032,1.259-1.723,2.226a23.721,23.721,0,0,0-3.922,8.326,52.812,52.812,0,0,0-.977,9.223c-.057,1.19-.113,2.153-.164,2.817-.028.311-.05.564-.068.765a1.14,1.14,0,0,1-.04.266,1.107,1.107,0,0,1-.008-.268c.006-.2.013-.456.023-.767.022-.7.052-1.653.088-2.819a48.244,48.244,0,0,1,.913-9.27,22.925,22.925,0,0,1,4.019-8.372c.713-.958,1.342-1.693,1.79-2.187.222-.249.4-.433.526-.56A1.134,1.134,0,0,1,292.5,307.5Z" transform="translate(-284.946 -307.502)"/></g><path class="h" d="M328.868,290.5c-.63-4.148-2.922-5.144-5.294-6.436a63.529,63.529,0,0,0-7.482-2.105c-.283-1.8-.791-5.013-.9-5.692-.156-.954-15.106,1.431-15.3,1.789-.126.237-.47,3.962-.688,6.445l-3.579,1.251-4.672,5.939-2.431,3.453a18.607,18.607,0,0,0-3.011,6.628,36.181,36.181,0,0,0-.67,8.034l-.722,15.231,31.279,8.845,2.422-15.428,8.07-10.985C326.581,303.028,329.643,295.6,328.868,290.5Z" transform="translate(-266.508 -276.045)"/><g transform="translate(34.883 1.749)"><path class="f" d="M322.351,287.025a4.838,4.838,0,0,1-.208-1.057c-.1-.657-.217-1.565-.333-2.571q-.081-.746-.155-1.419a9.973,9.973,0,0,1-.083-1.173,1.407,1.407,0,0,1,.223-.779c.121-.157.224-.2.231-.189s-.067.084-.151.239a1.5,1.5,0,0,0-.132.731c.008.32.08.71.133,1.146l.174,1.416c.116,1.005.208,1.917.263,2.578A4.811,4.811,0,0,1,322.351,287.025Z" transform="translate(-321.57 -279.837)"/></g><g transform="translate(38.832 1.117)"><path class="f" d="M330.952,285.345a3.616,3.616,0,0,1-.333-.967,15.481,15.481,0,0,1-.452-4.9,3.639,3.639,0,0,1,.15-1.012c.074.006-.061,1.557.119,3.457S331.024,285.326,330.952,285.345Z" transform="translate(-330.131 -278.468)"/></g><g transform="translate(45.908 0.207)"><path class="f" d="M346.643,283.2a11.762,11.762,0,0,0-1.163-6.708,3.108,3.108,0,0,1,.548.868,8.735,8.735,0,0,1,.839,4.838A3.107,3.107,0,0,1,346.643,283.2Z" transform="translate(-345.475 -276.494)"/></g><g transform="translate(25.831 16.823)"><path class="l" d="M301.944,316.182a14.359,14.359,0,0,1,2.743-3.657,45.738,45.738,0,0,1-2.743,3.657Z" transform="translate(-301.941 -312.523)"/></g><g transform="translate(30.58 11.744)"><path class="l" d="M314.538,304.517a14.924,14.924,0,0,1-2.3-3,14.964,14.964,0,0,1,2.3,3Z" transform="translate(-312.237 -301.511)"/></g><g transform="translate(37.243 11.146)"><path class="l" d="M329.687,300.218a55.738,55.738,0,0,1-3,2.921,10.992,10.992,0,0,1,3-2.921Z" transform="translate(-326.687 -300.215)"/></g><g transform="translate(36.034 4.82)"><path class="l" d="M326.207,288.437a8.732,8.732,0,0,1-2.138-1.937,8.732,8.732,0,0,1,2.138,1.937Z" transform="translate(-324.065 -286.496)"/></g><g transform="translate(41.472 3.299)"><path class="l" d="M339.012,283.22a10.9,10.9,0,0,1-3.155.676,10.859,10.859,0,0,1,3.155-.676Z" transform="translate(-335.857 -283.2)"/></g><g transform="translate(45.691 10.305)"><path class="l" d="M345.232,301.619a10.933,10.933,0,0,1-.163-3.228,10.936,10.936,0,0,1,.163,3.228Z" transform="translate(-345.005 -298.391)"/></g><g transform="translate(42.166 14.632)"><path class="l" d="M338.761,311.586a17.2,17.2,0,0,1-1.39-3.813,17.217,17.217,0,0,1,1.39,3.813Z" transform="translate(-337.362 -307.773)"/></g><g transform="translate(35.616 17.916)"><path class="l" d="M324.718,318.886a19.155,19.155,0,0,1-1.551-3.991,19.092,19.092,0,0,1,1.551,3.991Z" transform="translate(-323.159 -314.894)"/></g><g transform="translate(30.342 21.92)"><path class="l" d="M312.54,327.489a16.638,16.638,0,0,1-.8-3.913,16.7,16.7,0,0,1,.8,3.913Z" transform="translate(-311.722 -323.576)"/></g><g transform="translate(22.291 22.466)"><path class="l" d="M295.987,328.283a16.06,16.06,0,0,1-1.716-3.523,16.052,16.052,0,0,1,1.716,3.523Z" transform="translate(-294.264 -324.759)"/></g><g transform="translate(20.007 30.565)"><path class="l" d="M293.165,342.328a19.236,19.236,0,0,1-3.852,1.9,19.3,19.3,0,0,1,3.852-1.9Z" transform="translate(-289.312 -342.322)"/></g><g transform="translate(23.006 34.362)"><path class="l" d="M296.758,354.014a8.243,8.243,0,0,1-.922-3.459,36.557,36.557,0,0,1,.922,3.459Z" transform="translate(-295.814 -350.555)"/></g><g transform="translate(19.619 40.302)"><path class="l" d="M291.323,366.047a15.558,15.558,0,0,1-2.85-2.607,15.607,15.607,0,0,1,2.85,2.607Z" transform="translate(-288.471 -363.436)"/></g><g transform="translate(27.39 39.428)"><path class="l" d="M309.818,361.551c.018.069-1.041.371-2.277.916s-2.18,1.113-2.218,1.053a9.729,9.729,0,0,1,4.5-1.969Z" transform="translate(-305.322 -361.541)"/></g><g transform="translate(27.994 33.676)"><path class="l" d="M307.769,352.3a12.294,12.294,0,0,1-1.128-3.237,12.266,12.266,0,0,1,1.128,3.237Z" transform="translate(-306.631 -349.067)"/></g><g transform="translate(31.987 30.677)"><path class="l" d="M318.022,342.567a27.335,27.335,0,0,1-2.728,4.329,27.326,27.326,0,0,1,2.728-4.329Z" transform="translate(-315.29 -342.566)"/></g><g transform="translate(38.056 26.844)"><path class="l" d="M331.113,338.686a14.211,14.211,0,0,1-2.659-4.432c.063-.03.6,1,1.332,2.215S331.169,338.644,331.113,338.686Z" transform="translate(-328.449 -334.253)"/></g><g transform="translate(40.781 25.33)"><path class="l" d="M337.892,331a7.085,7.085,0,0,1-3.534.175,99.631,99.631,0,0,1,3.534-.175Z" transform="translate(-334.359 -330.971)"/></g><g transform="translate(48.226 18.601)"><path class="l" d="M355.125,316.386a27.4,27.4,0,0,1-4.624,2.2,27.36,27.36,0,0,1,4.624-2.2Z" transform="translate(-350.501 -316.38)"/></g><g transform="translate(53.412 10.62)"><path class="l" d="M361.753,302.769a17.763,17.763,0,0,1,1.832-3.7,17.823,17.823,0,0,1-1.832,3.7Z" transform="translate(-361.746 -299.073)"/></g><g transform="translate(57.514 13.461)"><path class="l" d="M371.97,309.456a58.08,58.08,0,0,1-1.321-4.222,12.446,12.446,0,0,1,1.321,4.222Z" transform="translate(-370.642 -305.234)"/></g><g transform="translate(55.538 22.138)"><path class="l" d="M370.512,324.059a10.835,10.835,0,0,1-4.154,1.064,88.081,88.081,0,0,1,4.154-1.064Z" transform="translate(-366.358 -324.05)"/></g><g transform="translate(50.384 22.526)"><path class="l" d="M355.2,329.964c-.07-.014.128-1.136.184-2.534s-.039-2.532.032-2.54a10.353,10.353,0,0,1-.216,5.074Z" transform="translate(-355.181 -324.89)"/></g><g transform="translate(45.543 29.595)"><path class="l" d="M347.686,343.833a11.374,11.374,0,0,1-3-3.612c.059-.038.669.817,1.5,1.809S347.735,343.783,347.686,343.833Z" transform="translate(-344.685 -340.219)"/></g><g transform="translate(53.926 32.021)"><path class="l" d="M366.8,345.486a19.071,19.071,0,0,1-3.939,1.645,19.008,19.008,0,0,1,3.939-1.645Z" transform="translate(-362.862 -345.479)"/></g><g transform="translate(54.429 37.513)"><path class="l" d="M364.049,362.461a26.78,26.78,0,0,1,.051-5.073,26.889,26.889,0,0,1-.051,5.073Z" transform="translate(-363.951 -357.388)"/></g><g transform="translate(47.354 36.881)"><path class="l" d="M348.628,361.116a14.69,14.69,0,0,1,1.279-5.1c.065.023-.286,1.146-.636,2.55S348.7,361.126,348.628,361.116Z" transform="translate(-348.612 -356.017)"/></g><g transform="translate(42.607 44.715)"><path class="l" d="M343.411,373.04c0,.069-1.146.179-2.548.413s-2.526.495-2.545.428a13.556,13.556,0,0,1,5.093-.841Z" transform="translate(-338.319 -373.005)"/></g><g transform="translate(39.784 39.961)"><path class="l" d="M332.2,365.709a18.3,18.3,0,0,1,2.908-3.01,18.252,18.252,0,0,1-2.908,3.01Z" transform="translate(-332.195 -362.697)"/></g><g transform="translate(33.386 44.358)"><path class="l" d="M319.6,375.834a159.313,159.313,0,0,0-1.268-3.6,7.371,7.371,0,0,1,1.268,3.6Z" transform="translate(-318.323 -372.231)"/></g><g transform="translate(38.404 48.794)"><path class="l" d="M333.734,383.866a25.609,25.609,0,0,1-4.53-2.011,25.609,25.609,0,0,1,4.53,2.011Z" transform="translate(-329.204 -381.849)"/></g><g transform="translate(28.501 46.675)"><path class="l" d="M307.742,380.554a12.652,12.652,0,0,1,1.1-3.3,12.633,12.633,0,0,1-1.1,3.3Z" transform="translate(-307.73 -377.255)"/></g><g transform="translate(32.096 51.092)"><path class="l" d="M321.444,387.323c-.013.07-1.325-.143-2.956-.226s-2.957-.018-2.963-.089a14.375,14.375,0,0,1,5.918.315Z" transform="translate(-315.526 -386.832)"/></g><g transform="translate(39.976 19.269)"><path class="f" d="M332.626,336.543a.542.542,0,0,1-.012-.182,1.71,1.71,0,0,1,.074-.523,1.158,1.158,0,0,1,.5-.686,1.611,1.611,0,0,1,1.126-.186l-.094.055c.5-1.769,1.311-4.353,2.118-7.248.756-2.711,1.265-5.208,1.623-7.018l.422-2.144a5.189,5.189,0,0,1,.182-.782,5.075,5.075,0,0,1-.09.8c-.072.511-.19,1.249-.347,2.16a72.2,72.2,0,0,1-1.559,7.05c-.809,2.9-1.644,5.477-2.2,7.231l-.022.068-.073-.013a1.5,1.5,0,0,0-1.025.137,1.079,1.079,0,0,0-.484.606A6.383,6.383,0,0,0,332.626,336.543Z" transform="translate(-332.613 -317.829)"/></g><g transform="translate(41.53 36.397)"><path class="f" d="M344.782,362.968c-.039.018-.323-.606-.909-1.537a15.854,15.854,0,0,0-6.274-5.7c-.982-.5-1.631-.718-1.616-.759a1.869,1.869,0,0,1,.467.123,10.383,10.383,0,0,1,1.223.483,14.372,14.372,0,0,1,6.345,5.766,10.484,10.484,0,0,1,.6,1.172A1.865,1.865,0,0,1,344.782,362.968Z" transform="translate(-335.982 -354.967)"/></g><g class="t" transform="translate(41.66 36.06)"><path d="M336.394,354.238a16.21,16.21,0,0,1,4.863.88,6.254,6.254,0,0,1,3.795,3.468,1.143,1.143,0,0,1-.086,1.2.854.854,0,0,1-.874.141,2.312,2.312,0,0,1-.764-.525c-1.017-.94-2.07-1.771-3.12-2.674a8.8,8.8,0,0,0-3.943-2.063" transform="translate(-336.265 -354.238)"/></g><g transform="translate(26.014 29.885)"><path class="f" d="M314.789,344.081a2.136,2.136,0,0,1-.481.278,8.377,8.377,0,0,1-1.419.535,9.474,9.474,0,0,1-9.286-2.411,8.4,8.4,0,0,1-.979-1.158,2.132,2.132,0,0,1-.285-.477c.039-.029.458.648,1.382,1.512a9.772,9.772,0,0,0,9.125,2.37C314.073,344.424,314.769,344.037,314.789,344.081Z" transform="translate(-302.338 -340.847)"/></g><g class="t" transform="translate(26.266 30.242)"><path d="M302.883,341.621a11.584,11.584,0,0,0,3.161,4.522,5.07,5.07,0,0,0,2.913,1.221c1.539.025,2.862-1.025,4.036-2.02a11.379,11.379,0,0,1-10.11-3.723" transform="translate(-302.883 -341.621)"/></g><g transform="translate(42.637 0.64)"><path class="f" d="M339.061,284.435c-.073,0,.015-1.584-.175-3.516s-.567-3.468-.5-3.486a3.792,3.792,0,0,1,.32.989,17.771,17.771,0,0,1,.477,4.98A3.8,3.8,0,0,1,339.061,284.435Z" transform="translate(-338.382 -277.434)"/></g></g><g transform="translate(0 103.765)"><path class="h" d="M194.279,426.44a30.694,30.694,0,0,1-9.487.412c-4.2-.629-13.589.022-13.586,5.551,0,6.167,12.53,4.643,17.418,3.665s9.754-1.863,9.754-1.863Z" transform="translate(-171.206 -426.44)"/><g transform="translate(10.833 3.555)"><path class="f" d="M195.686,438.494a20.712,20.712,0,0,1-.977-4.345,20.712,20.712,0,0,1,.977,4.345Z" transform="translate(-194.696 -434.149)"/></g><g transform="translate(12.902 3.548)"><path class="f" d="M199.814,438.567a20.939,20.939,0,0,1-.608-4.434,20.946,20.946,0,0,1,.608,4.434Z" transform="translate(-199.183 -434.133)"/></g><g transform="translate(14.688 3.462)"><path class="f" d="M203.551,437.822a15.883,15.883,0,0,1-.468-3.874,15.888,15.888,0,0,1,.468,3.874Z" transform="translate(-203.055 -433.948)"/></g><g transform="translate(16.916 3.276)"><path class="f" d="M208.747,436.958a6.627,6.627,0,0,1-.829-3.414,502.241,502.241,0,0,1,.829,3.414Z" transform="translate(-207.885 -433.544)"/></g><g transform="translate(18.325 0.568)"><path class="f" d="M210.949,431.539a2.154,2.154,0,0,1,.655-.044,5.555,5.555,0,0,1,1.76.344,1.959,1.959,0,0,1,.542.292.823.823,0,0,1,.339.611.927.927,0,0,1-1.135.825,2.334,2.334,0,0,1-1.308-.932,3.98,3.98,0,0,1-.74-1.542,3.915,3.915,0,0,1,.552-3.193.636.636,0,0,1,.372-.224.506.506,0,0,1,.417.13,1.121,1.121,0,0,1,.314.673,3.422,3.422,0,0,1-.066,1.254,3.484,3.484,0,0,1-.846,1.581,2.732,2.732,0,0,1-.366.325c-.092.064-.142.094-.147.088s.175-.157.442-.474a3.6,3.6,0,0,0,.75-1.557,3.312,3.312,0,0,0,.035-1.187.935.935,0,0,0-.256-.543.321.321,0,0,0-.484.081,3.911,3.911,0,0,0,.208,4.444,2.143,2.143,0,0,0,1.162.859.725.725,0,0,0,.9-.6.635.635,0,0,0-.258-.473A1.817,1.817,0,0,0,213.3,432a6.1,6.1,0,0,0-1.7-.409C211.183,431.551,210.95,431.559,210.949,431.539Z" transform="translate(-210.942 -427.671)"/></g><g transform="translate(0.788 0.109)"><path class="f" d="M198.8,433.518a.542.542,0,0,1-.126.04l-.376.094-1.453.331c-1.265.278-3.1.668-5.376,1.108s-5,.937-8.052,1.352a21.743,21.743,0,0,1-4.838.241,10.392,10.392,0,0,1-2.534-.484,6.956,6.956,0,0,1-1.216-.54,3.754,3.754,0,0,1-1.068-.86l.018.02a2.544,2.544,0,0,1-.436-.523,3.262,3.262,0,0,1-.255-2.7,4.314,4.314,0,0,1,1.607-2.1,8.167,8.167,0,0,1,2.284-1.132c.4-.113.789-.25,1.185-.34s.787-.185,1.179-.239a49.17,49.17,0,0,1,8.373-.243c1.19.022,2.265-.01,3.207-.068a21.473,21.473,0,0,0,2.4-.3l.864-.182.623-.178.385-.106a.612.612,0,0,1,.134-.029.554.554,0,0,1-.126.052l-.378.129-.619.2-.864.2a20.052,20.052,0,0,1-2.408.346c-.946.071-2.026.115-3.219.1a50.5,50.5,0,0,0-8.335.291c-.388.055-.77.161-1.163.24s-.772.226-1.165.339a7.95,7.95,0,0,0-2.218,1.1,4.085,4.085,0,0,0-1.52,1.984,3.03,3.03,0,0,0,.231,2.5,2.316,2.316,0,0,0,.393.472l.008.008.011.013a3.6,3.6,0,0,0,.991.79,6.749,6.749,0,0,0,1.172.522,10.216,10.216,0,0,0,2.477.477,21.717,21.717,0,0,0,4.79-.226c3.046-.4,5.768-.885,8.049-1.3s4.119-.784,5.388-1.034l1.462-.287.381-.071A.581.581,0,0,1,198.8,433.518Z" transform="translate(-172.915 -426.677)"/></g><g transform="translate(7.178 1.241)"><path class="f" d="M187.94,437.81a8.288,8.288,0,0,1-.121-1.281c-.057-.791-.151-1.881-.311-3.078s-.357-2.274-.51-3.052a8.227,8.227,0,0,1-.22-1.268,5.843,5.843,0,0,1,.386,1.23,28.243,28.243,0,0,1,.825,6.159A5.83,5.83,0,0,1,187.94,437.81Z" transform="translate(-186.772 -429.132)"/></g><path class="u" d="M217.892,426.707l3.176,7.955,2.465-.456-4.721-7.766Z" transform="translate(-196.362 -426.44)"/></g><path class="f" d="M234.285,364.277c-.511.17-33.334-9.028-46.608-12.76a12.609,12.609,0,0,0-10.265,1.554l-.16.1a12.611,12.611,0,0,0-5.43,13.444h0a12.6,12.6,0,0,0,5.692,7.893c8.753,5.362,27.278,16.645,27.845,16.425.742-.288,23.877-.888,23.877-.888L201.4,370.032l13.241,8.557,19.64-14.312Z" transform="translate(-171.361 -282.051)"/><path class="p" d="M246.732,353.86l6.978-3.61,6.842,4.289,25.618.837,3.708,12.471-37.078-8.6s-6.749.6-7.254-.92S246.732,353.86,246.732,353.86Z" transform="translate(-211.211 -281.622)"/><path class="f" d="M289.709,390.512l-3.449,11.325.429,3.451h0a17.72,17.72,0,0,0,23.372,1.575h0a17.365,17.365,0,0,0,6.79-13.85L316.8,381.18Z" transform="translate(-233.2 -298.288)"/><g transform="translate(18.231 79.067)"><path class="r" d="M228.478,386.116c-.04.053-4.043-2.865-8.941-6.518s-8.838-6.659-8.8-6.712,4.043,2.865,8.942,6.519S228.517,386.063,228.478,386.116Z" transform="translate(-210.738 -372.885)"/></g><g transform="translate(35.129 70.883)"><path class="q" d="M254.278,355.146a54.612,54.612,0,0,1-6.9,2.21,54.823,54.823,0,0,1,6.9-2.21Z" transform="translate(-247.379 -355.14)"/></g><g transform="translate(34.535 72.999)"><path class="q" d="M254.105,359.745a7.3,7.3,0,0,1-1.188.223c-.735.12-1.746.3-2.852.554s-2.095.534-2.808.748a7.23,7.23,0,0,1-1.166.318,5.217,5.217,0,0,1,1.113-.479,25.071,25.071,0,0,1,5.69-1.308A5.214,5.214,0,0,1,254.105,359.745Z" transform="translate(-246.091 -359.728)"/></g><g transform="translate(34.23 74.958)"><path class="q" d="M253.165,363.984a64.729,64.729,0,0,1-7.735,1.533,64.779,64.779,0,0,1,7.735-1.533Z" transform="translate(-245.43 -363.975)"/></g><g transform="translate(0.394 55.072)"><path class="r" d="M204.58,321.29l6.436,21.177a.614.614,0,0,0,.541.433l17.539,1.316a.613.613,0,0,1,.567.612v1.095a.613.613,0,0,1-.625.613l-47.944-.9a.615.615,0,0,1-.562-.395L172.1,323.152a.613.613,0,0,1,.544-.831l31.319-1.465A.613.613,0,0,1,204.58,321.29Z" transform="translate(-172.06 -320.854)"/><path class="b" d="M212.16,341.465a1.513,1.513,0,0,0-.949,1.077,1.451,1.451,0,0,0,.62,1.319,1.577,1.577,0,0,0,1.752.065,1.461,1.461,0,0,0,.478-1.77,1.585,1.585,0,0,0-1.9-.692" transform="translate(-193.151 -331.905)"/></g><g transform="translate(22.104 70.591)"><path class="f" d="M224.2,395.445l-5.067-8.337L256.4,357.9a14.972,14.972,0,0,1,8.139-3.336h0a14.974,14.974,0,0,1,16.28,16.159l-.6,7.125L255.488,385.8Z" transform="translate(-219.136 -354.505)"/><g transform="translate(5.067 21.146)"><path class="r" d="M277.911,400.359a.561.561,0,0,1-.1.092l-.3.251-1.187.947-.862.68c-.315.25-.685.481-1.068.751l-1.238.849c-.22.149-.443.308-.678.46l-.74.445c-1.013.6-2.105,1.3-3.344,1.923-.614.321-1.241.672-1.9,1l-2.059.976c-2.837,1.293-6.014,2.594-9.42,3.752-6.806,2.346-13.1,4.034-17.606,5.4-1.13.333-2.149.643-3.041.926s-1.664.514-2.287.726l-1.443.469-.377.116a.551.551,0,0,1-.131.032.56.56,0,0,1,.123-.055l.369-.139,1.429-.512c.619-.226,1.385-.477,2.276-.765s1.9-.617,3.032-.96c4.5-1.409,10.782-3.123,17.577-5.465,3.4-1.156,6.572-2.447,9.407-3.726l2.058-.964c.662-.323,1.289-.669,1.9-.986,1.24-.617,2.334-1.3,3.35-1.892l.742-.437c.236-.149.46-.305.681-.451l1.245-.831c.386-.264.759-.49,1.077-.733l.873-.662,1.213-.91.319-.232A.569.569,0,0,1,277.911,400.359Z" transform="translate(-230.124 -400.358)"/></g><g transform="translate(43.317 25.041)"><path class="r" d="M323.5,408.807a1.442,1.442,0,0,1-.376.2c-.248.113-.612.262-1.069.432a27.244,27.244,0,0,1-7.421,1.595c-.486.033-.879.047-1.152.045a1.454,1.454,0,0,1-.423-.025,14.148,14.148,0,0,1,1.56-.19c.962-.107,2.288-.294,3.732-.6s2.727-.685,3.649-.983A14.215,14.215,0,0,1,323.5,408.807Z" transform="translate(-313.064 -408.803)"/></g><g transform="translate(0 4.8)"><path class="r" d="M254.908,364.913c.041.052-7.935,6.319-17.811,14s-17.92,13.86-17.961,13.808,7.933-6.318,17.813-14S254.867,364.86,254.908,364.913Z" transform="translate(-219.136 -364.912)"/></g><g transform="translate(9.425 31.666)"><g transform="translate(0.004)"><path class="h" d="M263.771,427.294c-1.788-.953-3.794-.39-5.5.187-1.139.384-2.322.992-3.478.666a5.588,5.588,0,0,1-2.1-1.5,13.177,13.177,0,0,0-9.632-3.451,3.923,3.923,0,0,0-2.645,1.2c-1.756,1.9-.432,4.376,1.137,5.975a17.335,17.335,0,0,0,10.475,5.053,24.316,24.316,0,0,0,11.081-1.53,3.8,3.8,0,0,0,2.02-5.234A3.359,3.359,0,0,0,263.771,427.294Z" transform="translate(-239.581 -423.17)"/><g class="o" transform="translate(0.093 1.521)"><path d="M263.876,430.594c-1.788-.953-3.794-.39-5.5.187-1.138.384-2.321.992-3.477.666a5.584,5.584,0,0,1-2.1-1.5,13.179,13.179,0,0,0-9.632-3.451,3.924,3.924,0,0,0-2.645,1.2,3.051,3.051,0,0,0-.737,1.333,6.953,6.953,0,0,0,1.874,3.12,17.336,17.336,0,0,0,10.475,5.053,24.314,24.314,0,0,0,11.08-1.53,4.043,4.043,0,0,0,2.358-2.811,3.413,3.413,0,0,0-.338-.9A3.358,3.358,0,0,0,263.876,430.594Z" transform="translate(-239.783 -426.469)"/></g></g><g transform="translate(0 1.431)"><path class="f" d="M265.457,432.75a3.1,3.1,0,0,0-.438-1.059,3.466,3.466,0,0,0-.956-.935,3.821,3.821,0,0,0-1.643-.629c-1.327-.156-2.865.4-4.573.865a7.151,7.151,0,0,1-2.776.439,3.68,3.68,0,0,1-1.428-.494,8.88,8.88,0,0,1-1.228-.924,13.364,13.364,0,0,0-7.32-3.469,7.653,7.653,0,0,0-2.163-.012,4.714,4.714,0,0,0-1.674.584,4.268,4.268,0,0,0-1.025.869,10.368,10.368,0,0,0-.66.953,3.709,3.709,0,0,1,.588-1.012,4.188,4.188,0,0,1,1.027-.924,4.782,4.782,0,0,1,1.716-.637,7.706,7.706,0,0,1,2.215-.017,12.736,12.736,0,0,1,2.478.552,14.338,14.338,0,0,1,2.566,1.133,10.693,10.693,0,0,1,1.249.813c.4.312.774.654,1.16.987a8.8,8.8,0,0,0,1.193.9,3.453,3.453,0,0,0,1.336.466,7.031,7.031,0,0,0,2.689-.419c1.7-.445,3.265-1,4.652-.82a3.845,3.845,0,0,1,2.657,1.682,2.481,2.481,0,0,1,.331.807A1.135,1.135,0,0,1,265.457,432.75Z" transform="translate(-239.572 -426.274)"/></g><g transform="translate(0 1.431)"><path class="f" d="M265.457,432.75a3.1,3.1,0,0,0-.438-1.059,3.466,3.466,0,0,0-.956-.935,3.821,3.821,0,0,0-1.643-.629c-1.327-.156-2.865.4-4.573.865a7.151,7.151,0,0,1-2.776.439,3.68,3.68,0,0,1-1.428-.494,8.88,8.88,0,0,1-1.228-.924,13.364,13.364,0,0,0-7.32-3.469,7.653,7.653,0,0,0-2.163-.012,4.714,4.714,0,0,0-1.674.584,4.268,4.268,0,0,0-1.025.869,10.368,10.368,0,0,0-.66.953,3.709,3.709,0,0,1,.588-1.012,4.188,4.188,0,0,1,1.027-.924,4.782,4.782,0,0,1,1.716-.637,7.706,7.706,0,0,1,2.215-.017,12.736,12.736,0,0,1,2.478.552,14.338,14.338,0,0,1,2.566,1.133,10.693,10.693,0,0,1,1.249.813c.4.312.774.654,1.16.987a8.8,8.8,0,0,0,1.193.9,3.453,3.453,0,0,0,1.336.466,7.031,7.031,0,0,0,2.689-.419c1.7-.445,3.265-1,4.652-.82a3.845,3.845,0,0,1,2.657,1.682,2.481,2.481,0,0,1,.331.807A1.135,1.135,0,0,1,265.457,432.75Z" transform="translate(-239.572 -426.274)"/></g><g transform="translate(3.716 4.256)"><path class="f" d="M247.63,435.62a4.589,4.589,0,0,1,.915-.634A26.413,26.413,0,0,1,253.4,432.7a4.581,4.581,0,0,1,1.072-.3,5.8,5.8,0,0,1-1.011.459c-.631.263-1.5.633-2.443,1.075s-1.781.877-2.387,1.195A5.77,5.77,0,0,1,247.63,435.62Z" transform="translate(-247.63 -432.4)"/></g><g transform="translate(4.33 5.835)"><path class="f" d="M248.963,439.253a64.429,64.429,0,0,1,7.087-3.426,64.639,64.639,0,0,1-7.087,3.426Z" transform="translate(-248.962 -435.823)"/></g><g transform="translate(3.355 4.759)"><path class="f" d="M255.228,438.77c-.036.056-1.94-1.081-4.254-2.538s-4.162-2.685-4.126-2.741,1.94,1.08,4.254,2.538S255.263,438.714,255.228,438.77Z" transform="translate(-246.848 -433.489)"/></g><g transform="translate(6.531 3.832)"><path class="f" d="M260.01,435.833a5.693,5.693,0,0,1-.932-.623c-.56-.4-1.333-.962-2.2-1.562s-1.66-1.128-2.234-1.511a5.666,5.666,0,0,1-.911-.654,4.807,4.807,0,0,1,1,.511c.6.347,1.412.855,2.282,1.457s1.629,1.185,2.165,1.625A4.811,4.811,0,0,1,260.01,435.833Z" transform="translate(-253.734 -431.479)"/></g></g></g></g></g></g></svg>