<svg xmlns="http://www.w3.org/2000/svg" width="52" height="52" viewBox="0 0 52 52"><defs><style>.a{fill:#ffe16e;}.b{fill:#ff8e00;}.c{fill:#f0a578;}.d{fill:#ffbe8f;}.e{fill:#7dd5f4;}.f{fill:#0fa7da;}.g{fill:#ffd2aa;}.h{fill:#f6f9f9;}.i{fill:#dadfe7;}.j{fill:#c8ffff;}.k{fill:#98f9ff;}.l{fill:#ff8493;}.m{fill:#e20059;}</style></defs><path class="a" d="M83.944,16.65H56.564a1.522,1.522,0,0,1-1.522-1.531,15.212,15.212,0,0,1,30.422,0,1.522,1.522,0,0,1-1.522,1.531Z" transform="translate(-49.459)"/><path class="b" d="M218.69,16.65a1.522,1.522,0,0,0,1.522-1.531A15.213,15.213,0,0,0,205,0V16.65Z" transform="translate(-184.169)"/><path class="c" d="M294.565,147.1H290V140h4.565a3.55,3.55,0,0,1,0,7.1Z" transform="translate(-260.54 -125.779)"/><path class="d" d="M48.115,147.1H43.55a3.55,3.55,0,0,1,0-7.1h4.565Z" transform="translate(-35.943 -125.779)"/><path class="e" d="M40.068,339.476H1.522A1.522,1.522,0,0,1,0,337.954v-4.26A13.71,13.71,0,0,1,13.694,320H27.9a13.71,13.71,0,0,1,13.694,13.694v4.26A1.522,1.522,0,0,1,40.068,339.476Z" transform="translate(0 -287.476)"/><path class="f" d="M212.1,320H205v19.476h19.273a1.522,1.522,0,0,0,1.522-1.522v-4.26A13.71,13.71,0,0,0,212.1,320Z" transform="translate(-184.163 -287.476)"/><path class="d" d="M155.579,284.2A5.579,5.579,0,0,1,150,278.622V270h11.158v8.622A5.579,5.579,0,0,1,155.579,284.2Z" transform="translate(-134.761 -242.565)"/><path class="c" d="M205,284.2a5.579,5.579,0,0,0,5.579-5.579V270H205Z" transform="translate(-184.177 -242.565)"/><g transform="translate(9.15 10.166)"><path class="g" d="M101.6,122.316A11.748,11.748,0,0,1,90,110.523v-6.465h5.1a5.8,5.8,0,0,0,5.2-3.212,1.524,1.524,0,0,1,1.808-.781,1.556,1.556,0,0,1,.931.8,5.787,5.787,0,0,0,5.19,3.188h5.1v6.593A11.678,11.678,0,0,1,101.6,122.316Z" transform="translate(-90 -100)"/><path class="d" d="M216.665,110.651v-6.593h-4.94a5.958,5.958,0,0,1-5.363-3.213A1.521,1.521,0,0,0,205,100v22.316A11.679,11.679,0,0,0,216.665,110.651Z" transform="translate(-193.335 -100)"/></g><path class="f" d="M83.043,438.318H80v-6.8a1.522,1.522,0,0,1,3.043,0Z" transform="translate(-71.874 -386.318)"/><g transform="translate(29.684 30.698)"><path class="h" d="M325.622,317,317,324.39v12.39h15.723a1.522,1.522,0,0,0,1.522-1.522V324.39Z" transform="translate(-314.464 -315.478)"/><path class="i" d="M409.1,336.78a1.522,1.522,0,0,0,1.522-1.522V324.39L402,317v19.78Z" transform="translate(-390.842 -315.478)"/><path class="j" d="M390.043,449.1H387v-5.579a1.522,1.522,0,0,1,3.043,0Z" transform="translate(-377.363 -427.799)"/><path class="k" d="M402,449.1h1.522v-5.579A1.522,1.522,0,0,0,402,442Z" transform="translate(-390.842 -427.799)"/><path class="j" d="M380.55,385.043h-2.029a1.522,1.522,0,0,1,0-3.043h2.029a1.522,1.522,0,1,1,0,3.043Z" transform="translate(-368.378 -373.885)"/><path class="k" d="M403.014,382H402v3.043h1.014a1.522,1.522,0,1,0,0-3.043Z" transform="translate(-390.842 -373.885)"/><path class="l" d="M312.794,313.3a1.515,1.515,0,0,1-.99-.366l-8.646-7.411-8.646,7.411a1.522,1.522,0,0,1-1.98-2.31l9.637-8.26a1.521,1.521,0,0,1,1.98,0l9.637,8.26a1.522,1.522,0,0,1-.991,2.677Z" transform="translate(-292 -302)"/><path class="m" d="M410.646,312.937a1.522,1.522,0,1,0,1.98-2.31l-9.637-8.26A1.518,1.518,0,0,0,402,302v3.526Z" transform="translate(-390.842 -302)"/></g><path class="d" d="M169.058,243.731a5.075,5.075,0,0,1-3.612-1.5,1.522,1.522,0,0,1,2.152-2.152,2.063,2.063,0,0,0,2.92,0,1.522,1.522,0,0,1,2.152,2.152A5.075,5.075,0,0,1,169.058,243.731Z" transform="translate(-148.239 -215.296)"/><path class="c" d="M208.612,242.234a1.522,1.522,0,1,0-2.152-2.152,2.052,2.052,0,0,1-1.46.606v3.043A5.075,5.075,0,0,0,208.612,242.234Z" transform="translate(-184.178 -215.296)"/></svg>