<svg xmlns="http://www.w3.org/2000/svg" width="52" height="52" viewBox="0 0 52 52"><defs><style>.a{fill:#c7e2fc;}.b{fill:#ebf7fe;}.c{fill:#db9b7c;}.d{fill:#669e4f;}.e{fill:#78b75b;}.f{fill:#8892a0;}.g{fill:#c66b60;}.h{fill:#efbe9a;}.i{fill:#96cc7f;}.j{fill:#976947;}.k{fill:#4d5d7a;}.l{fill:#c18e59;}</style></defs><g transform="translate(-2 -2)"><path class="a" d="M2.872,44.734H2V12.465L12.465,2H35.141V44.734H30.78"/><path class="b" d="M2,12.465v27.7a30.278,30.278,0,0,0,3.488.208c15.894,0,28.78-12.3,28.78-27.472A26.314,26.314,0,0,0,31.909,2H12.465Z"/><path class="c" d="M9.361,36H7.616a2.616,2.616,0,0,0,0,5.233H9.361" transform="translate(-0.384 -4.554)"/><path class="c" d="M24,41.233h1.744a2.616,2.616,0,0,0,0-5.233H24" transform="translate(-2.944 -4.554)"/><path class="d" d="M28.164,60.21v-6.1a5.232,5.232,0,0,0-4.3-5.148L18.57,48H11.593l-5.3.963A5.233,5.233,0,0,0,2,54.111v6.1Z" transform="translate(0 -6.21)"/><path class="e" d="M11.593,58.465c7.079,0,12.989-3.651,14.463-8.528a5.186,5.186,0,0,0-2.19-.973L18.57,48H11.593l-5.3.963A5.233,5.233,0,0,0,2,54.111v1.756A18.188,18.188,0,0,0,11.593,58.465Z" transform="translate(0 -6.21)"/><path class="f" d="M12.465,2V12.465H2"/><path class="g" d="M26.1,7,20,11.995v8.959H32.21V11.995Z" transform="translate(-2.43 -0.639)"/><path class="h" d="M9,33v6.1a6.977,6.977,0,1,0,13.954,0V33" transform="translate(-0.895 -4.19)"/><path class="c" d="M16.488,51.488A3.489,3.489,0,0,0,19.977,48H13A3.489,3.489,0,0,0,16.488,51.488Z" transform="translate(-1.476 -6.151)"/><g transform="translate(6.361 47.895)"><path class="i" d="M7,55H8.744v6.1H7Z" transform="translate(-7 -55)"/></g><g transform="translate(21.929 47.895)"><path class="i" d="M25,55h1.744v6.1H25Z" transform="translate(-25 -55)"/></g><path class="j" d="M24.442,34.721V31.233A5.232,5.232,0,0,0,19.21,26H12.233A5.232,5.232,0,0,0,7,31.233v3.488h4.361L13.1,32.977l1.744,1.744Z" transform="translate(-0.639 -3.226)"/><path class="k" d="M51.849,19a7.845,7.845,0,0,0-2.616,15.242v3.072l1.744,1.744L49.233,40.8l1.744,1.744-1.744,1.744v2.616l2.616,1.744,2.616-1.744V34.242A7.845,7.845,0,0,0,51.849,19Zm0,8.721A2.616,2.616,0,1,1,54.465,25.1,2.616,2.616,0,0,1,51.849,27.721Z" transform="translate(-5.698 -2.388)"/><path class="b" d="M24,21.361V17h5.233v4.361" transform="translate(-2.947 -2.007)"/><g transform="translate(38.302 16.646)"><path class="f" d="M54.4,25.658a2.624,2.624,0,1,1-.122-1.5,31.091,31.091,0,0,0-.92-5.01,7.844,7.844,0,0,0-4.129,15.093v3.072l1.744,1.744L49.233,40.8l1.54,1.54c2.258-3.52,3.693-8.762,3.693-14.622C54.465,27.024,54.444,26.335,54.4,25.658Z" transform="translate(-44 -19)"/><path class="f" d="M50,47.987c.128-.136.256-.277.38-.424l-.38.381Z" transform="translate(-44.767 -22.653)"/></g><g transform="translate(25.607 7.233)"><path class="k" d="M50.86,23.7H49.116v-6.1a7.859,7.859,0,0,0-7.849-7.849H29.444V8H41.266a9.6,9.6,0,0,1,9.593,9.593Z" transform="translate(-29.444 -8)"/></g><g transform="translate(13.538 5.488)"><path class="l" d="M34.554,15.4,25.512,8l-9.041,7.4-1.1-1.35L24.959,6.2a.871.871,0,0,1,1.1,0l9.593,7.849Z" transform="translate(-15.366 -5.999)"/></g></g></svg>