<svg xmlns="http://www.w3.org/2000/svg" width="132" height="118" viewBox="0 0 132 118"><defs><style>.a{fill:#efefef;}.b{fill:#f3f3f1;}.c{fill:#d2f4ff;}.d{fill:#d5dbe1;}.e{fill:#09c;}.f{fill:#a4afc1;}</style></defs><g transform="translate(-0.134 -1.91)"><path class="a" d="M128.583,69.546c-13.972-21.235-12.487-43-19.221-53.237S82.556-11.57,35.132,19.177-.229,83.348,7.182,94.6C41.863,147.3,153.331,107.154,128.583,69.546Z" transform="translate(0 0)"/><path class="b" d="M90.612,18.75V42.4a7.389,7.389,0,0,1-7.454,7.277H14.2A7.389,7.389,0,0,1,6.75,42.4V18.75H20.764a3.668,3.668,0,0,1,3.541,2.583L28.33,34.358a3.668,3.668,0,0,0,3.541,2.583H65.49a3.668,3.668,0,0,0,3.541-2.583l4.025-13.025A3.668,3.668,0,0,1,76.6,18.75Z" transform="translate(17.454 45.084)"/><path class="c" d="M90.612,45.133H76.6a3.668,3.668,0,0,0-3.541,2.583L69.031,60.741a3.668,3.668,0,0,1-3.541,2.583H31.871a3.668,3.668,0,0,1-3.541-2.583L24.305,47.716a3.668,3.668,0,0,0-3.541-2.583H6.75L23.522,8.75H73.839Z" transform="translate(17.454 18.412)"/><path class="d" d="M34.153,34.358l3.929-13.025a3.591,3.591,0,0,1,3.456-2.583H33.352A3.591,3.591,0,0,0,29.9,21.333L25.966,34.358a3.591,3.591,0,0,1-3.456,2.583H30.7A3.591,3.591,0,0,0,34.153,34.358Z" transform="translate(60.501 44.999)"/><path class="d" d="M14.936,42.4V18.75H6.75V42.4a7.3,7.3,0,0,0,7.277,7.277h8.186A7.3,7.3,0,0,1,14.936,42.4Z" transform="translate(17.874 45.084)"/><path class="e" d="M23.122,8.75,6.75,45.133h8.186L31.308,8.75Z" transform="translate(17.91 18.329)"/><path class="e" d="M26.082,34.358,22.153,21.333A3.591,3.591,0,0,0,18.7,18.75H10.51a3.591,3.591,0,0,1,3.456,2.583L17.9,34.358a3.591,3.591,0,0,0,3.456,2.583h8.186A3.591,3.591,0,0,1,26.082,34.358Z" transform="translate(28.054 44.999)"/><g transform="translate(25.63 7.694)"><path class="f" d="M31.7,14.415a5.457,5.457,0,1,1,5.457-5.457A5.464,5.464,0,0,1,31.7,14.415Zm0-7.277a1.819,1.819,0,1,0,1.819,1.819A1.822,1.822,0,0,0,31.7,7.138Z" transform="translate(44.263 -3.5)"/><path class="f" d="M0,0H3.638V7.277H0Z" transform="translate(0.648 4.801) rotate(-45)"/><path class="f" d="M0,0H7.277V3.638H0Z" transform="translate(0 22.168) rotate(-45)"/><path class="f" d="M0,0H7.277V3.638H0Z" transform="translate(14.796 7.375) rotate(-45)"/></g><path d="M85.085,81.687H16.234A10.192,10.192,0,0,1,6,71.555V47.607a2.721,2.721,0,0,1,.246-1.135L22.993,9.628A2.793,2.793,0,0,1,25.539,8H75.781a2.793,2.793,0,0,1,2.546,1.628L95.074,46.472a2.721,2.721,0,0,1,.246,1.135V71.555A10.192,10.192,0,0,1,85.085,81.687ZM11.582,48.2V71.555a4.635,4.635,0,0,0,4.652,4.605h68.85a4.635,4.635,0,0,0,4.652-4.605V48.2L73.976,13.527H27.344Z" transform="translate(15.475 16.067)"/><path d="M65.476,41.649H31.886a6.466,6.466,0,0,1-6.247-4.537l-4-13a.939.939,0,0,0-.891-.651h-14V18h14A6.466,6.466,0,0,1,27,22.537l4,13a.934.934,0,0,0,.891.651H65.476a.931.931,0,0,0,.891-.651l4-13A6.463,6.463,0,0,1,76.612,18h14v5.457h-14a.931.931,0,0,0-.891.651l-4,13A6.466,6.466,0,0,1,65.476,41.649Z" transform="translate(17.454 43.027)"/><path d="M2,26.5H120.425v5.457H2Z" transform="translate(4.922 65.614)"/></g></svg>