<svg width="32" height="32" viewBox="0 0 32 32" fill="none" xmlns="http://www.w3.org/2000/svg">
<rect width="32" height="32" rx="10" fill="#EEEEEE"/>
<g clip-path="url(#clip0)">
<path d="M24.7922 11.7072L21.1826 8.09073V22.5831H26.0133V14.6436C26.0133 13.5412 25.5737 12.4844 24.7922 11.7072Z" fill="#FFB782"/>
<path d="M8.82139 19.9424L6.09258 12.8584C5.8187 12.1473 6.17301 11.3485 6.88453 11.0744L19.7645 6.11321C20.4756 5.83933 21.2744 6.19364 21.5483 6.90516L24.2771 13.9892C24.551 14.7003 24.1967 15.4991 23.4852 15.7731L10.6056 20.7343C9.89409 21.0082 9.09567 20.6535 8.82139 19.9424Z" fill="#DE4C3C"/>
<path d="M22.5317 9.45718L7.08838 15.4433L8.1167 18.1127L23.5607 12.1293L22.5317 9.45718Z" fill="#7A4930"/>
<path d="M6 14.9919V7.40064C6 6.63841 6.61802 6.02039 7.38025 6.02039H21.1825C21.9447 6.02039 22.5628 6.63841 22.5628 7.40064V14.9919C22.5628 15.7541 21.9447 16.3721 21.1825 16.3721H7.38025C6.61802 16.3721 6 15.7541 6 14.9919Z" fill="#4398D1"/>
<path d="M21.1827 6.02039H19.7162L9.3645 16.3721H21.1827C21.945 16.3721 22.563 15.7541 22.563 14.9919V7.40064C22.563 6.63841 21.945 6.02039 21.1827 6.02039Z" fill="#3E8CC7"/>
<path d="M7.38037 11.5413H8.76062V12.2314H7.38037V11.5413Z" fill="#5EB3D1"/>
<path d="M7.38037 13.6116H8.76062V14.3018H7.38037V13.6116Z" fill="#5EB3D1"/>
<path d="M13.5916 13.6116H14.9718V14.3018H13.5916V13.6116Z" fill="#5EB3D1"/>
<path d="M9.45068 11.5413H10.8308V12.2314H9.45068V11.5413Z" fill="#5EB3D1"/>
<path d="M11.521 11.5413H12.9012V12.2314H11.521V11.5413Z" fill="#5EB3D1"/>
<path d="M13.5916 11.5413H14.9718V12.2314H13.5916V11.5413Z" fill="#5EB3D1"/>
<path d="M20.1475 7.40063H20.8376V8.43583H20.1475V7.40063Z" fill="#5EB3D1"/>
<path d="M18.7673 7.40063H19.4574V8.43583H18.7673V7.40063Z" fill="#5EB3D1"/>
<path d="M17.387 7.40063H18.0771V8.43583H17.387V7.40063Z" fill="#5EB3D1"/>
<path d="M16.0068 7.40063H16.6968V8.43583H16.0068V7.40063Z" fill="#5EB3D1"/>
<path d="M19.8025 22.5831H26.0135V26.0336H19.8025V22.5831Z" fill="#88B337"/>
<path d="M18.7895 12.2538C18.2042 11.6707 17.2571 11.6724 16.6739 12.2577C16.1101 12.8235 16.0905 13.7327 16.6294 14.3225L19.4572 17.4073C18.6073 18.8948 18.6436 20.7291 19.5513 22.1818L19.8022 22.5832H24.2879V17.7524L18.7895 12.2538Z" fill="#FFB782"/>
<path d="M20.8376 23.6183H21.5278V24.3085H20.8376V23.6183Z" fill="#6B962A"/>
<path d="M7.38037 9.60901V7.95276C7.38037 7.64771 7.62745 7.40063 7.9325 7.40063H9.58874C9.89379 7.40063 10.1407 7.64771 10.1407 7.95276V9.60901C10.1407 9.91406 9.89379 10.1611 9.58874 10.1611H7.9325C7.62745 10.1611 7.38037 9.91406 7.38037 9.60901Z" fill="#FDB62F"/>
<path d="M7.38037 8.43582H8.41556V9.12595H7.38037V8.43582Z" fill="#FD7B2F"/>
<path d="M9.10571 8.43582H10.1408V9.12595H9.10571V8.43582Z" fill="#FD7B2F"/>
<path d="M23.943 17.7524C23.8516 17.7524 23.7636 17.7161 23.6991 17.6512L22.3188 16.271C22.1863 16.134 22.1902 15.9156 22.3275 15.783C22.4614 15.654 22.6732 15.654 22.8067 15.783L24.187 17.1633C24.3216 17.2982 24.3216 17.5167 24.187 17.6512C24.122 17.7161 24.0345 17.7524 23.943 17.7524Z" fill="#F2A46F"/>
</g>
<defs>
<clipPath id="clip0">
<rect width="20" height="20" fill="white" transform="translate(6 6)"/>
</clipPath>
</defs>
</svg>
