<svg width="252" height="252" viewBox="0 0 252 252" fill="none" xmlns="http://www.w3.org/2000/svg">
<path opacity="0.7" d="M34.2366 84.2134C34.2366 84.2134 20.1851 120.501 39.9318 157.041C59.6785 193.581 100.351 212.885 132.905 229.391C165.458 245.897 199.261 237.858 215.324 210.823C231.386 183.789 209.356 164.49 209.326 125.94C209.296 87.3886 215.097 77.1826 194.206 44.6141C173.315 12.0456 122.104 4.83339 83.3766 28.9901C44.6493 53.1468 34.2366 84.2134 34.2366 84.2134Z" fill="white"/>
<path d="M38.8432 83.8908C53.3685 57.1486 89.9085 25.9308 140.036 38.934C190.164 51.9372 224.033 79.4455 218.484 127.305C212.935 175.165 183.773 214.931 120.96 216.095C58.1464 217.259 6.99043 142.531 38.8432 83.8908Z" fill="#0099CC"/>
<path opacity="0.7" d="M38.8432 83.8908C53.3685 57.1486 89.9085 25.9308 140.036 38.934C190.164 51.9372 224.033 79.4455 218.484 127.305C212.935 175.165 183.773 214.931 120.96 216.095C58.1464 217.259 6.99043 142.531 38.8432 83.8908Z" fill="white"/>
<path d="M221.311 120.057L188.618 125.119C187.369 125.312 186.513 126.481 186.707 127.73L189.789 147.643C189.982 148.891 191.152 149.747 192.4 149.554L225.094 144.493C226.342 144.299 227.198 143.13 227.005 141.881L223.922 121.969C223.729 120.72 222.56 119.864 221.311 120.057Z" stroke="#263238" stroke-linecap="round" stroke-linejoin="round"/>
<path d="M187.206 130.944L224.421 125.184" stroke="#263238" stroke-linecap="round" stroke-linejoin="round"/>
<path d="M221.511 131.716L215.5 132.647L216.84 141.303L222.851 140.372L221.511 131.716Z" stroke="#263238" stroke-linecap="round" stroke-linejoin="round"/>
<path d="M217.94 134.064C219.21 132.552 221.296 133.56 220.807 138.252L222.667 139.175L222.849 140.354L216.841 141.286L216.594 139.709L218.862 138.827C218.862 138.827 216.745 135.49 217.94 134.064Z" stroke="#263238" stroke-linecap="round" stroke-linejoin="round"/>
<path d="M204.901 144.648C204.901 144.648 209.246 144.683 208.001 143.816C206.756 142.95 206.569 142.073 207.628 142.057C208.686 142.042 210.46 144.073 210.319 142.834C210.178 141.594 210.944 142.4 211.09 142.481C211.236 142.561 212.491 142.057 212.552 142.204C212.612 142.35 212.527 142.758 216.614 142.128" stroke="#263238" stroke-linecap="round" stroke-linejoin="round"/>
<path d="M190.361 134.81L208.585 131.988" stroke="#263238" stroke-linecap="round" stroke-linejoin="round"/>
<path d="M190.683 136.876L201.419 135.213" stroke="#263238" stroke-linecap="round" stroke-linejoin="round"/>
<path d="M191.248 140.52L206.222 138.202" stroke="#263238" stroke-linecap="round" stroke-linejoin="round"/>
<path d="M195.895 126.892L214.17 124.06" stroke="#263238" stroke-linecap="round" stroke-linejoin="round"/>
<path d="M21.8484 114.126L62.7077 105.966L76.9759 174.47L33.5462 183.784L21.8484 114.126Z" stroke="#263238" stroke-linecap="round" stroke-linejoin="round"/>
<path d="M31.9032 174.011L75.2472 166.164" stroke="#263238" stroke-linecap="round" stroke-linejoin="round"/>
<path d="M70.1114 160.338L49.4121 164.158" stroke="#263238" stroke-linecap="round" stroke-linejoin="round"/>
<path d="M67.042 156.9L60.994 157.792" stroke="#263238" stroke-linecap="round" stroke-linejoin="round"/>
<path d="M67.9644 149.905L37.0692 155.701" stroke="#263238" stroke-linecap="round" stroke-linejoin="round"/>
<path d="M27.1908 145.948L69.4814 138.484" stroke="#263238" stroke-linecap="round" stroke-linejoin="round" stroke-dasharray="1 2"/>
<path d="M72.1274 172.252L46.4385 177.635" stroke="#263238" stroke-linecap="round" stroke-linejoin="round"/>
<path d="M71.3614 170.085L59.2855 172.252" stroke="#263238" stroke-linecap="round" stroke-linejoin="round"/>
<path d="M64.8295 133.968L43.6464 138.167" stroke="#263238" stroke-linecap="round" stroke-linejoin="round"/>
<path d="M63.1563 129.266L56.4077 130.591" stroke="#263238" stroke-linecap="round" stroke-linejoin="round"/>
<path d="M62.7581 126L31.9032 131.947" stroke="#263238" stroke-linecap="round" stroke-linejoin="round"/>
<path d="M59.9559 110.104L51.6248 111.828" stroke="#263238" stroke-linecap="round" stroke-linejoin="round"/>
<path d="M31.9031 116.026L24.7161 117.422" stroke="#263238" stroke-linecap="round" stroke-linejoin="round"/>
<path d="M27.3319 121.383C27.4818 120.872 27.7392 120.399 28.0869 119.996C28.4346 119.593 28.8646 119.268 29.3479 119.045" stroke="#263238" stroke-linecap="round" stroke-linejoin="round"/>
<path d="M30.5272 126C29.6348 125.894 28.8098 125.472 28.2022 124.81C27.5946 124.148 27.2447 123.29 27.2159 122.391" stroke="#263238" stroke-linecap="round" stroke-linejoin="round"/>
<path d="M33.3295 125.143C32.8179 125.604 32.1812 125.902 31.5 126" stroke="#263238" stroke-linecap="round" stroke-linejoin="round"/>
<path d="M30.88 118.702C31.5289 118.723 32.1613 118.912 32.7155 119.25C33.2697 119.589 33.7269 120.065 34.0426 120.632C34.3583 121.199 34.5216 121.839 34.5168 122.488C34.5119 123.137 34.339 123.774 34.0149 124.337" stroke="#263238" stroke-linecap="round" stroke-linejoin="round"/>
<path d="M38.2284 119.65C37.5581 119.438 36.8928 119.196 36.2124 119.045" stroke="#263238" stroke-linecap="round" stroke-linejoin="round"/>
<path d="M43.9438 120.133C43.3742 121.489 40.189 120.254 39.2616 119.972" stroke="#263238" stroke-linecap="round" stroke-linejoin="round"/>
<path d="M38.4905 116.535L44.4478 117.936C44.352 118.334 44.2764 118.737 44.2008 119.136" stroke="#263238" stroke-linecap="round" stroke-linejoin="round"/>
<path d="M35.542 117.936C36.177 116.424 35.925 115.92 37.5076 116.288" stroke="#263238" stroke-linecap="round" stroke-linejoin="round"/>
<path d="M108.234 224.92L116.122 227.339L110.26 220.435C113.473 216.862 115.313 212.264 115.451 207.462" stroke="#263238" stroke-linecap="round" stroke-linejoin="round"/>
<path d="M98.663 227.964C101.307 227.121 103.802 225.867 106.057 224.25" stroke="#263238" stroke-linecap="round" stroke-linejoin="round"/>
<path d="M68.2264 213.298C70.5499 224.492 82.918 231.386 95.8557 228.705" stroke="#263238" stroke-linecap="round" stroke-linejoin="round"/>
<path d="M70.1114 200.678C69.6149 201.621 69.1936 202.602 68.8514 203.611" stroke="#263238" stroke-linecap="round" stroke-linejoin="round"/>
<path d="M115.073 203.581C112.755 192.387 100.382 185.492 87.449 188.179C81.5763 189.332 76.2838 192.482 72.4701 197.094" stroke="#263238" stroke-linecap="round" stroke-linejoin="round"/>
<path d="M101.349 199.478C97.6247 195.421 92.5494 198.233 90.4377 202.351C86.95 199.327 81.1893 198.586 79.2438 203.742C75.9577 212.426 87.1969 217.723 92.3982 219.638C92.9879 219.86 93.4717 220.046 93.8749 220.183C94.2025 219.905 94.5856 219.553 95.0493 219.129C99.1619 215.415 107.629 206.323 101.349 199.478Z" stroke="#263238" stroke-linecap="round" stroke-linejoin="round"/>
<path d="M132.32 34.272L124.705 31.1019L129.871 38.5409C126.34 41.7868 124.075 46.1802 123.48 50.9393" stroke="#263238" stroke-linecap="round" stroke-linejoin="round"/>
<path d="M142.128 32.1502C139.417 32.738 136.813 33.7446 134.412 35.1339" stroke="#263238" stroke-linecap="round" stroke-linejoin="round"/>
<path d="M171.022 49.6793C169.788 38.304 158.14 30.24 145.006 31.6865" stroke="#263238" stroke-linecap="round" stroke-linejoin="round"/>
<path d="M167.933 62.0576C168.509 61.1659 169.014 60.2307 169.445 59.2604" stroke="#263238" stroke-linecap="round" stroke-linejoin="round"/>
<path d="M123.48 54.8403C124.715 66.2055 136.362 74.2594 149.496 72.8331C155.452 72.2479 161.021 69.6215 165.262 65.3991" stroke="#263238" stroke-linecap="round" stroke-linejoin="round"/>
<path d="M152.775 61.7954C158.598 58.6781 160.792 51.4303 157.675 45.6068C154.558 39.7834 147.31 37.5896 141.486 40.7069C135.663 43.8242 133.469 51.072 136.586 56.8955C139.704 62.7189 146.951 64.9127 152.775 61.7954Z" stroke="#263238" stroke-linecap="round" stroke-linejoin="round"/>
<path d="M142.587 52.7638L146.165 56.1406L152.132 45.864" stroke="#263238" stroke-linecap="round" stroke-linejoin="round"/>
<path opacity="0.2" d="M162.081 165.166C162.081 165.166 160.287 186.878 162.883 192.145C165.478 197.412 166.779 233.397 165.614 237.923C165.614 237.923 173.971 240.03 177.277 237.036C180.583 234.042 185.669 236.925 194.045 234.012C202.422 231.099 196.379 166.441 196.379 166.441L196.636 142.919L182.821 130.612L162.081 165.166Z" fill="black" fill-opacity="0.7"/>
<path d="M173.22 175.609C173.168 175.764 173.084 175.906 172.973 176.027C171.189 177.715 163.573 179.59 157.031 180.941C151.613 182.065 146.951 182.826 146.951 182.826C146.951 182.826 143.363 153.004 143.363 149.869C143.363 146.735 137.577 95.9818 137.577 95.9818L151.447 95.382L169.848 94.5857C169.848 94.5857 169.959 95.9415 170.145 98.3103C171.36 113.4 175.533 169.656 173.22 175.609Z" fill="#0099CC"/>
<path opacity="0.2" d="M173.22 175.609L157.031 178.92L150.918 180.175C149.26 178.547 147.995 178.517 147.995 178.517L147.491 173.956L146.699 166.491L139.734 100.82C141.246 99.7769 141.992 97.4938 141.992 97.4938L151.316 97.1561L167.469 96.5664L170.135 98.2901C171.36 113.4 175.533 169.656 173.22 175.609Z" fill="black" fill-opacity="0.7"/>
<path d="M173.22 175.609L157.031 178.92L150.918 180.175C149.26 178.547 147.995 178.517 147.995 178.517L147.491 173.956L146.699 166.491L139.734 100.82C141.246 99.7769 141.992 97.4938 141.992 97.4938L151.316 97.1561L167.469 96.5664L170.135 98.2901C171.36 113.4 175.533 169.656 173.22 175.609Z" stroke="#263238" stroke-linecap="round" stroke-linejoin="round"/>
<path d="M148.851 156.275L154.254 156.265L154.259 157.954L152.757 158.488L149.295 158.866L148.851 156.275Z" fill="#0099CC" stroke="#263238" stroke-linecap="round" stroke-linejoin="round"/>
<path d="M149.184 159.753L153.156 159.617L154.174 160.101L154.123 162.343L149.486 162.394L149.184 159.753Z" fill="#0099CC" stroke="#263238" stroke-linecap="round" stroke-linejoin="round"/>
<path d="M149.819 163.336L154.355 163.009L154.305 164.707L152.112 165.483L149.794 165.352L149.819 163.336Z" fill="#0099CC" stroke="#263238" stroke-linecap="round" stroke-linejoin="round"/>
<path d="M150.091 166.199L153.755 166.386L154.088 167.323L153.554 168.356L150.278 168.568L149.713 166.97L150.091 166.199Z" fill="#0099CC" stroke="#263238" stroke-linecap="round" stroke-linejoin="round"/>
<path d="M154.315 169.48L154.819 170.947C154.899 171.103 154.941 171.275 154.941 171.451C154.941 171.626 154.899 171.799 154.819 171.955C154.725 172.062 154.605 172.143 154.471 172.191C154.337 172.238 154.193 172.251 154.053 172.227C153.77 172.202 153.493 172.106 153.211 172.091C152.359 172.056 151.578 172.756 150.741 172.595C150.414 171.688 149.587 170.357 150.706 169.949C150.913 169.883 154.436 169.813 154.315 169.48Z" fill="#0099CC" stroke="#263238" stroke-linecap="round" stroke-linejoin="round"/>
<path d="M154.3 173.608C154.38 173.957 154.437 174.31 154.471 174.666C154.522 174.891 154.515 175.126 154.449 175.347C154.384 175.569 154.263 175.77 154.098 175.931C153.883 176.049 153.643 176.113 153.397 176.118L150.484 176.38C150.442 175.83 150.433 175.278 150.459 174.727C150.63 174.072 150.51 174.127 151.129 173.86C152.112 173.442 153.292 174.107 154.3 173.608Z" fill="#0099CC" stroke="#263238" stroke-linecap="round" stroke-linejoin="round"/>
<path d="M143.706 102.312C143.706 102.312 144.804 112.931 144.855 115.033" stroke="#263238" stroke-linecap="round" stroke-linejoin="round"/>
<path d="M146.074 102.428L146.588 108.279" stroke="#263238" stroke-linecap="round" stroke-linejoin="round"/>
<path d="M154.285 100.215L154.95 107.075L155.882 107.165L155.58 100.281L154.285 100.215Z" fill="#0099CC" stroke="#263238" stroke-linecap="round" stroke-linejoin="round"/>
<path opacity="0.2" d="M173.22 175.609C173.168 175.764 173.084 175.906 172.973 176.027C171.189 177.715 163.573 179.59 157.031 180.941V176.405L147.511 173.966L146.074 173.598L146.719 166.501L149.184 139.386L151.336 97.1763L151.427 95.382L169.848 94.5857C169.848 94.5857 169.959 95.9415 170.145 98.3103C171.36 113.4 175.533 169.656 173.22 175.609Z" fill="black" fill-opacity="0.7"/>
<path d="M173.22 175.609C173.168 175.764 173.084 175.906 172.973 176.027C171.189 177.715 163.573 179.59 157.031 180.941C151.613 182.065 146.951 182.826 146.951 182.826C146.951 182.826 143.363 153.004 143.363 149.869C143.363 146.735 137.577 95.9818 137.577 95.9818L151.447 95.382L169.848 94.5857C169.848 94.5857 169.959 95.9415 170.145 98.3103C171.36 113.4 175.533 169.656 173.22 175.609Z" stroke="#263238" stroke-linecap="round" stroke-linejoin="round"/>
<path d="M182.982 243.281C183.098 242.217 181.425 226.961 181.395 225.303C181.314 220.767 180.029 214.815 180.029 214.815C178.235 210.229 176.839 199.66 172.051 192.881C167.263 186.102 167.268 178.129 166.471 171.36C165.675 164.591 165.872 165.176 166.073 159.168C166.219 154.655 166.018 150.138 165.473 145.656C165.075 141.664 164.279 134.644 165.473 131.373C166.668 128.102 169.793 127.341 173.215 130.617C176.637 133.893 178.033 147.324 178.033 148.982C178.033 150.641 178.033 155.822 179.233 157.818C179.233 157.818 186.011 154.35 186.011 153.392C186.011 152.435 185.81 143.973 186.808 143.519L182.821 130.617L190.381 127.93C191.804 129.207 193.033 130.684 194.03 132.315C194.883 133.666 195.598 135.099 196.162 136.594C199.352 145.056 204.478 150.958 205.536 153.392C206.595 155.827 205.536 175.16 205.536 178.754C205.536 182.347 203.218 198.914 203.278 201.701C203.324 203.717 204.685 211.216 206.04 216.967C206.544 219.185 209.604 235.252 210.072 236.527L182.982 243.281Z" fill="white"/>
<path opacity="0.4" d="M188.95 142.667C188.899 143.751 190.195 152.389 190.195 152.389C191.092 154.542 186.193 161.88 186.193 161.88C185.134 162.475 184.681 166.164 184.681 166.164C181.365 165.428 173.769 157.792 173.769 157.792C173.769 157.792 172.872 160.922 171.864 168.669C170.856 176.415 177.247 194.816 179.968 207.522C182.69 220.228 181.395 225.288 181.395 225.288C181.314 220.752 180.029 214.8 180.029 214.8C178.235 210.213 176.839 199.645 172.051 192.866C167.263 186.087 167.268 178.129 166.471 171.36C165.675 164.591 165.872 165.176 166.073 159.168C166.219 154.655 166.018 150.138 165.473 145.656C165.075 141.664 164.279 134.644 165.473 131.373C166.668 128.102 169.793 127.341 173.215 130.617C176.637 133.893 178.033 147.324 178.033 148.982C178.033 150.641 178.033 155.822 179.233 157.818C179.233 157.818 186.011 154.35 186.011 153.392C186.011 152.435 185.81 143.973 186.808 143.519L182.821 130.617L190.381 127.93C191.804 129.207 193.033 130.684 194.03 132.315C191.586 137.204 189 141.992 188.95 142.667Z" fill="#0099CC"/>
<path opacity="0.4" d="M201.66 203.036C201.993 200.012 202.986 192.825 203.616 188.34C202.845 191.843 201.6 193.617 201.6 193.617C201.6 193.617 203.747 167.913 203.959 166.345C204.17 164.778 206.338 157.732 205.541 153.367C206.6 155.796 205.541 175.135 205.541 178.728C205.541 182.322 203.223 198.888 203.283 201.676C203.329 203.692 205.491 216.539 206.847 222.289C203.933 218.056 201.328 206.076 201.66 203.036Z" fill="#0099CC"/>
<path d="M210.062 236.502C208.47 231.916 203.354 204.448 203.293 201.676C203.233 198.904 205.551 182.317 205.551 178.728C205.551 175.14 206.61 155.796 205.551 153.367C204.493 150.938 199.367 145.031 196.177 136.569C194.971 133.26 192.989 130.289 190.396 127.905L182.836 130.591L186.823 143.494C185.815 143.947 186.026 152.41 186.026 153.367C186.026 154.325 179.248 157.792 179.248 157.792C178.048 155.776 178.048 150.615 178.048 148.957C178.048 147.299 176.652 133.862 173.23 130.591C169.808 127.32 166.678 128.071 165.488 131.347C164.299 134.623 165.09 141.639 165.488 145.631C166.034 150.118 166.234 154.64 166.088 159.158C165.887 165.166 165.685 164.571 166.486 171.35C167.288 178.129 167.283 186.102 172.066 192.881C176.849 199.66 178.25 210.228 180.044 214.815C180.044 214.815 183.431 239.294 182.997 243.281" stroke="#263238" stroke-linecap="round" stroke-linejoin="round"/>
<path d="M179.233 157.792C179.233 157.792 180.427 163.372 183.118 166.164" stroke="#263238" stroke-linecap="round" stroke-linejoin="round"/>
<path d="M179.958 160.338C179.958 160.338 184.998 161.88 187.105 161.976" stroke="#263238" stroke-linecap="round" stroke-linejoin="round"/>
<path d="M186.011 153.367C186.011 153.367 189.6 151.709 191.893 152.707" stroke="#263238" stroke-linecap="round" stroke-linejoin="round"/>
<path d="M186.808 143.494C186.808 143.494 189.6 143.237 190.194 141.841" stroke="#263238" stroke-linecap="round" stroke-linejoin="round"/>
<path d="M172.973 194.302C172.973 194.302 178.335 200.96 179.928 204.347" stroke="#263238" stroke-linecap="round" stroke-linejoin="round"/>
<path d="M204.155 165.166C203.258 170.453 202.059 184.908 201.661 187.498" stroke="#263238" stroke-linecap="round" stroke-linejoin="round"/>
<path d="M205.869 155.197C206.02 159.985 204.861 162.474 204.861 162.474" stroke="#263238" stroke-linecap="round" stroke-linejoin="round"/>
<path d="M164.647 88.2L201.6 97.9474C201.6 97.9474 188.612 137.365 185.976 142.254L181.571 176.617C181.571 176.617 157.964 175.578 147.108 172.297C147.108 172.297 153.972 136.513 154.34 131.741C154.708 126.968 164.647 88.2 164.647 88.2Z" fill="#0099CC"/>
<path opacity="0.2" d="M156.699 129.624L164.843 94.8024C164.843 94.8024 168.346 93.0636 169.702 91.476L196.177 99.0058C196.177 99.0058 196.258 101.601 197.775 103.265L184.414 141.765L181.173 170.145C181.173 170.145 176.864 170.488 176.45 173.673C176.45 173.673 162.48 174.429 153.11 171.96C153.11 171.96 152.006 168.517 150.318 166.34L156.699 129.624Z" fill="black" fill-opacity="0.7"/>
<path d="M156.699 129.624L164.843 94.8024C164.843 94.8024 168.346 93.0636 169.702 91.476L196.177 99.0058C196.177 99.0058 196.258 101.601 197.775 103.265L184.414 141.765L181.173 170.145C181.173 170.145 176.864 170.488 176.45 173.673C176.45 173.673 162.48 174.429 153.11 171.96C153.11 171.96 152.006 168.517 150.318 166.34L156.699 129.624Z" stroke="#263238" stroke-linecap="round" stroke-linejoin="round"/>
<path d="M163.477 131.433C163.477 131.433 165.882 122.361 174.349 123.989C182.816 125.617 178.033 136.796 178.033 136.796C178.033 136.796 178.083 145.817 171.214 144.572C165.257 143.494 162.081 140.223 163.477 131.433Z" fill="#0099CC" stroke="#263238" stroke-linecap="round" stroke-linejoin="round"/>
<path d="M168.064 98.1136C168.064 98.1136 165.504 108.481 164.843 110.477" stroke="#263238" stroke-linecap="round" stroke-linejoin="round"/>
<path d="M170.256 99.0109L168.764 104.696" stroke="#263238" stroke-linecap="round" stroke-linejoin="round"/>
<path d="M188.95 102.997L194.045 104.792L193.486 106.389H191.893L188.501 105.593L188.95 102.997Z" fill="#0099CC" stroke="#263238" stroke-linecap="round" stroke-linejoin="round"/>
<path d="M188.103 106.389L191.893 107.584L192.689 108.38L191.893 110.477L187.503 108.98L188.103 106.389Z" fill="#0099CC" stroke="#263238" stroke-linecap="round" stroke-linejoin="round"/>
<path d="M187.503 109.978L191.893 111.188L191.273 112.77H188.95L186.808 111.873L187.503 109.978Z" fill="#0099CC" stroke="#263238" stroke-linecap="round" stroke-linejoin="round"/>
<path d="M186.808 112.77L190.195 114.166V115.159L189.348 115.96L186.193 115.063V113.365L186.808 112.77Z" fill="#0099CC" stroke="#263238" stroke-linecap="round" stroke-linejoin="round"/>
<path d="M189.696 117.271V118.823C189.722 118.994 189.708 119.169 189.654 119.333C189.601 119.498 189.51 119.648 189.388 119.771C189.263 119.839 189.123 119.875 188.98 119.875C188.837 119.875 188.697 119.839 188.572 119.771C188.315 119.65 188.068 119.468 187.826 119.362C187.034 119.045 186.062 119.443 185.306 119.02C185.306 118.057 184.968 116.53 186.158 116.5C186.354 116.515 189.696 117.624 189.696 117.271Z" fill="#0099CC" stroke="#263238" stroke-linecap="round" stroke-linejoin="round"/>
<path d="M188.299 121.157C188.261 121.512 188.197 121.864 188.108 122.21C187.997 122.659 187.78 123.158 187.332 123.278C187.09 123.319 186.843 123.298 186.611 123.218L183.779 122.472C183.916 121.942 184.084 121.42 184.283 120.91C184.666 120.35 184.535 120.36 185.205 120.315C186.294 120.27 187.181 121.293 188.299 121.157Z" fill="#0099CC" stroke="#263238" stroke-linecap="round" stroke-linejoin="round"/>
<path d="M178.734 99.7114L177.035 106.389L177.882 106.788L179.928 100.205L178.734 99.7114Z" fill="#0099CC" stroke="#263238" stroke-linecap="round" stroke-linejoin="round"/>
<path d="M157.45 144.557L162.681 145.913L162.258 147.546L160.67 147.687L157.223 147.178L157.45 144.557Z" fill="#0099CC" stroke="#263238" stroke-linecap="round" stroke-linejoin="round"/>
<path d="M156.895 148.01L160.771 148.877L161.638 149.602L161.023 151.759L156.522 150.641L156.895 148.01Z" fill="#0099CC" stroke="#263238" stroke-linecap="round" stroke-linejoin="round"/>
<path d="M156.608 151.638L161.083 152.465L160.6 154.093L158.286 154.295L156.074 153.584L156.608 151.638Z" fill="#0099CC" stroke="#263238" stroke-linecap="round" stroke-linejoin="round"/>
<path d="M156.149 154.476L159.647 155.58L159.733 156.573L158.957 157.44L155.736 156.815L155.59 155.126L156.149 154.476Z" fill="#0099CC" stroke="#263238" stroke-linecap="round" stroke-linejoin="round"/>
<path d="M159.41 158.715L159.546 160.262C159.588 160.43 159.589 160.606 159.549 160.775C159.51 160.944 159.431 161.102 159.319 161.235C159.201 161.313 159.064 161.361 158.922 161.372C158.78 161.383 158.638 161.359 158.508 161.3C158.241 161.204 158.004 161.043 157.727 160.962C156.915 160.71 155.978 161.189 155.207 160.831C155.116 159.874 154.658 158.382 155.837 158.266C156.018 158.256 159.44 159.067 159.41 158.715Z" fill="#0099CC" stroke="#263238" stroke-linecap="round" stroke-linejoin="round"/>
<path d="M158.357 162.706C158.35 163.073 158.316 163.438 158.256 163.8C158.18 164.254 158.009 164.773 157.576 164.929C157.337 164.99 157.088 164.99 156.85 164.929L153.967 164.425C154.064 163.883 154.194 163.348 154.355 162.822C154.688 162.233 154.557 162.253 155.222 162.152C156.28 161.996 157.248 162.938 158.357 162.706Z" fill="#0099CC" stroke="#263238" stroke-linecap="round" stroke-linejoin="round"/>
<path d="M179.232 167.6C179.232 167.6 180.432 154.224 180.432 152.878" stroke="#263238" stroke-linecap="round" stroke-linejoin="round"/>
<path d="M176.838 167C176.838 167 177.342 160.045 177.433 158.836" stroke="#263238" stroke-linecap="round" stroke-linejoin="round"/>
<path d="M167.489 161.976L165.871 169.893H167.489L168.664 161.976H167.489Z" fill="#0099CC" stroke="#263238" stroke-linecap="round" stroke-linejoin="round"/>
<path opacity="0.2" d="M186.062 142.057C182.564 141.327 179.444 140.253 177.136 138.706C177.136 138.706 178.809 143.514 184.741 151.709L181.551 176.617C181.551 176.617 166.144 175.941 154.501 173.951C158.08 163.871 164.581 144.769 163.81 140.984C162.767 135.788 166.451 129.654 166.451 129.654C178.099 127.557 189.393 118.752 197.145 111.308C193.198 122.976 187.811 138.6 186.062 142.057Z" fill="black" fill-opacity="0.7"/>
<path d="M164.647 88.2L201.6 97.9474C201.6 97.9474 188.612 137.365 185.976 142.254L181.571 176.617C181.571 176.617 157.964 175.578 147.108 172.297C147.108 172.297 153.972 136.513 154.34 131.741C154.708 126.968 164.647 88.2 164.647 88.2Z" stroke="#263238" stroke-linecap="round" stroke-linejoin="round"/>
<path d="M185.134 166.668L179.928 204.347C178.769 201.882 175.609 197.679 173.976 195.577C173.371 194.791 172.968 194.302 172.968 194.302L172.046 192.881C167.263 186.102 167.263 178.129 166.466 171.35C165.67 164.571 165.867 165.166 166.068 159.158C166.215 154.649 166.016 150.135 165.473 145.656C165.075 141.664 164.279 134.644 165.473 131.373C166.058 129.77 167.111 128.772 168.432 128.56C169.752 128.349 171.456 128.953 173.215 130.617C176.637 133.888 178.033 147.324 178.033 148.982C178.033 150.641 178.033 155.822 179.233 157.818C179.233 157.792 182.448 163.876 185.134 166.668Z" fill="white"/>
<path opacity="0.4" d="M171.652 190.195C172.741 191.586 173.482 193.591 173.976 195.577C173.371 194.791 172.968 194.302 172.968 194.302L172.046 192.881C167.263 186.102 167.263 178.129 166.466 171.35C165.67 164.571 165.867 165.166 166.068 159.158C166.215 154.649 166.016 150.135 165.473 145.656C165.075 141.664 164.279 134.644 165.473 131.373C166.058 129.77 167.111 128.772 168.432 128.56C170.952 129.276 173.472 131.841 174.349 136.231C175.861 143.6 169.042 137.647 167.464 143.892C165.887 150.137 168.18 151.82 169.122 153.392C170.065 154.965 168.86 158.432 167.464 163.089C166.068 167.746 168.664 186.369 171.652 190.195Z" fill="#0099CC"/>
<path d="M185.134 166.668C182.443 163.876 179.232 157.792 179.232 157.792C178.033 155.776 178.033 150.615 178.033 148.957C178.033 147.299 176.637 133.862 173.215 130.591C169.793 127.32 166.663 128.071 165.473 131.347C164.284 134.623 165.075 141.639 165.473 145.631C166.019 150.118 166.219 154.64 166.073 159.158C165.871 165.166 165.67 164.571 166.471 171.35C167.273 178.129 167.268 186.102 172.05 192.881L172.973 194.302C172.973 194.302 178.335 200.96 179.928 204.347" stroke="#263238" stroke-linecap="round" stroke-linejoin="round"/>
<path d="M167.489 150.721C167.489 150.721 172.061 148.357 174.349 148.559" stroke="#263238" stroke-linecap="round" stroke-linejoin="round"/>
<path opacity="0.2" d="M97.6803 86.0882C97.6803 86.0882 86.1185 73.3572 85.3222 72.576C84.5259 71.7948 83.9262 58.2171 81.7287 52.2396C79.5313 46.2622 78.4678 11.1636 78.4678 11.1636C78.4678 11.1636 76.3762 8.57306 70.4794 9.96914C64.5826 11.3652 58.8018 8.76962 52.2245 12.5597C45.6473 16.3498 58.4036 70.56 58.4036 70.56L71.3514 111.822L97.6803 86.0882Z" fill="black" fill-opacity="0.7"/>
<path d="M105.623 86.184C105.623 86.184 100.442 119.282 95.0393 123.666C91.9196 126.186 87.056 127.346 82.7417 127.194C79.6169 127.084 76.7744 126.297 75.1011 124.871C71.1144 121.479 65.5251 119.685 62.743 117.492C59.9609 115.3 59.9508 107.523 58.1566 100.941C56.3624 94.3589 53.7668 94.1623 53.172 87.5851C52.5773 81.0079 50.1783 60.8731 45.8439 55.2838C41.5095 49.6944 41.4087 45.3146 39.6144 39.6295C37.8202 33.9444 24.696 13.3762 24.696 13.3762L56.69 6.82416C56.69 6.82416 59.8349 19.8425 63.2016 30.4618C64.7993 35.5018 66.4474 40.0075 67.8284 42.3158C70.48 46.7807 72.7769 51.447 74.6979 56.2716C78.3166 60.0617 80.2973 68.4583 80.8971 75.8117L89.4651 80.5896C96.0524 82.3889 105.623 86.184 105.623 86.184Z" fill="white"/>
<path opacity="0.4" d="M105.623 86.184C105.623 86.184 100.442 119.282 95.0394 123.666C91.9197 126.186 87.056 127.346 82.7418 127.194C72.5106 124.674 69.7588 118.969 68.3728 117.588C66.5281 115.749 64.1039 104.54 65.4344 98.0179C66.765 91.4961 65.8074 89.082 64.7087 85.8967C62.2744 78.8407 69.6983 75.0405 70.4644 72.3693C71.2304 69.6981 70.9684 54.7596 67.6268 49.901C65.8528 47.3155 61.2815 33.9897 63.2068 30.4718C64.8044 35.5118 66.4525 40.0176 67.8335 42.3259C70.4852 46.7908 72.7821 51.4571 74.703 56.2816C78.3217 60.0717 80.3024 68.4684 80.9022 75.8217L89.4702 80.5996C96.0524 82.3888 105.623 86.184 105.623 86.184Z" fill="#0099CC"/>
<path d="M66.5532 83.8555C66.5532 83.8555 64.7489 85.9774 63.1562 85.9774" stroke="#263238" stroke-linecap="round" stroke-linejoin="round"/>
<path d="M70.4794 91.0274C70.4794 91.0274 68.539 95.1501 65.4395 96.0674" stroke="#263238" stroke-linecap="round" stroke-linejoin="round"/>
<path d="M67.032 115.189C67.032 115.189 71.4218 113.294 72.1173 110.104" stroke="#263238" stroke-linecap="round" stroke-linejoin="round"/>
<path d="M89.4752 80.5947C89.4752 80.5947 88.3765 81.9907 88.3765 83.1147" stroke="#263238" stroke-linecap="round" stroke-linejoin="round"/>
<path d="M56.7101 6.82416C56.7101 6.82416 63.5544 35.1338 67.8485 42.336C70.5002 46.8009 72.7971 51.4672 74.718 56.2918C78.3368 60.0818 80.3175 68.4835 80.9172 75.8369L89.4852 80.6148C96.0624 82.409 105.613 86.1991 105.613 86.1991C105.613 86.1991 100.432 119.297 95.0292 123.682C89.6264 128.066 79.128 128.248 75.096 124.861C71.064 121.474 65.52 119.675 62.738 117.482C59.9559 115.29 59.9458 107.513 58.1516 100.931C56.3573 94.3488 53.7617 94.1522 53.167 87.575C52.5723 80.9978 50.1732 60.863 45.8388 55.2737C41.5044 49.6843 41.4036 45.3046 39.6094 39.6194C37.8152 33.9343 24.696 13.3762 24.696 13.3762" stroke="#263238" stroke-linecap="round" stroke-linejoin="round"/>
<path d="M117.745 84.037L64.8296 165.488L77.3187 166.879L115.265 168.457L119.151 96.007L117.745 84.037Z" fill="#263238" stroke="#263238" stroke-linecap="round" stroke-linejoin="round"/>
<path d="M117.745 84.0319L112.856 167.066L64.8296 165.488L68.6197 101.863L69.799 82.1066L90.7251 82.9483L117.745 84.0319Z" fill="#757575"/>
<path d="M105.669 157.505C108.898 157.505 111.515 154.887 111.515 151.659C111.515 148.43 108.898 145.812 105.669 145.812C102.44 145.812 99.8223 148.43 99.8223 151.659C99.8223 154.887 102.44 157.505 105.669 157.505Z" fill="#BFBFBF" stroke="#263238" stroke-miterlimit="10"/>
<path d="M104.021 147.778L107.982 148.297" stroke="#263238" stroke-linecap="round" stroke-linejoin="round"/>
<path d="M102.957 148.74L108.909 149.32" stroke="#263238" stroke-linecap="round" stroke-linejoin="round"/>
<path d="M102.297 154.607L108.254 155.187" stroke="#263238" stroke-linecap="round" stroke-linejoin="round"/>
<path d="M104.903 150.066C105.066 150.107 105.239 150.083 105.386 149.999C105.532 149.916 105.641 149.779 105.689 149.617L106.132 149.663L105.684 153.871L105.024 153.801L105.366 150.59L104.862 150.535L104.903 150.066Z" fill="#263238"/>
<path d="M107.105 150.242C107.367 150.242 107.488 150.439 107.458 150.716V150.767L107.201 150.741V150.696C107.201 150.575 107.171 150.52 107.085 150.51C106.999 150.499 106.944 150.545 106.934 150.666C106.924 150.787 106.964 150.893 107.125 151.064C107.207 151.133 107.271 151.221 107.313 151.32C107.354 151.419 107.371 151.527 107.362 151.633C107.332 151.911 107.181 152.052 106.914 152.022C106.646 151.991 106.531 151.82 106.556 151.548V151.442L106.808 151.467V151.593C106.808 151.714 106.843 151.764 106.929 151.775C107.014 151.785 107.075 151.744 107.085 151.623C107.095 151.502 107.055 151.397 106.893 151.225C106.812 151.156 106.747 151.068 106.706 150.969C106.665 150.87 106.648 150.763 106.657 150.656C106.692 150.353 106.848 150.192 107.105 150.242Z" fill="#263238"/>
<path d="M107.579 150.313L108.415 150.399L108.385 150.646L108.103 150.615L107.947 152.087L107.68 152.062L107.836 150.585L107.554 150.555L107.579 150.313Z" fill="#263238"/>
<path d="M93.4105 87.7179L84.0349 85.672C83.7929 85.6192 83.5539 85.7726 83.501 86.0146L82.2256 91.8595C82.1728 92.1016 82.3262 92.3406 82.5682 92.3934L91.9437 94.4393C92.1858 94.4921 92.4248 94.3387 92.4776 94.0967L93.7531 88.2518C93.8059 88.0097 93.6525 87.7707 93.4105 87.7179Z" fill="white" stroke="#263238" stroke-linecap="round" stroke-linejoin="round"/>
<path d="M87.066 91.355C87.0637 91.3148 87.0535 91.2754 87.0357 91.2391C87.0308 91.2193 87.0308 91.1985 87.0357 91.1786C87.0435 91.1635 87.0558 91.1511 87.071 91.1434C87.2071 91.0224 87.0408 90.8611 86.9097 90.8309C86.8644 90.8196 86.817 90.8202 86.772 90.8325C86.727 90.8449 86.6859 90.8686 86.6527 90.9014L86.7585 90.5083L87.2222 90.6091L87.2726 90.3672L86.5771 90.216C86.5624 90.2498 86.5522 90.2854 86.5469 90.3218C86.5469 90.3571 86.5922 90.3672 86.5922 90.4075C86.5922 90.4478 86.5922 90.4428 86.5922 90.463C86.6014 90.4925 86.6211 90.5176 86.6477 90.5335C86.6729 90.5335 86.6981 90.5789 86.693 90.6091C86.6965 90.6189 86.6965 90.6296 86.693 90.6394C86.6739 90.6857 86.6403 90.7246 86.5973 90.7502C86.5774 90.7541 86.5596 90.7648 86.5469 90.7805V90.8107C86.5469 90.846 86.5065 90.8662 86.4763 90.8863C86.4461 90.9065 86.3705 91.0678 86.3402 91.1786L86.5922 91.2341V91.1837C86.6174 91.0627 86.6829 91.0325 86.7636 91.0476C86.8442 91.0627 86.8946 91.1232 86.8644 91.2442L86.7837 91.6171C86.7837 91.733 86.6981 91.7683 86.6124 91.7482C86.5267 91.728 86.4864 91.6776 86.5116 91.5566L86.5469 91.4004L86.2949 91.345L86.2646 91.4861C86.2451 91.5408 86.2375 91.599 86.2422 91.6569C86.247 91.7147 86.264 91.7709 86.2923 91.8217C86.3205 91.8724 86.3592 91.9166 86.4058 91.9512C86.4524 91.9858 86.5059 92.0101 86.5627 92.0224C86.6194 92.0346 86.6782 92.0347 86.7349 92.0225C86.7917 92.0103 86.8452 91.9861 86.8919 91.9516C86.9386 91.917 86.9774 91.8729 87.0056 91.8222C87.0339 91.7715 87.0511 91.7153 87.0559 91.6574C87.0738 91.5577 87.0772 91.4558 87.066 91.355Z" fill="#263238"/>
<path d="M90.3571 92.0606C90.3525 92.0208 90.3423 91.9817 90.3269 91.9447C90.322 91.9248 90.322 91.9041 90.3269 91.8842C90.3346 91.869 90.347 91.8567 90.3622 91.8489C90.4932 91.728 90.3269 91.5667 90.2009 91.5365C90.1556 91.5252 90.1082 91.5258 90.0632 91.5381C90.0181 91.5505 89.9771 91.5742 89.9439 91.607L90.0497 91.2139L90.5134 91.3147L90.5638 91.0728L89.8683 90.9216C89.8513 90.9545 89.8411 90.9905 89.838 91.0274C89.838 91.0627 89.8783 91.0728 89.8834 91.1131C89.8884 91.1534 89.8834 91.1484 89.8834 91.1685C89.8926 91.1981 89.9123 91.2232 89.9388 91.2391C89.964 91.2391 89.9892 91.2844 89.9842 91.3147C89.9791 91.3449 89.9842 91.3147 89.9842 91.3449C89.9648 91.3927 89.9291 91.432 89.8834 91.4558C89.8655 91.461 89.8497 91.4716 89.838 91.4861C89.838 91.4861 89.838 91.4861 89.838 91.5163C89.838 91.5465 89.8027 91.5717 89.7725 91.5919C89.7423 91.6121 89.6667 91.7733 89.6364 91.8842L89.8884 91.9397V91.8893C89.9136 91.7683 89.9791 91.7381 90.0598 91.7532C90.1404 91.7683 90.1858 91.8288 90.1606 91.9497L90.0799 92.3227C90.0799 92.4386 89.9943 92.4739 89.9086 92.4537C89.8229 92.4336 89.7826 92.3832 89.8078 92.2622L89.8431 92.106L89.5911 92.0505L89.5608 92.1917C89.5456 92.2447 89.5414 92.3002 89.5485 92.3549C89.5556 92.4096 89.5739 92.4623 89.6022 92.5096C89.6305 92.557 89.6682 92.598 89.7129 92.6302C89.7577 92.6625 89.8086 92.6851 89.8625 92.6969C89.9164 92.7086 89.9721 92.7092 90.0262 92.6985C90.0804 92.6879 90.1317 92.6662 90.1771 92.6349C90.2225 92.6037 90.2611 92.5634 90.2903 92.5166C90.3195 92.4698 90.3388 92.4176 90.3471 92.363C90.3672 92.2635 90.3706 92.1613 90.3571 92.0606Z" fill="#263238"/>
<path d="M88.8804 91.6877H88.9056C88.9056 91.6625 88.9056 91.6373 88.9056 91.602H89.0165L89.1021 91.2139C89.1215 91.1587 89.1289 91.1001 89.1239 91.0418C89.1189 90.9835 89.1016 90.927 89.0732 90.8759C89.0447 90.8249 89.0057 90.7804 88.9588 90.7455C88.9119 90.7106 88.8581 90.6861 88.801 90.6735C88.7439 90.6609 88.6848 90.6606 88.6275 90.6726C88.5703 90.6845 88.5163 90.7085 88.469 90.7429C88.4217 90.7773 88.3823 90.8214 88.3533 90.8722C88.3243 90.9229 88.3064 90.9793 88.3008 91.0375V91.1081C88.3361 91.1383 88.3562 91.1887 88.3915 91.2139C88.4268 91.2391 88.4822 91.2139 88.4671 91.2996C88.452 91.3853 88.4369 91.3701 88.4671 91.3953C88.4973 91.4205 88.5024 91.3953 88.5074 91.4306C88.5136 91.4386 88.5169 91.4483 88.5169 91.4583C88.5169 91.4684 88.5136 91.4781 88.5074 91.4861C88.5074 91.4861 88.4721 91.4861 88.4671 91.5314C88.4621 91.5768 88.4671 91.607 88.4369 91.6171C88.4066 91.6272 88.3411 91.5566 88.2857 91.5617C88.2658 91.5674 88.2479 91.5784 88.2337 91.5935C88.2195 91.6086 88.2096 91.6272 88.205 91.6473C88.1793 91.733 88.1608 91.8207 88.1496 91.9094C88.1312 91.9627 88.1248 92.0195 88.1309 92.0755C88.137 92.1316 88.1553 92.1856 88.1847 92.2338C88.2141 92.2819 88.2537 92.323 88.3008 92.354C88.3479 92.3851 88.4012 92.4054 88.457 92.4134C88.5143 92.4288 88.5743 92.4313 88.6326 92.4209C88.691 92.4104 88.7463 92.3872 88.7947 92.3529C88.8393 92.3144 88.8769 92.2684 88.9056 92.2169C88.9283 92.1911 88.9408 92.158 88.9408 92.1236C88.9408 92.0893 88.9283 92.0562 88.9056 92.0304H88.8804L88.8451 91.9094C88.8451 91.9094 88.8451 91.9094 88.8804 91.8792C88.9157 91.8489 88.8804 91.7834 88.9308 91.7481C88.9812 91.7129 88.8703 91.6977 88.8804 91.6877ZM88.6687 92.0304C88.6435 92.1513 88.578 92.1866 88.4923 92.1665C88.4066 92.1463 88.3663 92.0909 88.3915 91.9699L88.5931 91.0627C88.6183 90.9417 88.6788 90.9065 88.7645 90.9266C88.8501 90.9468 88.8905 91.0022 88.8653 91.1232L88.6687 92.0304Z" fill="#263238"/>
<path d="M89.329 92.3126L89.2735 92.5697L89.0165 92.5142L89.0719 92.2572L89.329 92.3126Z" fill="#263238"/>
<path d="M91.4357 91.864C91.466 91.864 91.466 91.7481 91.476 91.7078C91.4954 91.6526 91.5028 91.594 91.4978 91.5357C91.4928 91.4774 91.4755 91.4209 91.4471 91.3698C91.4186 91.3187 91.3796 91.2743 91.3327 91.2394C91.2858 91.2045 91.232 91.1799 91.1749 91.1674C91.1178 91.1548 91.0587 91.1545 91.0014 91.1665C90.9442 91.1784 90.8902 91.2024 90.8429 91.2368C90.7956 91.2712 90.7562 91.3153 90.7272 91.3661C90.6982 91.4168 90.6803 91.4732 90.6747 91.5314L90.5991 91.8691C90.6646 91.9296 90.5991 92.0253 90.6293 92.0959C90.6596 92.1664 90.6293 92.0959 90.6293 92.1261C90.6293 92.1564 90.5537 92.1715 90.5537 92.2118C90.5537 92.2521 90.5537 92.2118 90.5537 92.2118C90.5537 92.2118 90.5134 92.2723 90.4882 92.3025C90.4723 92.3265 90.4636 92.3544 90.463 92.3832C90.4436 92.4383 90.4362 92.497 90.4412 92.5552C90.4462 92.6135 90.4635 92.6701 90.492 92.7211C90.5204 92.7722 90.5594 92.8167 90.6063 92.8516C90.6532 92.8865 90.707 92.911 90.7641 92.9236C90.8212 92.9361 90.8804 92.9365 90.9376 92.9245C90.9948 92.9125 91.0489 92.8885 91.0962 92.8541C91.1434 92.8197 91.1829 92.7757 91.2119 92.7249C91.2409 92.6741 91.2588 92.6178 91.2644 92.5596L91.3248 92.2824C91.3248 92.2118 91.4156 92.0253 91.3248 91.9699C91.2341 91.9144 91.2845 91.9699 91.2744 91.9346C91.2683 91.923 91.265 91.91 91.265 91.8968C91.265 91.8836 91.2683 91.8706 91.2744 91.859C91.3349 91.8086 91.3803 91.8943 91.4357 91.864ZM91.1283 92.3076C91.1283 92.3378 91.0779 92.3479 91.0527 92.3882C91.0333 92.4383 91.0214 92.4909 91.0174 92.5444C90.9922 92.6654 90.9267 92.6956 90.846 92.6805C90.7654 92.6654 90.715 92.6049 90.7452 92.484C90.7452 92.4487 90.7906 92.3479 90.7805 92.3176C90.7704 92.2874 90.7301 92.3176 90.71 92.2572C90.6948 92.2045 90.6948 92.1486 90.71 92.0959C90.7124 92.0842 90.7124 92.0722 90.71 92.0606C90.71 92.0606 90.6848 92.0152 90.71 91.9951C90.7352 91.9749 90.71 91.9951 90.71 91.9951C90.71 91.9951 90.71 91.9296 90.71 91.8842C90.71 91.8388 90.71 91.8842 90.71 91.8842C90.8712 91.9447 90.8662 91.6977 90.8914 91.5969C90.9166 91.4961 90.9821 91.4407 91.0628 91.4608C91.1434 91.481 91.1888 91.5364 91.1636 91.6524C91.1294 91.755 91.109 91.8618 91.1031 91.9699C91.1241 91.9731 91.1435 91.9833 91.1581 91.9989C91.1727 92.0144 91.1817 92.0343 91.1837 92.0556C91.1787 92.0822 91.1787 92.1096 91.1837 92.1362C91.1837 92.1362 91.1837 92.1816 91.1837 92.2017C91.1837 92.2219 91.1535 92.2017 91.1333 92.2017C91.1194 92.2072 91.107 92.2161 91.0974 92.2275C91.0877 92.2389 91.081 92.2526 91.0779 92.2672L91.1283 92.3076Z" fill="#263238"/>
<path d="M88.6183 88.2L90.3218 88.573" stroke="#263238" stroke-linecap="round" stroke-linejoin="round"/>
<path d="M84.7477 87.3533L87.7717 88.0185" stroke="#263238" stroke-linecap="round" stroke-linejoin="round"/>
<path d="M84.4956 88.5226L86.4914 88.956" stroke="#263238" stroke-linecap="round" stroke-linejoin="round"/>
<path opacity="0.4" d="M67.032 164.753C69.6805 164.06 72.4039 163.694 75.1413 163.664C80.0604 163.543 83.2053 164.475 87.2373 162.48C91.2693 160.484 93.8851 164.077 97.7407 162.081C101.596 160.086 103.386 156.89 105.613 156.961C107.841 157.031 111.157 121.333 112.226 115.189C113.294 109.045 115.567 91.9196 116.348 88.442L111.959 165.841L67.032 164.753Z" fill="white"/>
<path d="M67.2437 149.522L79.5363 164.475L66.5532 163.669L67.2437 149.522Z" fill="#0099CC" stroke="#263238" stroke-linecap="round" stroke-linejoin="round"/>
<path d="M99.8676 119.952L99.6711 125.642C99.6437 126.436 99.4603 127.217 99.1311 127.94C98.802 128.663 98.3336 129.314 97.7528 129.856C97.172 130.398 96.4901 130.82 95.746 131.099C95.002 131.377 94.2104 131.506 93.4164 131.478L87.57 131.272C86.7739 131.245 85.991 131.06 85.2662 130.73C84.5415 130.399 83.8893 129.928 83.347 129.345C82.8047 128.761 82.383 128.076 82.1061 127.329C81.8293 126.582 81.7027 125.788 81.7337 124.992L81.9958 117.583C82.0523 115.981 82.7429 114.466 83.9158 113.373C85.0887 112.279 86.6478 111.696 88.2504 111.752L94.0968 111.953C94.2581 111.953 94.4194 111.953 94.6008 111.989C93.7827 112.776 93.2663 113.825 93.1415 114.953C93.0166 116.081 93.2911 117.217 93.9173 118.164C94.5435 119.111 95.4818 119.808 96.5689 120.135C97.656 120.462 98.8233 120.397 99.8676 119.952Z" fill="#0099CC" stroke="#263238" stroke-linecap="round" stroke-linejoin="round"/>
<path d="M100.921 115.038C100.903 115.585 100.723 116.114 100.404 116.559C100.084 117.004 99.6406 117.344 99.1282 117.536C98.6158 117.728 98.0578 117.764 97.5249 117.64C96.992 117.515 96.508 117.235 96.1343 116.835C95.7605 116.435 95.5137 115.934 95.4251 115.393C95.3366 114.853 95.4102 114.299 95.6366 113.801C95.8631 113.302 96.2323 112.883 96.6974 112.594C97.1626 112.306 97.7028 112.162 98.2499 112.18C98.9825 112.207 99.6749 112.522 100.176 113.058C100.676 113.593 100.944 114.305 100.921 115.038Z" fill="#0099CC" stroke="#263238" stroke-linecap="round" stroke-linejoin="round"/>
<path opacity="0.4" d="M83.3969 125.698L91.9901 118.349C91.9901 118.349 90.9014 114.413 91.9901 113.168H87.8623C86.8682 113.165 85.9104 113.541 85.1845 114.22C84.4585 114.899 84.0192 115.83 83.9563 116.822L83.3969 125.698Z" fill="white"/>
<path opacity="0.4" d="M96.9848 115.189L98.8244 113.173C98.8244 113.173 97.6803 112.402 96.9848 113.173C96.2893 113.944 96.9848 115.189 96.9848 115.189Z" fill="white"/>
<path d="M96.0876 159.093L109.943 159.692" stroke="#263238" stroke-linecap="round" stroke-linejoin="round"/>
<path d="M91.2896 160.489L109.943 161.487" stroke="#263238" stroke-linecap="round" stroke-linejoin="round"/>
<path d="M105.059 164.475H109.943" stroke="#263238" stroke-linecap="round" stroke-linejoin="round"/>
<path opacity="0.2" d="M88.0791 113.586C80.9324 117.024 73.1909 104.983 70.4794 103.325C69.8109 102.903 69.1877 102.413 68.6196 101.863L69.799 82.1066L90.72 82.9483C90.584 85.8917 90.6293 89.1425 91.2845 91.0123C92.6957 95.0897 95.2208 110.154 88.0791 113.586Z" fill="black" fill-opacity="0.7"/>
<path opacity="0.4" d="M80.0706 114.201C80.0706 114.201 85.7859 116.681 88.3765 115.209C90.967 113.738 93.7592 110.925 94.1574 104.681C94.1574 104.681 97.5594 113.476 90.6999 116.112C83.8405 118.747 80.0706 114.201 80.0706 114.201Z" fill="white"/>
<path opacity="0.4" d="M77.8428 117.719C77.8428 117.719 89.4348 120.834 94.3941 115.199C94.3941 115.199 93.7289 118.329 88.3764 119.231C83.0239 120.133 77.8428 117.719 77.8428 117.719Z" fill="white"/>
<path opacity="0.4" d="M96.4858 97.5845C95.6038 96.0171 96.6874 110.104 96.6874 110.104C96.6874 110.104 98.28 100.8 96.4858 97.5845Z" fill="white"/>
<path d="M117.745 84.0319L112.856 167.066L64.8296 165.488L68.6197 101.863L69.799 82.1066L90.7251 82.9483L117.745 84.0319Z" stroke="#263238" stroke-linecap="round" stroke-linejoin="round"/>
<path opacity="0.4" d="M115.315 167.509L113.566 167.066L117.745 91.0274L118.485 96.0472L115.315 167.509Z" fill="white"/>
<path d="M88.0791 113.587C87.4181 113.938 86.6832 114.127 85.9349 114.138C85.1865 114.15 84.4462 113.983 83.7749 113.652C82.6131 113.042 81.6757 112.079 81.0987 110.9C79.1079 107.312 73.7201 99.1368 72.7272 96.7882C71.7343 94.4395 69.5369 87.7968 67.3445 85.0097C65.1521 82.2226 63.9526 78.0293 63.9526 78.0293L63.1562 37.3565C64.3507 43.2382 67.6419 49.9162 67.6419 49.9162C70.5012 51.4041 72.9308 53.6011 74.6979 56.2968C75.2122 56.8446 75.673 57.4404 76.0738 58.0759C79.3296 63.1159 80.9071 72.1879 81.0785 79.2439C81.2801 87.2223 83.8707 90.8359 88.0589 97.7861C92.2471 104.736 90.8007 112.039 88.0791 113.587Z" fill="white"/>
<path opacity="0.4" d="M88.0791 113.586C87.4155 113.929 86.6815 114.113 85.9347 114.125C85.1879 114.136 84.4487 113.974 83.775 113.652C86.0631 113.027 89.067 111.853 88.3765 110.124C87.2929 107.362 84.1227 111.46 82.5301 110.124C80.9374 108.788 75.1515 101.128 78.8257 97.7558C82.4998 94.3841 81.3457 88.7292 78.8257 87.1365C76.3057 85.5439 77.9437 81.7488 78.74 75.7764C79.244 72.1627 77.5153 63.9777 76.094 58.0709C79.3498 63.1109 80.9274 72.1829 81.0987 79.2389C81.3003 87.2172 83.8909 90.8309 88.0791 97.781C92.2673 104.731 90.8007 112.135 88.0791 113.586Z" fill="#0099CC"/>
<path d="M63.1562 37.3312C64.3507 43.2129 67.6419 49.8909 67.6419 49.8909C70.5012 51.3788 72.9308 53.5758 74.6979 56.2716C78.8861 60.6564 80.8819 71.2252 81.0785 79.1985C81.2751 87.1718 83.8707 90.7905 88.0589 97.7407C92.2471 104.691 91.0829 111.938 88.0589 113.586C85.9522 114.741 83.0743 114.489 81.0785 110.9C79.0827 107.312 73.6999 99.1368 72.7071 96.7881C71.7142 94.4395 69.5167 87.7968 67.3243 85.0096C65.1319 82.2225 63.9324 78.0292 63.9324 78.0292" stroke="#263238" stroke-linecap="round" stroke-linejoin="round"/>
<path d="M76.104 96.0473C76.104 96.0473 79.3598 95.755 80.8517 94.5353" stroke="#263238" stroke-linecap="round" stroke-linejoin="round"/>
<path d="M62.7581 78.8306C62.7581 78.8306 62.123 80.3426 65.4494 81.8546" stroke="#263238" stroke-linecap="round" stroke-linejoin="round"/>
</svg>
