<svg width="32" height="32" viewBox="0 0 32 32" fill="none" xmlns="http://www.w3.org/2000/svg">
<rect width="32" height="32" rx="10" fill="#EEEEEE"/>
<g clip-path="url(#clip0)">
<path d="M6 20.6371C6 20.9698 6.27218 21.242 6.60484 21.242H24.2258C24.5585 21.242 24.8306 20.9698 24.8306 20.6371V20.4355L16.0202 19.1066L6 20.0323V20.6371Z" fill="#A2ABB8"/>
<path d="M6.80645 7.12903H6.60484C6.27218 7.12903 6 7.40121 6 7.73387V9.58871L16.0202 10.5144L6.80645 7.12903Z" fill="#A2ABB8"/>
<path d="M6.8064 9.66322L16.0201 10.5144L24.8306 9.58871V7.73387C24.8306 7.40121 24.5584 7.12903 24.2257 7.12903H6.8064V9.66322Z" fill="#C8D2DC"/>
<path d="M23.6009 8.68142C23.7791 8.68142 23.9235 8.53699 23.9235 8.35884C23.9235 8.18068 23.7791 8.03625 23.6009 8.03625C23.4227 8.03625 23.2783 8.18068 23.2783 8.35884C23.2783 8.53699 23.4227 8.68142 23.6009 8.68142Z" fill="#DE5791"/>
<path d="M22.3912 8.68142C22.5694 8.68142 22.7138 8.53699 22.7138 8.35884C22.7138 8.18068 22.5694 8.03625 22.3912 8.03625C22.213 8.03625 22.0686 8.18068 22.0686 8.35884C22.0686 8.53699 22.213 8.68142 22.3912 8.68142Z" fill="#A2ABB8"/>
<path d="M21.1812 8.68142C21.3594 8.68142 21.5038 8.53699 21.5038 8.35884C21.5038 8.18068 21.3594 8.03625 21.1812 8.03625C21.0031 8.03625 20.8586 8.18068 20.8586 8.35884C20.8586 8.53699 21.0031 8.68142 21.1812 8.68142Z" fill="#81A9C8"/>
<path d="M6.84194 20.0323H6V9.58875H6.80645L6.84194 20.0323Z" fill="#E9EDF1"/>
<path d="M6.81982 19.9566C6.87817 20.2293 7.12168 20.4355 7.4112 20.4355H24.8305V20.0323L16.0201 19.1066L6.81982 19.9566Z" fill="#C8D2DC"/>
<path d="M6.8064 19.8307C6.8064 19.9014 6.81934 19.9691 6.84188 20.0323H24.8306V9.58875H6.8064V19.8307Z" fill="#F7F9FA"/>
<path d="M17.4351 11.5645H17.2335C16.9008 11.5645 16.6287 11.8367 16.6287 12.1694V20.0323H21.2218L17.4351 11.5645Z" fill="#E9EDF1"/>
<path d="M23.6392 9.58875H24.8307V20.0323H23.6392V9.58875Z" fill="#E9EDF1"/>
<path d="M17.8384 12.411L16.6287 12.0081H8.35533C8.02267 12.0081 7.75049 12.2802 7.75049 12.6129V15.3548C7.75049 15.6875 8.02267 15.9597 8.35533 15.9597H16.6287L17.8384 15.5568V12.411Z" fill="#9CD169"/>
<path d="M16.6287 12.0081H18.2416V15.9597H16.6287V12.0081Z" fill="#7DC03A"/>
<path d="M17.4351 24.2661C17.4351 24.5988 17.7072 24.871 18.0399 24.871H25.3951C25.7278 24.871 26 24.5988 26 24.2661V24.0645L21.625 22.7357L17.4351 23.6613V24.2661Z" fill="#4E5A61"/>
<path d="M18.2415 10.7581H18.0399C17.7072 10.7581 17.4351 11.0302 17.4351 11.3629V12.0081L22.0282 12.9337L18.2415 10.7581Z" fill="#4E5A61"/>
<path d="M18.2415 12.0081L22.0282 12.9337L25.9999 12.0081V11.3629C25.9999 11.0302 25.7278 10.7581 25.3951 10.7581H18.2415V12.0081Z" fill="#7E8B96"/>
<path d="M18.277 23.6613H17.4351V12.0081H18.2415L18.277 23.6613Z" fill="#E9EDF1"/>
<path d="M18.2549 23.5856C18.3132 23.8583 18.5567 24.0645 18.8463 24.0645H25.9999V23.6613L21.6249 22.7357L18.2549 23.5856Z" fill="#7E8B96"/>
<path d="M18.2415 23.4597C18.2415 23.5304 18.2544 23.5981 18.2769 23.6613H25.9999V12.0081H18.2415V23.4597Z" fill="#F7F9FA"/>
<path d="M21.7377 21.2419C23.4459 21.2419 24.8307 19.8572 24.8307 18.149C24.8307 16.4408 23.4459 15.056 21.7377 15.056C20.0295 15.056 18.6448 16.4408 18.6448 18.149C18.6448 19.8572 20.0295 21.2419 21.7377 21.2419Z" fill="#9CD169"/>
<path d="M24.2649 16.367L21.2696 19.3624L19.8119 17.9047C19.6938 17.7866 19.5023 17.7866 19.3842 17.9047C19.2661 18.0229 19.2661 18.2143 19.3842 18.3324L21.0557 20.0039C21.1125 20.0607 21.1893 20.0925 21.2696 20.0925C21.3498 20.0925 21.4267 20.0607 21.4835 20.0039L24.5735 16.9139C24.4891 16.7204 24.3853 16.5374 24.2649 16.367Z" fill="#7DC03A"/>
<path d="M21.7113 19.4017C21.5932 19.5198 21.4017 19.5198 21.2836 19.4017L19.8029 17.921C19.6848 17.8029 19.6848 17.6114 19.8029 17.4933C19.921 17.3752 20.1125 17.3752 20.2306 17.4933L21.4975 18.7602L24.6168 15.6409C24.7349 15.5228 24.9264 15.5228 25.0444 15.6409C25.1625 15.759 25.1625 15.9505 25.0444 16.0686L21.7113 19.4017Z" fill="#EBF7E0"/>
<path d="M15.1259 18.7379C15.0485 18.7379 14.9711 18.7084 14.9121 18.6493C14.794 18.5312 14.794 18.3398 14.9121 18.2216L15.0571 18.0766H11.5009C11.3339 18.0766 11.1985 17.9412 11.1985 17.7742C11.1985 17.6071 11.3339 17.4718 11.5009 17.4718H15.0571L14.9121 17.3267C14.794 17.2086 14.794 17.0171 14.9121 16.899C15.0302 16.781 15.2217 16.781 15.3397 16.899L16.001 17.5603C16.1191 17.6785 16.1191 17.8699 16.001 17.988L15.3397 18.6493C15.2807 18.7084 15.2033 18.7379 15.1259 18.7379Z" fill="#A2ABB8"/>
<path d="M15.4156 15.1352C15.2486 15.1352 15.1132 14.9999 15.1132 14.8328V14.5077L14.8316 14.6702C14.687 14.7537 14.502 14.7042 14.4185 14.5596C14.335 14.4149 14.3845 14.23 14.5292 14.1465L14.8108 13.9838L14.5292 13.8212C14.3845 13.7377 14.335 13.5528 14.4185 13.4081C14.502 13.2635 14.6869 13.214 14.8316 13.2975L15.1132 13.46V13.1349C15.1132 12.9678 15.2486 12.8325 15.4156 12.8325C15.5826 12.8325 15.718 12.9678 15.718 13.1349V13.46L15.9996 13.2975C16.1442 13.214 16.3292 13.2635 16.4127 13.4081C16.4962 13.5528 16.4466 13.7377 16.302 13.8212L16.0204 13.9838L16.302 14.1464C16.4466 14.2299 16.4962 14.4149 16.4127 14.5595C16.3292 14.7042 16.1442 14.7536 15.9996 14.6702L15.718 14.5076V14.8328C15.718 14.9998 15.5826 15.1352 15.4156 15.1352Z" fill="#518F60"/>
<path d="M12.5928 15.1352C12.4258 15.1352 12.2904 14.9999 12.2904 14.8328V14.5077L12.0088 14.6702C11.8642 14.7537 11.6793 14.7042 11.5957 14.5596C11.5122 14.4149 11.5618 14.23 11.7064 14.1465L11.988 13.9838L11.7064 13.8212C11.5618 13.7377 11.5122 13.5528 11.5957 13.4081C11.6793 13.2635 11.8642 13.214 12.0088 13.2975L12.2904 13.46V13.1349C12.2904 12.9678 12.4258 12.8325 12.5928 12.8325C12.7599 12.8325 12.8953 12.9678 12.8953 13.1349V13.46L13.1768 13.2975C13.3215 13.214 13.5064 13.2635 13.5899 13.4081C13.6734 13.5528 13.6239 13.7377 13.4793 13.8212L13.1977 13.9838L13.4793 14.1464C13.6239 14.2299 13.6734 14.4149 13.5899 14.5595C13.5064 14.7042 13.3214 14.7536 13.1768 14.6702L12.8953 14.5076V14.8328C12.8953 14.9998 12.7599 15.1352 12.5928 15.1352Z" fill="#518F60"/>
<path d="M9.77033 15.1352C9.60331 15.1352 9.46791 14.9999 9.46791 14.8328V14.5077L9.18634 14.6702C9.0417 14.7537 8.85674 14.7042 8.77323 14.5596C8.68972 14.4149 8.73928 14.23 8.88392 14.1465L9.16549 13.9838L8.88392 13.8212C8.73928 13.7377 8.68972 13.5528 8.77323 13.4081C8.8567 13.2635 9.04166 13.214 9.18634 13.2975L9.46791 13.46V13.1349C9.46791 12.9678 9.60331 12.8325 9.77033 12.8325C9.93735 12.8325 10.0728 12.9678 10.0728 13.1349V13.46L10.3543 13.2975C10.499 13.214 10.6839 13.2635 10.7674 13.4081C10.8509 13.5528 10.8014 13.7377 10.6567 13.8212L10.3752 13.9838L10.6567 14.1464C10.8014 14.2299 10.8509 14.4149 10.7674 14.5595C10.6839 14.7042 10.4989 14.7536 10.3543 14.6702L10.0728 14.5076V14.8328C10.0728 14.9998 9.93735 15.1352 9.77033 15.1352Z" fill="#518F60"/>
</g>
<defs>
<clipPath id="clip0">
<rect width="20" height="20" fill="white" transform="translate(6 6)"/>
</clipPath>
</defs>
</svg>
