<svg width="32" height="32" viewBox="0 0 32 32" fill="none" xmlns="http://www.w3.org/2000/svg">
<rect width="32" height="32" rx="10" fill="#EEEEEE"/>
<g clip-path="url(#clip0)">
<path d="M22.896 12.1415L15.6743 7.33752L8.45264 12.1415V24.5237H22.8993V12.1415H22.896Z" fill="#E1EFFB"/>
<path d="M22.8962 12.1415L15.6745 7.33752L14.1924 8.3235L21.0901 12.9119H21.0933V24.5237H22.8995V12.1415H22.8962Z" fill="#CCDFED"/>
<path d="M7.10228 14.0703L15.554 8.44814C15.628 8.39892 15.7243 8.39892 15.7982 8.44814L24.2499 14.0703C24.4879 14.2286 24.7977 14.2286 25.0357 14.0703C25.4577 13.7896 25.4577 13.1697 25.0357 12.889L15.7982 6.74416C15.7243 6.69494 15.628 6.69494 15.554 6.74416L6.31649 12.889C5.8945 13.1697 5.8945 13.7896 6.31649 14.0703C6.5545 14.2287 6.86427 14.2287 7.10228 14.0703Z" fill="#FF4C4C"/>
<path d="M15.6761 13.4342C16.5383 13.4342 17.2372 12.7352 17.2372 11.8731C17.2372 11.0109 16.5383 10.312 15.6761 10.312C14.8139 10.312 14.115 11.0109 14.115 11.8731C14.115 12.7352 14.8139 13.4342 15.6761 13.4342Z" fill="#FFB125"/>
<path d="M17.2372 11.8732C17.2372 11.772 17.2272 11.6732 17.2088 11.5774H15.9707V10.3402C15.8752 10.322 15.7768 10.3121 15.6761 10.3121C15.5753 10.3121 15.4769 10.322 15.3815 10.3402V11.5774H14.1433C14.125 11.6732 14.115 11.772 14.115 11.8732C14.115 11.9735 14.1248 12.0715 14.1429 12.1665H15.3816V13.4062C15.477 13.4244 15.5754 13.4343 15.6761 13.4343C15.7769 13.4343 15.8753 13.4244 15.9707 13.4062V12.1665H17.2093C17.2273 12.0715 17.2372 11.9735 17.2372 11.8732Z" fill="#FF901D"/>
<path d="M18.1689 17.7715H13.1833V25.2926H18.1689V17.7715Z" fill="#FFB125"/>
<path d="M18.1691 17.7715H15.6763V25.2926H18.1691V17.7715Z" fill="#FF901D"/>
<path d="M24.3231 24.1045H7.02948C6.70132 24.1045 6.4353 24.3705 6.4353 24.6986C6.4353 25.0268 6.70132 25.2928 7.02948 25.2928H24.3231C24.6512 25.2928 24.9173 25.0268 24.9173 24.6986C24.9173 24.3705 24.6512 24.1045 24.3231 24.1045Z" fill="#2D5871"/>
<path d="M25.3109 13.7172C25.3155 13.7042 25.3201 13.6911 25.324 13.6779C25.3261 13.6705 25.3276 13.6629 25.3295 13.6555C25.3329 13.6422 25.3364 13.6289 25.339 13.6155C25.3405 13.608 25.3413 13.6004 25.3424 13.5929C25.3449 13.5756 25.3476 13.5583 25.3489 13.5408C25.3501 13.5234 25.3517 13.5061 25.3519 13.4888C25.3519 13.4815 25.3514 13.4743 25.3512 13.467C25.351 13.4524 25.3507 13.4379 25.3496 13.4234C25.349 13.4163 25.3479 13.4093 25.3472 13.4022C25.3456 13.3875 25.3439 13.3728 25.3414 13.3582C25.3403 13.3515 25.3387 13.3448 25.3373 13.3381C25.3344 13.3233 25.3312 13.3085 25.3272 13.2938C25.3255 13.2874 25.3235 13.2811 25.3215 13.2747C25.3171 13.2599 25.3124 13.2453 25.3071 13.2308C25.3048 13.2247 25.3023 13.2187 25.2998 13.2127C25.294 13.1981 25.2877 13.1837 25.2808 13.1695C25.2781 13.1638 25.2751 13.1581 25.2722 13.1524C25.2648 13.1383 25.257 13.1243 25.2487 13.1106C25.247 13.1078 25.2457 13.1049 25.244 13.1022C25.2439 13.1024 25.2438 13.1025 25.2437 13.1027C25.1924 13.0209 25.1235 12.9474 25.0356 12.889L24.1127 12.275L24.0094 12.4338C23.8287 12.7111 23.4565 12.7878 23.181 12.6045L15.7983 7.69341C15.7243 7.64419 15.628 7.64419 15.5541 7.69341L7.10233 13.3156C6.86432 13.4739 6.55455 13.4739 6.31655 13.3156C6.22877 13.2572 6.15952 13.184 6.10823 13.1023C5.91295 13.4134 5.98245 13.8488 6.31737 14.0709C6.55893 14.2311 6.87596 14.2209 7.11729 14.0603L15.5541 8.44813C15.628 8.39892 15.7243 8.39892 15.7983 8.44813L24.25 14.0703C24.488 14.2286 24.7978 14.2286 25.0358 14.0703C25.054 14.0581 25.0712 14.0451 25.0879 14.0317C25.0937 14.0271 25.0993 14.0223 25.1049 14.0175C25.1155 14.0084 25.1257 13.9991 25.1356 13.9895C25.1416 13.9838 25.1478 13.9782 25.1535 13.9723C25.1655 13.9599 25.1769 13.9473 25.1878 13.9343L25.1884 13.9334C25.2242 13.8905 25.254 13.8442 25.2781 13.7957L25.2796 13.7933C25.2822 13.788 25.2842 13.7825 25.2867 13.7771C25.2924 13.7645 25.2982 13.752 25.3032 13.7391C25.306 13.7318 25.3083 13.7245 25.3109 13.7172Z" fill="#F33939"/>
<path d="M24.9131 24.6327C24.9126 24.6283 24.9118 24.6241 24.9111 24.6198C24.9088 24.6019 24.9058 24.5842 24.9018 24.5669C24.9011 24.5638 24.9002 24.5608 24.8995 24.5577C24.8949 24.5387 24.8894 24.5201 24.8829 24.5019C24.8825 24.5008 24.8821 24.4996 24.8817 24.4984C24.8745 24.4784 24.8663 24.459 24.8572 24.4401V24.44C24.761 24.2416 24.5582 24.1044 24.3228 24.1044H23.1108V24.3696C23.1108 24.5939 22.929 24.7757 22.7047 24.7757H7.02923C6.79388 24.7757 6.59111 24.6385 6.4949 24.44C6.44701 24.5388 6.4247 24.6523 6.43966 24.7726C6.47708 25.0729 6.74255 25.2928 7.04517 25.2928H24.3228C24.651 25.2928 24.917 25.0267 24.917 24.6986C24.917 24.6763 24.9156 24.6544 24.9131 24.6327Z" fill="#1D4859"/>
<path d="M19.5089 25.2928H17.9199V14.1949C17.9199 13.7562 18.2756 13.4005 18.7144 13.4005C19.1532 13.4005 19.5089 13.7562 19.5089 14.1949V25.2928Z" fill="#FF6D3A"/>
<path d="M18.7144 13.4005C18.5695 13.4005 18.4341 13.4399 18.3171 13.5076C18.5544 13.645 18.7144 13.901 18.7144 14.1949V25.2928H19.5089V14.1949C19.5089 13.7562 19.1531 13.4005 18.7144 13.4005Z" fill="#ED5729"/>
<path d="M25.5009 21.3538H11.9278C11.6521 21.3538 11.4287 21.1304 11.4287 20.8547V15.6703C11.4287 15.3946 11.6521 15.1712 11.9278 15.1712H25.5009C25.7765 15.1712 26 15.3946 26 15.6703V20.8547C26 21.1303 25.7765 21.3538 25.5009 21.3538Z" fill="#61AFF6"/>
<path d="M25.5009 15.1712H24.1938V20.0953C24.1938 20.371 23.9703 20.5944 23.6947 20.5944H11.4287V20.8547C11.4287 21.1303 11.6522 21.3538 11.9278 21.3538H25.5009C25.7765 21.3538 26 21.1303 26 20.8547V15.6703C26 15.3946 25.7765 15.1712 25.5009 15.1712Z" fill="#55A2F0"/>
<path d="M15.382 18.4467C15.7021 18.3485 15.9412 18.0839 15.9412 17.593C15.9412 16.9144 15.4887 16.701 14.9296 16.701H14.0845C13.9778 16.701 13.9053 16.7821 13.9053 16.8717V19.646C13.9053 19.7613 14.0461 19.821 14.1827 19.821C14.3235 19.821 14.4601 19.7613 14.4601 19.646V18.532H14.8187L15.4248 19.7101C15.4675 19.7954 15.54 19.8424 15.6168 19.8424C15.779 19.8424 15.9625 19.693 15.9625 19.5522C15.9625 19.5351 15.9583 19.5052 15.9412 19.4838L15.382 18.4467ZM14.9296 18.0967H14.4601V17.1876H14.9296C15.207 17.1876 15.3862 17.3071 15.3862 17.6443C15.3863 17.9815 15.207 18.0967 14.9296 18.0967Z" fill="white"/>
<path d="M18.1861 17.1876C18.2971 17.1876 18.3611 17.0723 18.3611 16.94C18.3611 16.8248 18.3056 16.701 18.1861 16.701H16.6666C16.5428 16.701 16.4233 16.7608 16.4233 16.876V19.6461C16.4233 19.7613 16.5429 19.8211 16.6666 19.8211H18.1861C18.3056 19.8211 18.3611 19.6972 18.3611 19.582C18.3611 19.4497 18.2971 19.3345 18.1861 19.3345H16.9782V18.4766H17.627C17.7465 18.4766 17.802 18.3613 17.802 18.2632C17.802 18.1479 17.7379 18.0412 17.627 18.0412H16.9782V17.1876H18.1861Z" fill="white"/>
<path d="M20.5634 16.701C20.4225 16.701 20.286 16.7522 20.286 16.8717V18.5875L19.4622 16.9955C19.3299 16.7437 19.2488 16.701 19.0482 16.701C18.9074 16.701 18.7708 16.7565 18.7708 16.876V19.6461C18.7708 19.7613 18.9074 19.8211 19.0482 19.8211C19.1848 19.8211 19.3256 19.7613 19.3256 19.6461V17.9302L20.2433 19.6461C20.3159 19.7784 20.4311 19.8211 20.5634 19.8211C20.7 19.8211 20.8408 19.7613 20.8408 19.6461V16.8717C20.8408 16.7522 20.7 16.701 20.5634 16.701Z" fill="white"/>
<path d="M23.2136 16.701H21.4082C21.2886 16.701 21.2332 16.8291 21.2332 16.9486C21.2332 17.0852 21.2972 17.2004 21.4082 17.2004H22.0356V19.6461C22.0356 19.7613 22.1722 19.8211 22.313 19.8211C22.4496 19.8211 22.5905 19.7613 22.5905 19.6461V17.2004H23.2136C23.3246 17.2004 23.3886 17.0809 23.3886 16.9486C23.3886 16.8291 23.3332 16.701 23.2136 16.701Z" fill="white"/>
</g>
<defs>
<clipPath id="clip0">
<rect width="20" height="20" fill="white" transform="translate(6 6)"/>
</clipPath>
</defs>
</svg>
