<svg width="32" height="32" viewBox="0 0 32 32" fill="none" xmlns="http://www.w3.org/2000/svg">
<rect width="32" height="32" rx="10" fill="#EEEEEE"/>
<path d="M26 9.55469V11.3125C26 11.6406 25.7423 11.8984 25.4141 11.8984H6.58594C6.25772 11.8984 6 11.6406 6 11.3125V9.55469L8.96875 8.38281H24.2031L26 9.55469Z" fill="#384949"/>
<path d="M26 9.55469V11.3125C26 11.6406 25.7423 11.8984 25.4141 11.8984H16V8.38281H24.2031L26 9.55469Z" fill="#293939"/>
<path d="M21.8594 8.38281H10.1406C9.81241 8.38281 9.55469 8.64053 9.55469 8.96875V25.4141C9.55469 25.7421 9.81241 26 10.1406 26H21.8594C22.1876 26 22.4453 25.7421 22.4453 25.4141V8.96875C22.4453 8.64053 22.1876 8.38281 21.8594 8.38281Z" fill="#70DA40"/>
<path d="M22.4453 8.96875V25.4141C22.4453 25.7421 22.1876 26 21.8594 26H16V8.38281H21.8594C22.1876 8.38281 22.4453 8.64053 22.4453 8.96875Z" fill="#1FBF66"/>
<path d="M19.7148 11.8281C19.3749 11.7109 19.1172 11.4532 19 11.1132C18.9179 10.8788 18.6953 10.7266 18.4492 10.7266H13.5508C13.3047 10.7266 13.0821 10.8788 13 11.1132C12.8828 11.4532 12.6251 11.7109 12.2851 11.8281C12.0507 11.9102 11.8984 12.1328 11.8984 12.3789V22.0039C11.8984 22.25 12.0507 22.4726 12.2851 22.5547C12.6249 22.6719 12.8828 22.9296 13 23.2696C13.0821 23.504 13.3047 23.6562 13.5508 23.6562H18.4492C18.6953 23.6562 18.9179 23.504 19 23.2696C19.1172 22.9298 19.3749 22.6719 19.7149 22.5547C19.9493 22.4726 20.1016 22.25 20.1016 22.0039V12.3789C20.1016 12.1328 19.9493 11.9102 19.7148 11.8281Z" fill="#B1EFAF"/>
<path d="M20.1016 12.3789V22.0039C20.1016 22.25 19.9493 22.4726 19.7148 22.5547C19.3749 22.6719 19.1172 22.9296 19 23.2696C18.9179 23.504 18.6953 23.6562 18.4492 23.6562H16V10.7266H18.4492C18.6953 10.7266 18.9179 10.8788 19 11.1132C19.1172 11.4532 19.3749 11.7109 19.7149 11.8281C19.9493 11.9102 20.1016 12.1328 20.1016 12.3789Z" fill="#91EB90"/>
<path d="M25.4141 6H6.58594C6.25772 6 6 6.25772 6 6.58594V9.55469H26V6.58594C26 6.25772 25.7423 6 25.4141 6Z" fill="#4A696F"/>
<path d="M26 6.58594V9.55469H16V6H25.4141C25.7423 6 26 6.25772 26 6.58594Z" fill="#3E5959"/>
<path d="M16 15.4141C15.0273 15.4141 14.2422 16.1991 14.2422 17.1719C14.2422 18.1445 15.0273 18.9297 16 18.9297C16.9727 18.9297 17.7578 18.1445 17.7578 17.1719C17.7578 16.1991 16.9727 15.4141 16 15.4141Z" fill="#70DA40"/>
<path d="M16.5859 13.6562C16.5859 13.9843 16.3282 14.2422 16 14.2422C15.6718 14.2422 15.4141 13.9843 15.4141 13.6562C15.4141 13.328 15.6718 13.0703 16 13.0703C16.3282 13.0703 16.5859 13.328 16.5859 13.6562Z" fill="#70DA40"/>
<path d="M16.5859 20.7266C16.5859 21.0546 16.3282 21.3125 16 21.3125C15.6718 21.3125 15.4141 21.0546 15.4141 20.7266C15.4141 20.3983 15.6718 20.1406 16 20.1406C16.3282 20.1406 16.5859 20.3983 16.5859 20.7266Z" fill="#70DA40"/>
<path d="M16.5859 20.7266C16.5859 21.0546 16.3282 21.3125 16 21.3125V20.1406C16.3282 20.1406 16.5859 20.3983 16.5859 20.7266Z" fill="#1FBF66"/>
<path d="M16 14.2422V13.0703C16.3282 13.0703 16.5859 13.328 16.5859 13.6562C16.5859 13.9843 16.3282 14.2422 16 14.2422Z" fill="#1FBF66"/>
<path d="M17.7578 17.1719C17.7578 18.1445 16.9727 18.9297 16 18.9297V15.4141C16.9727 15.4141 17.7578 16.1991 17.7578 17.1719Z" fill="#1FBF66"/>
</svg>
