<svg width="32" height="32" viewBox="0 0 32 32" fill="none" xmlns="http://www.w3.org/2000/svg">
<rect width="32" height="32" rx="10" fill="#EEEEEE"/>
<g clip-path="url(#clip0)">
<path d="M20.5022 7.58359C20.5022 6.7109 21.2096 6.00348 22.0823 6.00348H9.78319C9.08921 6.00348 8.52661 6.56608 8.52661 7.26006V21.5693H20.5021V9.96861V9.16375V7.58359H20.5022Z" fill="#FFE07D"/>
<path d="M21.1283 6.00348C20.2556 6.00348 19.5482 6.71093 19.5482 7.5836V13.8498C19.5482 14.2185 19.306 14.5465 18.9512 14.6465C16.3345 15.3844 14.4165 17.7889 14.4165 20.6416C14.4165 21.3916 14.5491 22.1106 14.7921 22.7765H19.5482H20.5021V14.4148V9.96857V7.5836C20.5021 6.7109 21.2096 6.00348 22.0823 6.00348H21.1283Z" fill="#FFD064"/>
<path d="M18.5924 8.72877H10.6758C10.5092 8.72877 10.374 8.59368 10.374 8.42695C10.374 8.26022 10.5091 8.12512 10.6758 8.12512H18.5924C18.7591 8.12512 18.8942 8.26022 18.8942 8.42695C18.8942 8.59368 18.7591 8.72877 18.5924 8.72877Z" fill="#2B4D66"/>
<path d="M18.5924 11.7383H10.6758C10.5092 11.7383 10.374 11.6032 10.374 11.4365C10.374 11.2698 10.5091 11.1347 10.6758 11.1347H18.5924C18.7591 11.1347 18.8942 11.2698 18.8942 11.4365C18.8942 11.6032 18.7591 11.7383 18.5924 11.7383Z" fill="#2B4D66"/>
<path d="M18.5924 14.748H10.6758C10.5092 14.748 10.374 14.6129 10.374 14.4461C10.374 14.2794 10.5091 14.1443 10.6758 14.1443H18.5924C18.7591 14.1443 18.8942 14.2794 18.8942 14.4461C18.8942 14.6129 18.7591 14.748 18.5924 14.748Z" fill="#2B4D66"/>
<path d="M18.5924 17.7575H10.6758C10.5092 17.7575 10.374 17.6225 10.374 17.4557C10.374 17.289 10.5091 17.1539 10.6758 17.1539H18.5924C18.7591 17.1539 18.8942 17.289 18.8942 17.4557C18.8942 17.6225 18.7591 17.7575 18.5924 17.7575Z" fill="#2B4D66"/>
<path d="M19.0584 22.7766H8.23403C7.00022 22.7766 6 21.7764 6 20.5425V20.1469C6 20.0423 6.08479 19.9576 6.18934 19.9576H19.0584V22.7766Z" fill="#EAB14D"/>
<path d="M14.4165 20.6416C14.4165 21.3916 14.5491 22.1106 14.7921 22.7765H19.0584V19.9575H14.4541C14.4295 20.1822 14.4165 20.4104 14.4165 20.6416Z" fill="#E49542"/>
<path d="M20.6452 25.9966C23.6026 25.9966 26.0001 23.5991 26.0001 20.6417C26.0001 17.6842 23.6026 15.2868 20.6452 15.2868C17.6877 15.2868 15.2903 17.6842 15.2903 20.6417C15.2903 23.5991 17.6877 25.9966 20.6452 25.9966Z" fill="#DD636E"/>
<path d="M20.6452 15.2868C20.5032 15.2868 20.3626 15.2924 20.2234 15.3033C22.9836 15.5183 25.1565 17.8262 25.1565 20.6417C25.1565 23.4571 22.9836 25.765 20.2234 25.9801C20.3626 25.9909 20.5032 25.9966 20.6452 25.9966C23.6026 25.9966 26.0001 23.5991 26.0001 20.6417C26.0001 17.6842 23.6026 15.2868 20.6452 15.2868Z" fill="#DA4A54"/>
<path d="M20.6453 24.6358C22.8512 24.6358 24.6394 22.8475 24.6394 20.6416C24.6394 18.4357 22.8512 16.6475 20.6453 16.6475C18.4394 16.6475 16.6511 18.4357 16.6511 20.6416C16.6511 22.8475 18.4394 24.6358 20.6453 24.6358Z" fill="#F4FBFF"/>
<path d="M20.6451 16.6475C20.46 16.6475 20.278 16.6604 20.0996 16.6847C22.0474 16.9508 23.5483 18.6208 23.5483 20.6416C23.5483 22.6625 22.0474 24.3325 20.0996 24.5986C20.278 24.6229 20.46 24.6358 20.6451 24.6358C22.851 24.6358 24.6392 22.8475 24.6392 20.6416C24.6392 18.4357 22.851 16.6475 20.6451 16.6475Z" fill="#DAF1F4"/>
<path d="M20.6451 18.1785C20.4784 18.1785 20.3433 18.0434 20.3433 17.8767V17.7384C20.3433 17.5717 20.4784 17.4366 20.6451 17.4366C20.8118 17.4366 20.9469 17.5717 20.9469 17.7384V17.8767C20.9469 18.0434 20.8118 18.1785 20.6451 18.1785Z" fill="#365E7D"/>
<path d="M22.6002 18.9883C22.5229 18.9883 22.4457 18.9589 22.3867 18.8999C22.2689 18.782 22.2689 18.5909 22.3868 18.4731L22.4846 18.3754C22.6024 18.2576 22.7935 18.2575 22.9113 18.3755C23.0292 18.4934 23.0291 18.6845 22.9112 18.8023L22.8135 18.9C22.7546 18.9589 22.6774 18.9883 22.6002 18.9883Z" fill="#365E7D"/>
<path d="M23.5482 20.9434H23.41C23.2433 20.9434 23.1082 20.8083 23.1082 20.6416C23.1082 20.4749 23.2432 20.3398 23.41 20.3398H23.5482C23.7149 20.3398 23.8501 20.4749 23.8501 20.6416C23.8501 20.8083 23.7149 20.9434 23.5482 20.9434Z" fill="#365E7D"/>
<path d="M17.88 20.9434H17.7418C17.5751 20.9434 17.4399 20.8083 17.4399 20.6416C17.4399 20.4749 17.575 20.3398 17.7418 20.3398H17.88C18.0467 20.3398 18.1818 20.4749 18.1818 20.6416C18.1818 20.8083 18.0467 20.9434 17.88 20.9434Z" fill="#365E7D"/>
<path d="M22.6979 22.9963C22.6207 22.9963 22.5435 22.9668 22.4846 22.908L22.3868 22.8102C22.2689 22.6924 22.2689 22.5013 22.3867 22.3834C22.5045 22.2655 22.6956 22.2654 22.8135 22.3833L22.9112 22.481C23.0291 22.5989 23.0292 22.79 22.9113 22.9078C22.8524 22.9668 22.7752 22.9963 22.6979 22.9963Z" fill="#365E7D"/>
<path d="M20.6451 23.8466C20.4784 23.8466 20.3433 23.7115 20.3433 23.5448V23.4066C20.3433 23.2399 20.4784 23.1047 20.6451 23.1047C20.8118 23.1047 20.9469 23.2398 20.9469 23.4066V23.5448C20.9469 23.7115 20.8118 23.8466 20.6451 23.8466Z" fill="#365E7D"/>
<path d="M18.5921 22.9963C18.5149 22.9963 18.4377 22.9668 18.3787 22.9079C18.2608 22.79 18.2608 22.599 18.3787 22.4811L18.4764 22.3834C18.5943 22.2656 18.7854 22.2656 18.9032 22.3834C19.0211 22.5013 19.0211 22.6923 18.9032 22.8102L18.8055 22.9079C18.7466 22.9668 18.6693 22.9963 18.5921 22.9963Z" fill="#365E7D"/>
<path d="M18.6898 18.9883C18.6126 18.9883 18.5354 18.9588 18.4764 18.8999L18.3787 18.8022C18.2608 18.6843 18.2608 18.4933 18.3787 18.3754C18.4966 18.2576 18.6876 18.2576 18.8055 18.3754L18.9032 18.4731C19.0211 18.591 19.0211 18.7821 18.9032 18.8999C18.8443 18.9589 18.767 18.9883 18.6898 18.9883Z" fill="#365E7D"/>
<path d="M21.4677 20.9434H20.6451C20.4784 20.9434 20.3433 20.8083 20.3433 20.6416V19.0487C20.3433 18.882 20.4784 18.7469 20.6451 18.7469C20.8118 18.7469 20.9469 18.8819 20.9469 19.0487V20.3398H21.4677C21.6344 20.3398 21.7695 20.4749 21.7695 20.6416C21.7695 20.8083 21.6344 20.9434 21.4677 20.9434Z" fill="#2B4D66"/>
<path d="M23.381 9.96857H20.502V7.58359C20.502 6.7109 21.2094 6.00348 22.0821 6.00348C22.9548 6.00348 23.6622 6.71093 23.6622 7.58359V9.68729C23.6623 9.84266 23.5363 9.96857 23.381 9.96857Z" fill="#EAB14D"/>
<path d="M22.5968 6.08971C22.4354 6.0341 22.2624 6.00348 22.0821 6.00348C21.2094 6.00348 20.502 6.71093 20.502 7.58359V9.96857H21.5315V7.58359C21.5314 6.89122 21.977 6.30327 22.5968 6.08971Z" fill="#E49542"/>
</g>
<defs>
<clipPath id="clip0">
<rect width="20" height="20" fill="white" transform="translate(6 6)"/>
</clipPath>
</defs>
</svg>
