<svg xmlns="http://www.w3.org/2000/svg" width="12" height="12" viewBox="0 0 12 12"><defs><style>.a{fill:#f4d44e;}.b{fill:#eae9e8;}.c{fill:#e8c842;}</style></defs><g transform="translate(-5.689 0)"><path class="a" d="M100.4,35.034l-.23-.286a.506.506,0,0,1-.1-.447,2.345,2.345,0,0,0-.139-1.7,1.456,1.456,0,0,1-.161-.441,5.641,5.641,0,0,1,.4-2.547c.205-.6.287-.837-.209-1.057a1,1,0,0,0-1.3.506,6.079,6.079,0,0,0-.73,2.281l-3.478-4.315a.848.848,0,0,0-1.059-.2.7.7,0,0,0-.225,1.062l-.406-.5a.85.85,0,0,0-1.1-.175.7.7,0,0,0-.18,1.035l.416.516a.838.838,0,0,0-1.156-.117.7.7,0,0,0-.108,1l.769.954a.838.838,0,0,0-1.167-.108.7.7,0,0,0-.1.993l3.782,4.692a2.955,2.955,0,0,0,1.528.986,1.563,1.563,0,0,1,.848.62l.027.033a.713.713,0,0,0,.945.128l2.993-2.053A.587.587,0,0,0,100.4,35.034Z" transform="translate(-82.844 -26.074)"/><g transform="translate(5.689 0)"><path class="b" d="M339.678,2.076a5.615,5.615,0,0,0-1.3-1.753.186.186,0,1,1,.249-.275,5.987,5.987,0,0,1,1.39,1.869.186.186,0,1,1-.335.159Z" transform="translate(-330.2 0)"/><path class="b" d="M315.75,39.1a4.556,4.556,0,0,0-.84-1.13.186.186,0,0,1,.26-.265,4.926,4.926,0,0,1,.909,1.222.186.186,0,1,1-.329.173Z" transform="translate(-307.313 -36.731)"/><path class="b" d="M7.1,249.441a5.987,5.987,0,0,1-1.39-1.869.186.186,0,1,1,.335-.159,5.615,5.615,0,0,0,1.3,1.753.186.186,0,0,1-.249.275Z" transform="translate(-5.689 -241.275)"/><path class="b" d="M49.429,237.179a4.929,4.929,0,0,1-.909-1.222.186.186,0,0,1,.329-.173,4.554,4.554,0,0,0,.84,1.13.186.186,0,0,1-.26.265Z" transform="translate(-47.455 -229.936)"/></g><g transform="translate(7.133 0.652)"><path class="c" d="M143.443,43.309l2.433,3.272a.355.355,0,0,0,.516.057h0a.356.356,0,0,0,.054-.483l-1.984-2.669,0,0,0,0,0,0,0,0h0l-.384-.517a.764.764,0,0,1,0-.907A.762.762,0,0,0,143.443,43.309Z" transform="translate(-141.961 -41.676)"/><path class="c" d="M111.8,105.509a.368.368,0,0,0,.549.047h0a.34.34,0,0,0,.039-.449l-2.112-2.84a.78.78,0,0,1-.01-.923.766.766,0,0,0-.648,1.23Z" transform="translate(-108.985 -99.674)"/><path class="c" d="M96.681,187.525l-.026-.035a1.53,1.53,0,0,0-.816-.647,2.831,2.831,0,0,1-1.47-1.029L90.73,180.92a.78.78,0,0,1-.01-.923.765.765,0,0,0-.647,1.23l3.639,4.894a2.831,2.831,0,0,0,1.47,1.029A1.53,1.53,0,0,1,96,187.8l.026.035a.649.649,0,0,0,.909.134l.242-.18A.648.648,0,0,1,96.681,187.525Z" transform="translate(-89.915 -176.746)"/><path class="c" d="M210.616,27.64h0a.764.764,0,0,1,0-.908.744.744,0,0,0-.4.083h0a.771.771,0,0,0-.174.124h0a.764.764,0,0,0-.11.973l.024.035,2.2,2.955a.358.358,0,0,0,.534.045h0a.39.39,0,0,0,.042-.518Zm-.211-.283-.012-.016Z" transform="translate(-206.696 -26.731)"/><path class="c" d="M404.49,101.974a6.211,6.211,0,0,0-.435,1.067h0a6.531,6.531,0,0,0-.268,1.312h0a.363.363,0,0,0,.652-.2l.006-.108a6.7,6.7,0,0,1,.7-2.379,1.521,1.521,0,0,1,.225-.312A1.041,1.041,0,0,0,404.49,101.974Z" transform="translate(-395.731 -99.637)"/></g></g></svg>